<?xml version="1.0" encoding="UTF-8"?> <svg xmlns="http://www.w3.org/2000/svg" width="134" height="22" viewBox="0 0 134 22" fill="none"><g clip-path="url(#clip0_1010_2112)"><path d="M101.941 21.0919H97.5195V0.778809H101.921V9.85086C101.999 9.88719 102.076 9.92534 102.154 9.96168C102.353 9.7128 102.544 9.45485 102.757 9.21869C104.452 7.3367 107.456 6.88255 109.654 8.14508C110.871 8.84447 111.496 9.95804 111.551 11.2714C111.68 14.3542 111.68 17.4406 111.703 20.527C111.703 20.7286 111.471 21.1065 111.337 21.1101C109.956 21.1537 108.573 21.1373 107.107 21.1373C107.107 19.0246 107.122 17.0918 107.1 15.1589C107.091 14.3451 107.078 13.5204 106.942 12.7229C106.737 11.5294 106.252 11.0934 105.206 10.939C104.117 10.7773 103.053 11.1588 102.668 12.0998C102.297 13.0026 102.048 14.0018 101.992 14.9736C101.896 16.6322 101.996 18.3016 102.003 19.9675C102.003 20.3235 101.965 20.6796 101.939 21.0937L101.941 21.0919Z" fill="#EF1C23"></path><path d="M32.1605 9.70758C32.4391 8.49652 33.1736 7.89159 34.3641 7.8928C35.0507 7.8928 35.7356 7.8928 36.4749 7.8928V21.1521C35.296 21.1521 34.1552 21.1775 33.0162 21.1267C32.8309 21.1194 32.5348 20.796 32.5057 20.589C32.433 20.0585 32.4821 19.5117 32.4821 18.6743C32.0915 19.0521 31.8935 19.241 31.6991 19.4336C28.6654 22.4273 24.0059 21.3646 22.6561 17.3373C22.0167 15.4317 21.9949 13.4697 22.5599 11.5314C23.1575 9.48413 24.48 8.12532 26.5727 7.62031C28.7236 7.10077 30.5892 7.57126 31.9952 9.38967C32.0679 9.48232 32.1061 9.60221 32.1605 9.70939V9.70758ZM26.5455 14.2073C26.5237 16.2019 27.7263 17.5353 29.5519 17.5407C31.4466 17.548 32.631 16.2673 32.6474 14.1927C32.6637 12.1618 31.5266 10.9374 29.6046 10.9229C27.7553 10.9083 26.5655 12.1836 26.5437 14.2073H26.5455Z" fill="#EF1C23"></path><path d="M78.1453 9.68356C78.2071 9.49464 78.2634 9.38928 78.2743 9.27846C78.3748 8.30477 78.9277 7.81792 79.9329 7.81792H82.2708V21.0809H78.3978C78.3651 20.3633 78.3306 19.6276 78.2925 18.7611C78.06 18.9355 77.8928 19.0299 77.7657 19.1607C74.3868 22.6395 69.6655 21.4896 68.3376 16.8173C67.6781 14.4993 67.7944 12.1886 68.9988 10.0396C70.7609 6.8951 75.722 6.46456 77.6712 9.17128C77.7911 9.33659 77.9491 9.47466 78.1453 9.68356ZM72.3468 14.2523C72.345 16.1706 73.6257 17.5294 75.4495 17.5458C77.297 17.5621 78.5395 16.187 78.5159 14.1469C78.4941 12.1541 77.2716 10.8589 75.4204 10.8716C73.5366 10.8825 72.3486 12.1886 72.3468 14.2523Z" fill="#EF1C23"></path><path d="M85.3196 16.285C86.7947 17.3641 88.3043 18.0762 90.0845 17.969C90.3825 17.9509 90.7312 17.9545 90.9565 17.8019C91.249 17.6021 91.605 17.2696 91.6323 16.9663C91.6595 16.6629 91.3961 16.1888 91.1218 16.0325C90.5805 15.7274 89.9447 15.5893 89.347 15.3822C88.5786 15.1152 87.7811 14.9117 87.049 14.5666C85.8446 13.998 85.1125 13.057 85.0762 11.66C85.0381 10.1813 85.5521 8.98235 86.871 8.23755C89.0055 7.03497 91.2599 7.21299 93.4688 7.9033C95.7977 8.63175 95.3472 8.27025 94.7931 10.3739C94.7023 10.7208 94.5661 11.0587 94.4625 11.3694C93.4162 11.0387 92.4007 10.719 91.3834 10.4011C91.298 10.3739 91.2072 10.3557 91.1182 10.3448C90.1027 10.2285 89.1599 10.61 89.1472 11.2077C89.1254 12.1469 89.9774 12.2195 90.5877 12.4539C91.4597 12.7899 92.3843 12.9879 93.2527 13.3295C94.7477 13.9162 95.7323 14.9571 95.7577 16.6502C95.785 18.425 94.9821 19.7874 93.3544 20.4723C90.4133 21.713 87.5558 21.1771 84.8055 19.7802C84.6547 19.7039 84.504 19.386 84.5421 19.2225C84.7637 18.2615 85.0399 17.3151 85.3214 16.2832L85.3196 16.285Z" fill="#EF1C23"></path><path d="M66.5832 11.6657C63.7039 10.5703 62.5104 10.6866 61.5222 12.0926C60.6539 13.3316 60.7283 15.4406 61.6784 16.5106C62.7702 17.7386 64.3706 17.8294 66.5469 16.6923C66.5469 17.8876 66.5723 19.0084 66.5196 20.1256C66.5106 20.3 66.169 20.5289 65.9383 20.6106C63.5586 21.4481 61.2225 21.4281 59.1098 19.9185C56.9989 18.4107 56.2831 16.2109 56.4739 13.7076C56.8953 8.12703 62.0962 6.52116 65.793 7.82366C66.3452 8.01803 66.6323 8.30505 66.5941 8.94086C66.5432 9.83099 66.5814 10.7266 66.5814 11.6657H66.5832Z" fill="#EF1C23"></path><path d="M55.3365 11.7164C54.8369 11.6455 54.5117 11.5783 54.1847 11.5583C51.7432 11.4166 50.3027 12.6301 50.1737 15.068C50.0829 16.7865 50.1301 18.5159 50.161 20.238C50.1737 20.9319 49.963 21.2044 49.2273 21.1681C48.0265 21.1081 46.8203 21.1517 45.5578 21.1517C45.5341 20.803 45.4996 20.5395 45.4996 20.278C45.496 16.4631 45.5178 12.6483 45.4797 8.83344C45.4724 8.0632 45.714 7.81796 46.457 7.86701C47.2399 7.91969 48.0338 7.92151 48.8167 7.86883C49.5888 7.81615 49.9485 8.04685 49.8504 8.87704C49.7886 9.40021 49.8395 9.93792 49.9503 10.5483C51.2837 8.30844 53.113 7.22575 55.7597 7.68172C55.618 9.026 55.48 10.3339 55.3346 11.7127L55.3365 11.7164Z" fill="#EF1C23"></path><path d="M43.2925 21.15C42.0245 21.15 40.702 21.15 39.3796 21.15C38.7347 21.15 38.8836 20.6468 38.8818 20.2926C38.8691 17.2062 38.8727 14.1217 38.8727 11.0353C38.8727 10.2178 38.8891 9.40215 38.8727 8.58469C38.8618 8.08513 39.0671 7.87622 39.5703 7.88348C40.6584 7.89983 41.7502 7.85805 42.8365 7.91255C43.0509 7.92345 43.4287 8.26315 43.4305 8.45389C43.4542 12.5975 43.436 16.7412 43.4233 20.8848C43.4233 20.9375 43.3742 20.9902 43.2943 21.1482L43.2925 21.15Z" fill="#EF1C23"></path><path d="M18.2635 9.73095H17.159C12.8918 9.73095 8.62467 9.66919 4.35931 9.76728C2.96236 9.79998 1.91963 9.47481 1.07855 8.36124C0.880544 8.09965 0.457279 8.00701 0.135742 7.83806C0.242921 7.71817 0.348283 7.59646 0.455462 7.47656H18.2617V9.73095H18.2635Z" fill="#EF1C23"></path><path d="M115.895 9.73093V7.48926H133.928C132.727 8.51381 132.142 9.85991 130.227 9.78543C125.846 9.61467 121.453 9.73093 117.064 9.73093C116.705 9.73093 116.345 9.73093 115.895 9.73093Z" fill="#EF1C23"></path><path d="M6.24488 13.1934C6.53372 13.1788 6.82256 13.1516 7.11321 13.1516C10.4412 13.1479 13.771 13.1479 17.099 13.1479C17.925 13.1479 18.3349 13.5609 18.3288 14.3869C18.327 14.683 18.2998 14.9773 18.2798 15.3478C17.9074 15.366 17.584 15.3951 17.2607 15.3969C14.6575 15.4005 12.0543 15.3533 9.4548 15.4223C8.48656 15.4478 7.78717 15.1862 7.18043 14.4486C6.88069 14.0835 6.42836 13.8419 6.04688 13.5458L6.24488 13.1934Z" fill="#EF1C23"></path><path d="M128.117 13.5095C127.508 14.0508 126.914 14.6085 126.284 15.1208C126.093 15.277 125.801 15.3842 125.553 15.3842C122.496 15.4005 119.439 15.3951 116.38 15.3896C116.236 15.3896 116.093 15.3442 115.966 15.3224C115.568 13.2315 115.633 13.1462 117.608 13.148C120.727 13.148 123.844 13.148 126.963 13.148C127.285 13.148 127.606 13.148 127.93 13.148C127.991 13.2679 128.055 13.3896 128.117 13.5095Z" fill="#EF1C23"></path><path d="M41.1779 1.03332C42.6821 1.0206 43.7466 2.07786 43.7448 3.58744C43.7448 4.95897 42.5804 6.09979 41.1798 6.09979C39.7447 6.09979 38.5984 4.94262 38.6075 3.50025C38.6166 2.06696 39.6793 1.04785 41.1761 1.03513L41.1779 1.03332Z" fill="#EF1C23"></path><path d="M11.786 18.9102H18.1768C18.2258 18.981 18.2839 19.0264 18.2876 19.0791C18.4244 20.4452 17.8213 21.1282 16.4782 21.1282C16.2675 21.1282 16.0459 21.0882 15.8461 21.1337C13.8823 21.5842 12.9214 20.2308 11.7842 18.9102H11.786Z" fill="#EF1C23"></path><path d="M115.886 21.0613V18.9268H122.247C120.874 21.7697 118.353 21.1466 115.886 21.0613Z" fill="#EF1C23"></path></g><defs><clipPath id="clip0_1010_2112"><rect width="133.79" height="20.4421" fill="white" transform="translate(0.137695 0.778809)"></rect></clipPath></defs></svg> 