<?xml version="1.0" encoding="UTF-8"?> <svg xmlns="http://www.w3.org/2000/svg" width="41" height="40" viewBox="0 0 41 40" fill="none"><g clip-path="url(#clip0_1010_2009)"><path d="M0.0380859 0.0498047H39.9387V21.5893L37.9638 24.6752L39.9387 27.4217V39.9504H0.0380859V19.6452L1.27244 18.2257L0.0380859 16.8679V0.0498047Z" fill="#016FD0"></path><path d="M7.78418 27.8537V21.5894H14.417L15.1286 22.5171L15.8638 21.5894H39.9392V27.4217C39.9392 27.4217 39.3096 27.8475 38.5814 27.8537H25.2504L24.448 26.8662V27.8537H21.8188V26.1681C21.8188 26.1681 21.4597 26.4034 20.6832 26.4034H19.7883V27.8537H15.8075L15.0969 26.9061L14.3754 27.8537H7.78418Z" fill="white"></path><path d="M0.0380859 16.8679L1.53381 13.3809H4.12052L4.96936 15.3342V13.3809H8.18487L8.69018 14.7926L9.18007 13.3809H23.6144V14.0906C23.6144 14.0906 24.3732 13.3809 25.6202 13.3809L30.3036 13.3972L31.1378 15.325V13.3809H33.8287L34.5693 14.4882V13.3809H37.2849V19.6452H34.5693L33.8596 18.5343V19.6452H29.906L29.5085 18.6577H28.4456L28.0545 19.6452H25.3733C24.3003 19.6452 23.6144 18.95 23.6144 18.95V19.6452H19.5718L18.7695 18.6577V19.6452H3.73731L3.34 18.6577H2.28055L1.88604 19.6452H0.0380859V16.8679Z" fill="white"></path><path d="M2.06331 14.1528L0.0458984 18.8434H1.35933L1.73157 17.9041H3.89556L4.26587 18.8434H5.60823L3.59275 14.1528H2.06331ZM2.80971 15.2445L3.46932 16.8858H2.14817L2.80971 15.2445Z" fill="#016FD0"></path><path d="M5.74707 18.8429V14.1523L7.61354 14.1593L8.69914 17.1835L9.75874 14.1523H11.6103V18.8429H10.4376V15.3867L9.19461 18.8429H8.1662L6.91971 15.3867V18.8429H5.74707Z" fill="#016FD0"></path><path d="M12.4121 18.8429V14.1523H16.2386V15.2016H13.5971V16.0039H16.1769V16.9914H13.5971V17.8246H16.2386V18.8429H12.4121Z" fill="#016FD0"></path><path d="M16.918 14.1528V18.8434H18.0906V17.177H18.5844L19.9904 18.8434H21.4234L19.8804 17.1153C20.5137 17.0619 21.1669 16.5184 21.1669 15.6746C21.1669 14.6875 20.3921 14.1528 19.5275 14.1528H16.918ZM18.0906 15.202H19.431C19.7526 15.202 19.9865 15.4536 19.9865 15.6958C19.9865 16.0074 19.6834 16.1895 19.4484 16.1895H18.0906V15.202Z" fill="#016FD0"></path><path d="M22.8428 18.8429H21.6455V14.1523H22.8428V18.8429Z" fill="#016FD0"></path><path d="M25.6822 18.8429H25.4238C24.1733 18.8429 23.4141 17.8577 23.4141 16.5169C23.4141 15.143 24.1648 14.1523 25.7439 14.1523H27.04V15.2633H25.6965C25.0555 15.2633 24.6021 15.7635 24.6021 16.5285C24.6021 17.4369 25.1205 17.8184 25.8674 17.8184H26.1759L25.6822 18.8429Z" fill="#016FD0"></path><path d="M28.2332 14.1528L26.2158 18.8434H27.5293L27.9015 17.9041H30.0655L30.4358 18.8434H31.7782L29.7627 14.1528H28.2332ZM28.9796 15.2445L29.6392 16.8858H28.3181L28.9796 15.2445Z" fill="#016FD0"></path><path d="M31.915 18.8429V14.1523H33.4059L35.3095 17.0994V14.1523H36.4822V18.8429H35.0395L33.0877 15.8187V18.8429H31.915Z" fill="#016FD0"></path><path d="M8.58594 27.0514V22.3608H12.4125V23.41H9.77092V24.2124H12.3507V25.1999H9.77092V26.0331H12.4125V27.0514H8.58594Z" fill="#016FD0"></path><path d="M27.3359 27.0514V22.3608H31.1625V23.41H28.5209V24.2124H31.0884V25.1999H28.5209V26.0331H31.1625V27.0514H27.3359Z" fill="#016FD0"></path><path d="M12.561 27.0514L14.4241 24.7351L12.5166 22.3608H13.994L15.13 23.8286L16.2698 22.3608H17.6893L15.8069 24.7061L17.6735 27.0514H16.1963L15.0933 25.6068L14.0171 27.0514H12.561Z" fill="#016FD0"></path><path d="M17.8125 22.3613V27.0519H19.016V25.5707H20.2504C21.2948 25.5707 22.0865 25.0166 22.0865 23.939C22.0865 23.0463 21.4656 22.3613 20.4027 22.3613H17.8125ZM19.016 23.4221H20.3159C20.6534 23.4221 20.8945 23.6289 20.8945 23.9621C20.8945 24.2752 20.6546 24.5022 20.3121 24.5022H19.016V23.4221Z" fill="#016FD0"></path><path d="M22.5957 22.3608V27.0514H23.7683V25.385H24.2621L25.6681 27.0514H27.1011L25.5582 25.3233C26.1914 25.2699 26.8446 24.7264 26.8446 23.8826C26.8446 22.8955 26.0699 22.3608 25.2052 22.3608H22.5957ZM23.7683 23.41H25.1088C25.4303 23.41 25.6642 23.6616 25.6642 23.9038C25.6642 24.2154 25.3612 24.3975 25.1261 24.3975H23.7683V23.41Z" fill="#016FD0"></path><path d="M31.7055 27.0514V26.0331H34.0524C34.3996 26.0331 34.55 25.8454 34.55 25.6396C34.55 25.4424 34.4001 25.2431 34.0524 25.2431H32.9919C32.07 25.2431 31.5566 24.6814 31.5566 23.8382C31.5566 23.0861 32.0268 22.3608 33.3966 22.3608H35.6802L35.1864 23.4162H33.2115C32.8339 23.4162 32.7177 23.6143 32.7177 23.8035C32.7177 23.9979 32.8613 24.2124 33.1497 24.2124H34.2607C35.2883 24.2124 35.7342 24.7953 35.7342 25.5586C35.7342 26.3793 35.2373 27.0514 34.2047 27.0514H31.7055Z" fill="#016FD0"></path><path d="M36.0092 27.0514V26.0331H38.3561C38.7033 26.0331 38.8537 25.8454 38.8537 25.6396C38.8537 25.4424 38.7038 25.2431 38.3561 25.2431H37.2956C36.3737 25.2431 35.8604 24.6814 35.8604 23.8382C35.8604 23.0861 36.3305 22.3608 37.7003 22.3608H39.9839L39.4901 23.4162H37.5152C37.1376 23.4162 37.0214 23.6143 37.0214 23.8035C37.0214 23.9979 37.165 24.2124 37.4534 24.2124H38.5644C39.592 24.2124 40.0379 24.7953 40.0379 25.5586C40.0379 26.3793 39.541 27.0514 38.5084 27.0514H36.0092Z" fill="#016FD0"></path></g><defs><clipPath id="clip0_1010_2009"><rect x="0.0380859" y="0.0498047" width="40" height="39.9007" rx="4" fill="white"></rect></clipPath></defs></svg> 