<?xml version="1.0" encoding="UTF-8"?> <svg xmlns="http://www.w3.org/2000/svg" width="56" height="56" viewBox="0 0 56 56" fill="none"><path d="M43.3125 29.094C42.7088 29.094 42.2188 28.6039 42.2188 28.0002C42.2188 27.3965 42.7088 26.9065 43.3125 26.9065C43.9162 26.9065 44.4062 27.3965 44.4062 28.0002C44.4062 28.6039 43.9162 29.094 43.3125 29.094ZM38.054 16.3988C38.4812 15.9724 39.1738 15.9724 39.6015 16.3988C40.0278 16.8265 40.0278 17.519 39.6015 17.9463C39.1738 18.3731 38.4812 18.3731 38.054 17.9463C37.6272 17.519 37.6272 16.8265 38.054 16.3988ZM38.054 38.0542C38.4812 37.6274 39.1738 37.6274 39.6015 38.0542C40.0278 38.4814 40.0278 39.174 39.6015 39.6017C39.1738 40.028 38.4812 40.028 38.054 39.6017C37.6272 39.174 37.6272 38.4814 38.054 38.0542ZM28 13.7815C27.3963 13.7815 26.9062 13.2914 26.9062 12.6877C26.9062 12.084 27.3963 11.594 28 11.594C28.6037 11.594 29.0938 12.084 29.0938 12.6877C29.0938 13.2914 28.6037 13.7815 28 13.7815ZM28 42.219C28.6037 42.219 29.0938 42.709 29.0938 43.3127C29.0938 43.9164 28.6037 44.4065 28 44.4065C27.3963 44.4065 26.9062 43.9164 26.9062 43.3127C26.9062 42.709 27.3963 42.219 28 42.219ZM16.3986 16.3988C16.8263 15.9724 17.5188 15.9724 17.9461 16.3988C18.3729 16.8265 18.3729 17.519 17.9461 17.9463C17.5188 18.3731 16.8263 18.3731 16.3986 17.9463C15.9722 17.519 15.9722 16.8265 16.3986 16.3988ZM16.3986 38.0542C16.8263 37.6274 17.5188 37.6274 17.9461 38.0542C18.3729 38.4814 18.3729 39.174 17.9461 39.6017C17.5188 40.028 16.8263 40.028 16.3986 39.6017C15.9722 39.174 15.9722 38.4814 16.3986 38.0542ZM12.6875 26.9065C13.2912 26.9065 13.7812 27.3965 13.7812 28.0002C13.7812 28.6039 13.2912 29.094 12.6875 29.094C12.0838 29.094 11.5938 28.6039 11.5938 28.0002C11.5938 27.3965 12.0838 26.9065 12.6875 26.9065ZM53.7441 17.2443C55.2412 20.693 56 24.3118 56 28.0002C56 31.6886 55.2412 35.3074 53.7441 38.7561C52.306 42.0698 50.2599 45.0665 47.6631 47.6633C45.0663 50.2601 42.0696 52.3062 38.7559 53.7443C35.3072 55.2414 31.6884 56.0002 28 56.0002C24.3116 56.0002 20.6928 55.2414 17.2441 53.7443C13.9308 52.3062 10.9337 50.2601 8.33686 47.6633C5.74005 45.0665 3.69398 42.0698 2.25586 38.7561C0.758789 35.3074 0 31.6886 0 28.0002C0 24.3118 0.758789 20.693 2.25586 17.2443C3.69397 13.9305 5.74005 10.9338 8.33686 8.33704C10.9337 5.74024 13.9304 3.69416 17.2441 2.25604C20.6928 0.758972 24.3116 0.000183105 28 0.000183105C31.6884 0.000183105 35.3072 0.758972 38.7559 2.25604C42.0692 3.69415 45.0663 5.74024 47.6631 8.33704C50.2599 10.9338 52.306 13.9305 53.7441 17.2443ZM28 53.8127C41.9919 53.8127 53.8125 41.9921 53.8125 28.0002C53.8125 14.0083 41.9919 2.1877 28 2.1877C14.0081 2.1877 2.1875 14.0083 2.1875 28.0002C2.1875 41.9921 14.0081 53.8127 28 53.8127ZM49.7443 19.014C50.9923 21.9017 51.625 24.9249 51.625 28.0002C51.625 28.6044 51.1354 29.094 50.5313 29.094C49.9272 29.094 49.4375 28.6044 49.4375 28.0002C49.4375 22.449 47.1595 17.114 43.0229 12.9773C39.9608 9.91528 36.1933 7.8457 32.1268 6.99163C31.5359 6.8673 31.1574 6.28753 31.2817 5.69621C31.4056 5.1049 31.9854 4.72636 32.5767 4.85069C37.0594 5.79235 41.2066 8.06786 44.5694 11.4307C46.7864 13.6477 48.5275 16.1988 49.7443 19.014ZM28 9.07833C38.2565 9.07833 46.9219 17.7433 46.9219 28.0002C46.9219 38.2571 38.2565 46.9221 28 46.9221C17.7435 46.9221 9.07812 38.2571 9.07812 28.0002C9.07812 17.7433 17.7435 9.07833 28 9.07833ZM28 44.7346C37.0709 44.7346 44.7344 37.0711 44.7344 28.0002C44.7344 18.9293 37.0709 11.2658 28 11.2658C18.9291 11.2658 11.2656 18.9293 11.2656 28.0002C11.2656 37.0711 18.9291 44.7346 28 44.7346ZM36.75 26.9065C37.3541 26.9065 37.8438 27.3961 37.8438 28.0002C37.8438 28.6043 37.3541 29.094 36.75 29.094H32.2366C31.7495 30.979 30.035 32.3752 28 32.3752C27.2057 32.3752 26.4435 32.1641 25.7775 31.7698L22.2108 35.336C21.9972 35.5496 21.7173 35.6565 21.4375 35.6565C21.1577 35.6565 20.8778 35.5496 20.6642 35.336C20.2369 34.9088 20.2369 34.2162 20.6642 33.7894L24.2304 30.2227C23.8361 29.5562 23.625 28.7945 23.625 28.0002C23.625 25.9652 25.0212 24.2507 26.9063 23.7636V17.0627C26.9063 16.4586 27.3959 15.969 28 15.969C28.6041 15.969 29.0938 16.4586 29.0938 17.0627V23.7636C30.6289 24.1601 31.8401 25.3714 32.2366 26.9065L36.75 26.9065ZM28 30.1877C29.2061 30.1877 30.1875 29.2063 30.1875 28.0002C30.1875 26.7941 29.2061 25.8127 28 25.8127C26.7939 25.8127 25.8125 26.7941 25.8125 28.0002C25.8125 28.5838 26.0402 29.1328 26.4534 29.5464C26.8669 29.9596 27.4164 30.1877 28 30.1877ZM28 6.5627C27.3963 6.5627 26.9062 6.07265 26.9062 5.46895C26.9062 4.86525 27.3963 4.3752 28 4.3752C28.6037 4.3752 29.0938 4.86525 29.0938 5.46895C29.0938 6.07265 28.6037 6.5627 28 6.5627Z" fill="#F6F6F6"></path></svg> 