<svg width="50" height="50" viewBox="0 0 50 50" fill="none" xmlns="http://www.w3.org/2000/svg">
<circle cx="25" cy="25" r="24.5" stroke="#F6F6F6"/>
<circle cx="25" cy="25" r="22" fill="#F6F6F6"/>
<path d="M16.8404 16.8054L22.9604 22.8866M16.8404 16.8054H12.7604L11.4004 12.7513L12.7604 11.3999L16.8404 12.7513V16.8054ZM34.8726 12.4013L31.2991 15.9522C30.7605 16.4873 30.4912 16.7549 30.3903 17.0635C30.3015 17.3349 30.3015 17.6273 30.3903 17.8987C30.4912 18.2072 30.7605 18.4748 31.2991 19.01L31.6217 19.3306C32.1603 19.8658 32.4296 20.1334 32.7401 20.2336C33.0133 20.3218 33.3075 20.3218 33.5807 20.2336C33.8912 20.1334 34.1605 19.8658 34.6991 19.3306L38.0418 16.0091C38.4018 16.8796 38.6004 17.833 38.6004 18.8324C38.6004 22.9373 35.2515 26.265 31.1204 26.265C30.6223 26.265 30.1357 26.2166 29.6649 26.1244C29.0037 25.9948 28.6731 25.93 28.4727 25.9499C28.2597 25.971 28.1547 26.0027 27.9659 26.1031C27.7883 26.1975 27.6102 26.3745 27.2539 26.7285L17.5204 36.4003C16.3937 37.5198 14.5671 37.5198 13.4404 36.4003C12.3137 35.2808 12.3137 33.4657 13.4404 32.3461L23.1739 22.6744C23.5302 22.3204 23.7083 22.1434 23.8033 21.9669C23.9044 21.7794 23.9363 21.675 23.9575 21.4633C23.9775 21.2642 23.9123 20.9357 23.7819 20.2787C23.6891 19.8109 23.6404 19.3273 23.6404 18.8324C23.6404 14.7276 26.9893 11.3999 31.1204 11.3999C32.4879 11.3999 33.7696 11.7645 34.8726 12.4013ZM25.0005 28.9677L32.4804 36.4001C33.607 37.5196 35.4337 37.5196 36.5604 36.4001C37.687 35.2806 37.687 33.4655 36.5604 32.346L30.4068 26.2316C29.9712 26.1906 29.5465 26.1126 29.1359 26.0006C28.6067 25.8563 28.0263 25.961 27.6383 26.3465L25.0005 28.9677Z" stroke="black" stroke-width="2" stroke-linecap="round" stroke-linejoin="round"/>
</svg>
