<svg width="50" height="50" viewBox="0 0 50 50" fill="none" xmlns="http://www.w3.org/2000/svg">
<circle cx="25" cy="25" r="24.5" stroke="#F6F6F6"/>
<circle cx="25" cy="25" r="22" fill="#F6F6F6"/>
<path d="M22.1667 26.4167C22.7751 27.23 23.5513 27.903 24.4427 28.39C25.334 28.877 26.3197 29.1666 27.3328 29.2392C28.3459 29.3117 29.3628 29.1656 30.3144 28.8106C31.2661 28.4556 32.1303 27.9 32.8484 27.1817L37.0984 22.9317C38.3887 21.5958 39.1026 19.8065 39.0865 17.9493C39.0703 16.092 38.3254 14.3155 37.0121 13.0022C35.6988 11.6888 33.9222 10.9439 32.065 10.9278C30.2077 10.9116 28.4185 11.6256 27.0825 12.9159L24.6459 15.3384M27.8334 23.5834C27.225 22.77 26.4488 22.097 25.5574 21.61C24.6661 21.123 23.6804 20.8335 22.6673 20.7609C21.6542 20.6883 20.6373 20.8345 19.6856 21.1895C18.734 21.5445 17.8698 22.1 17.1517 22.8184L12.9017 27.0684C11.6114 28.4043 10.8975 30.1936 10.9136 32.0508C10.9297 33.908 11.6747 35.6846 12.988 36.9979C14.3013 38.3112 16.0779 39.0562 17.9351 39.0723C19.7923 39.0884 21.5816 38.3745 22.9175 37.0842L25.34 34.6617" stroke="black" stroke-width="3" stroke-linecap="round" stroke-linejoin="round"/>
</svg>
