<?xml version="1.0" encoding="UTF-8"?> <svg xmlns="http://www.w3.org/2000/svg" width="57" height="40" viewBox="0 0 57 40" fill="none"><rect x="0.0400391" y="0.19873" width="55.9984" height="39.6027" rx="4" fill="white"></rect><path d="M29.6879 22.1978C34.0621 22.2189 38.0533 18.6319 38.0533 14.2675C38.0533 9.49567 34.0621 6.19873 29.6879 6.19873H25.9233C21.4986 6.19873 17.8545 9.4973 17.8545 14.2675C17.8545 18.6335 21.4969 22.2189 25.9233 22.1978H29.6879Z" fill="#0069AA"></path><path d="M27.6032 18.5178V9.85253C29.3453 10.5207 30.5823 12.2075 30.5839 14.1843C30.5807 16.1628 29.3437 17.848 27.6032 18.5178ZM21.301 14.1843C21.3043 12.2075 22.5396 10.5223 24.2802 9.85253V18.5162C22.5396 17.8463 21.3043 16.1612 21.301 14.1843ZM25.9425 6.86035C21.8991 6.86035 18.6217 10.1394 18.6201 14.1843C18.6201 18.2293 21.8975 21.5051 25.9425 21.5067C29.9875 21.5067 33.2648 18.2277 33.2665 14.1843C33.2665 10.1394 29.9875 6.86198 25.9425 6.86035Z" fill="white"></path><path d="M9.67429 27.6574C9.67429 28.3093 10.1404 28.3843 10.5543 28.3843C12.3813 28.3843 12.981 27.0055 12.981 25.7458C12.981 24.1633 11.9657 23.0225 10.3343 23.0225C9.9872 23.0225 9.82749 23.0469 9.67429 23.0567V27.6574ZM8.84476 23.6907C8.84476 22.9296 8.44711 22.9801 8.06738 22.972V22.752C8.39659 22.7683 8.73557 22.7683 9.06478 22.7683C9.42006 22.7683 9.90245 22.752 10.5283 22.752C12.7186 22.752 13.9116 24.2138 13.9116 25.7132C13.9116 26.5508 13.421 28.6565 10.4272 28.6565C9.99698 28.6565 9.5977 28.6402 9.20004 28.6402C8.80239 28.6402 8.44711 28.6483 8.06738 28.6565V28.4364C8.57423 28.3859 8.82032 28.368 8.84476 27.7927V23.6907Z" fill="#0069AA"></path><path d="M15.1145 23.4869C14.8944 23.4869 14.7005 23.2832 14.7005 23.0632C14.7005 22.8432 14.9042 22.6558 15.1145 22.6558C15.3247 22.6558 15.5284 22.8334 15.5284 23.0632C15.5284 23.293 15.3426 23.4869 15.1145 23.4869ZM14.21 28.4348H14.3713C14.6076 28.4348 14.7771 28.4348 14.7771 28.1545V25.8631C14.7771 25.4915 14.65 25.4393 14.3371 25.2715V25.1362C14.7347 25.0172 15.209 24.8575 15.2416 24.8314C15.3019 24.7972 15.3508 24.7891 15.3948 24.7891C15.4388 24.7891 15.4534 24.8396 15.4534 24.908V28.1545C15.4534 28.4348 15.6392 28.4348 15.8772 28.4348H16.0206V28.6548C15.7321 28.6548 15.4371 28.6385 15.1324 28.6385C14.8276 28.6385 14.5229 28.6466 14.21 28.6548V28.4348Z" fill="#0069AA"></path><path d="M16.823 25.915C16.823 25.6021 16.7301 25.5174 16.3324 25.3577V25.1963C16.6959 25.0774 17.0414 24.9682 17.4488 24.7905C17.4749 24.7905 17.4993 24.8085 17.4993 24.8753V25.4245C17.9817 25.079 18.3973 24.7905 18.9645 24.7905C19.6832 24.7905 19.9358 25.3153 19.9358 25.9753V28.1575C19.9358 28.4379 20.1216 28.4379 20.3595 28.4379H20.5127V28.6579C20.2161 28.6579 19.9195 28.6416 19.6163 28.6416C19.3132 28.6416 19.0068 28.6497 18.7021 28.6579V28.4379H18.8536C19.0916 28.4379 19.2594 28.4379 19.2594 28.1575V25.9672C19.2594 25.4848 18.9645 25.2485 18.4821 25.2485C18.2115 25.2485 17.7796 25.4685 17.4993 25.6543V28.1575C17.4993 28.4379 17.6867 28.4379 17.9231 28.4379H18.0746V28.6579C17.778 28.6579 17.483 28.6416 17.1783 28.6416C16.8735 28.6416 16.5688 28.6497 16.2656 28.6579V28.4379H16.4188C16.6551 28.4379 16.8246 28.4379 16.8246 28.1575V25.9167L16.823 25.915Z" fill="#0069AA"></path><path d="M22.6509 26.0503C22.8628 26.0503 22.8873 25.9395 22.8873 25.8384C22.8873 25.4066 22.6249 25.0594 22.1523 25.0594C21.6373 25.0594 21.282 25.4392 21.1793 26.0487H22.6509V26.0503ZM21.1532 26.3208C21.1353 26.3974 21.1353 26.5229 21.1532 26.8114C21.2037 27.6148 21.7204 28.2749 22.3951 28.2749C22.8612 28.2749 23.2246 28.0206 23.5375 27.7077L23.6549 27.8267C23.2654 28.3433 22.783 28.7834 22.0903 28.7834C20.7442 28.7834 20.4736 27.4812 20.4736 26.9401C20.4736 25.2811 21.59 24.7905 22.1816 24.7905C22.8677 24.7905 23.6043 25.2224 23.6109 26.1188C23.6109 26.1693 23.6109 26.2198 23.6027 26.2719L23.5261 26.3225H21.15L21.1532 26.3208Z" fill="#0069AA"></path><path d="M23.8092 28.4364H24.0374C24.2737 28.4364 24.4432 28.4364 24.4432 28.1561V25.7799C24.4432 25.5176 24.1303 25.467 24.0032 25.3986V25.2715C24.6209 25.0091 24.9598 24.7891 25.0364 24.7891C25.0853 24.7891 25.1114 24.8151 25.1114 24.8999V25.661H25.1293C25.3396 25.3318 25.6965 24.7891 26.2115 24.7891C26.4233 24.7891 26.6939 24.9325 26.6939 25.2372C26.6939 25.4654 26.5341 25.6691 26.2962 25.6691C26.0322 25.6691 26.0322 25.4654 25.7372 25.4654C25.5938 25.4654 25.1195 25.661 25.1195 26.1678V28.1544C25.1195 28.4348 25.289 28.4348 25.5253 28.4348H25.998V28.6548C25.5319 28.6466 25.1782 28.6385 24.8148 28.6385C24.4514 28.6385 24.1124 28.6466 23.8076 28.6548V28.4348L23.8092 28.4364Z" fill="#0069AA"></path><path d="M27.065 27.4797C27.1758 28.0371 27.5132 28.5114 28.1308 28.5114C28.6295 28.5114 28.8153 28.2066 28.8153 27.9116C28.8153 26.9142 26.9721 27.2353 26.9721 25.8728C26.9721 25.3986 27.3534 24.7891 28.2824 24.7891C28.5529 24.7891 28.9163 24.8657 29.2456 25.0352L29.3042 25.8973H29.1103C29.0255 25.3644 28.7306 25.0612 28.1879 25.0612C27.8489 25.0612 27.5278 25.2552 27.5278 25.6186C27.5278 26.6095 29.49 26.3031 29.49 27.6313C29.49 28.1887 29.0418 28.7819 28.0347 28.7819C27.6957 28.7819 27.298 28.6629 27.0031 28.4951L26.9102 27.5221L27.0633 27.4797H27.065Z" fill="#0069AA"></path><path d="M37.1303 24.2821H36.92C36.7587 23.2929 36.0563 22.8952 35.1094 22.8952C34.1625 22.8952 32.7235 23.5455 32.7235 25.5761C32.7235 27.2857 33.9425 28.5112 35.2447 28.5112C36.0823 28.5112 36.7766 27.936 36.9461 27.0478L37.14 27.0983L36.9461 28.3336C36.5908 28.5536 35.6342 28.7818 35.0768 28.7818C33.0983 28.7818 31.8467 27.5041 31.8467 25.6006C31.8467 23.8665 33.3949 22.623 35.0524 22.623C35.7368 22.623 36.3969 22.8431 37.0488 23.0729L37.1335 24.2821H37.1303Z" fill="#0069AA"></path><path d="M37.4355 28.4362H37.5953C37.8332 28.4362 38.0027 28.4362 38.0027 28.1559V23.446C38.0027 22.8967 37.8756 22.8788 37.5545 22.7859V22.6507C37.8935 22.5415 38.2471 22.3883 38.4248 22.2872C38.5177 22.2367 38.5861 22.1943 38.6106 22.1943C38.6611 22.1943 38.679 22.2449 38.679 22.3133V28.1575C38.679 28.4378 38.8648 28.4378 39.1028 28.4378H39.2462V28.6578C38.9593 28.6578 38.6627 28.6415 38.358 28.6415C38.0532 28.6415 37.7485 28.6497 37.4355 28.6578V28.4378V28.4362Z" fill="#0069AA"></path><path d="M42.8673 28.1905C42.8673 28.3437 42.9602 28.3518 43.1037 28.3518C43.2047 28.3518 43.3318 28.3437 43.4426 28.3437V28.5213C43.0792 28.5555 42.3849 28.7332 42.2236 28.7837L42.1812 28.7576V28.0731C41.6744 28.4871 41.2849 28.7837 40.6835 28.7837C40.2272 28.7837 39.7529 28.4871 39.7529 27.7781V25.6122C39.7529 25.3922 39.7187 25.1804 39.2461 25.1396V24.9783C39.5509 24.9701 40.2256 24.9196 40.3364 24.9196C40.4309 24.9196 40.4309 24.9783 40.4309 25.1641V27.3463C40.4309 27.6005 40.4309 28.3274 41.1659 28.3274C41.4527 28.3274 41.8341 28.1073 42.1894 27.8124V25.5356C42.1894 25.3661 41.7836 25.2749 41.4804 25.1901V25.0369C42.2415 24.9864 42.7158 24.918 42.7989 24.918C42.8673 24.918 42.8673 24.9766 42.8673 25.0712V28.1921V28.1905Z" fill="#0069AA"></path><path d="M44.549 27.6999C44.549 28.0209 44.8538 28.5636 45.4193 28.5636C46.3238 28.5636 46.7051 27.6754 46.7051 26.9225C46.7051 26.0099 46.0125 25.2488 45.3524 25.2488C45.0379 25.2488 44.7772 25.4525 44.549 25.6464V27.7015V27.6999ZM44.549 25.3987C44.8863 25.1119 45.3443 24.7892 45.8088 24.7892C46.7899 24.7892 47.3815 25.6448 47.3815 26.5656C47.3815 27.6738 46.5699 28.782 45.359 28.782C44.7332 28.782 44.4039 28.5783 44.1839 28.4854L43.9313 28.6793L43.7537 28.5865C43.8287 28.0878 43.871 27.5972 43.871 27.0806V23.443C43.871 22.8938 43.7439 22.8759 43.4229 22.783V22.6477C43.7618 22.5385 44.1171 22.3853 44.2948 22.2843C44.3877 22.2338 44.4545 22.1914 44.4805 22.1914C44.5311 22.1914 44.5474 22.2419 44.5474 22.3104V25.3971L44.549 25.3987Z" fill="#0069AA"></path><path d="M8.05762 33.5732H8.12281C8.28904 33.5732 8.46342 33.5504 8.46342 33.3108V30.9004C8.46342 30.6609 8.28904 30.638 8.12281 30.638H8.05762V30.4995C8.23689 30.4995 8.51394 30.5174 8.73884 30.5174C8.96374 30.5174 9.24406 30.4995 9.46081 30.4995V30.638H9.39562C9.23102 30.638 9.05501 30.6609 9.05501 30.9004V33.3108C9.05501 33.5504 9.23102 33.5732 9.39562 33.5732H9.46081V33.7117C9.23917 33.7117 8.96374 33.6938 8.73395 33.6938C8.50416 33.6938 8.23689 33.7117 8.05762 33.7117V33.5732Z" fill="#0069AA"></path><path d="M9.44323 33.6922V33.5944H9.39923C9.23463 33.5944 9.03906 33.5651 9.03906 33.3124V30.9021C9.03906 30.6478 9.23626 30.6185 9.39923 30.6185H9.44323V30.5207C9.22974 30.5207 8.96409 30.5387 8.74082 30.5387C8.51755 30.5387 8.25842 30.5207 8.07915 30.5207V30.6185H8.12316C8.28776 30.6185 8.48332 30.6478 8.48332 30.9021V33.3124C8.48332 33.5667 8.28776 33.5944 8.12316 33.5944H8.07915V33.6922C8.25679 33.6905 8.51755 33.6726 8.73593 33.6726C8.95432 33.6726 9.22648 33.6905 9.44323 33.6922ZM9.46279 33.7313C9.23952 33.7313 8.96409 33.7134 8.73593 33.7134C8.50777 33.7134 8.2405 33.7313 8.0596 33.7313H8.04004V33.5536H8.12478C8.29265 33.5504 8.44421 33.5357 8.44584 33.3108V30.9005C8.44421 30.6755 8.29265 30.6609 8.12478 30.6576H8.04004V30.48H8.0596C8.2405 30.48 8.51592 30.4979 8.74082 30.4979C8.96572 30.4979 9.24604 30.48 9.46279 30.48H9.48235V30.6576H9.3976C9.22974 30.6609 9.07817 30.6755 9.07654 30.9005V33.3108C9.07654 33.5357 9.22974 33.5488 9.3976 33.5536H9.48235V33.7313H9.46279Z" fill="#0069AA"></path><path d="M12.624 32.8057L12.6338 32.796V31.0701C12.6338 30.692 12.3714 30.6366 12.2329 30.6366H12.1318V30.498C12.3486 30.498 12.5604 30.516 12.7756 30.516C12.9646 30.516 13.1537 30.498 13.3411 30.498V30.6366H13.2726C13.0787 30.6366 12.8619 30.6741 12.8619 31.2216V33.3158C12.8619 33.4772 12.8668 33.6369 12.8897 33.7803H12.7153L10.3456 31.1385V33.0355C10.3456 33.4364 10.4239 33.5733 10.7775 33.5733H10.8558V33.7119C10.6586 33.7119 10.4597 33.6939 10.2625 33.6939C10.0653 33.6939 9.84369 33.7119 9.63672 33.7119V33.5733H9.70191C10.0197 33.5733 10.1159 33.3582 10.1159 32.9899V31.0522C10.1159 30.7947 9.90399 30.6382 9.69702 30.6382H9.63672V30.4997C9.8111 30.4997 9.99037 30.5176 10.1664 30.5176C10.3049 30.5176 10.4385 30.4997 10.5771 30.4997L12.6256 32.8057H12.624Z" fill="#0069AA"></path><path d="M12.714 33.7606H12.8672C12.846 33.6221 12.8427 33.4689 12.8427 33.3173V31.2231C12.8427 30.6707 13.0742 30.6185 13.273 30.6185H13.3219V30.5207C13.141 30.5207 12.9585 30.5387 12.7759 30.5387C12.5657 30.5387 12.3603 30.5224 12.1517 30.5207V30.6185H12.2332C12.375 30.6185 12.6537 30.6821 12.6537 31.0716L12.6472 32.8105L12.6374 32.8203L12.6211 32.8349L10.5742 30.5207C10.4373 30.5207 10.3036 30.5387 10.1635 30.5387C9.99398 30.5387 9.82123 30.5224 9.655 30.5207V30.6185H9.69574C9.9125 30.6185 10.1341 30.7831 10.1341 31.052V32.9898C10.1341 33.3581 10.0315 33.5928 9.70063 33.5944H9.65663V33.6922C9.85709 33.6905 10.0608 33.6726 10.2629 33.6726C10.465 33.6726 10.6475 33.6889 10.8366 33.6922V33.5944H10.7779C10.4161 33.5944 10.3264 33.4347 10.3248 33.0354V31.0879L12.714 33.7606ZM12.8884 33.8014L12.6993 33.7948L10.3639 31.1922V33.037C10.3688 33.4379 10.4308 33.5504 10.7763 33.5553H10.874V33.7329H10.8528C10.654 33.7329 10.4552 33.715 10.2596 33.715C10.0543 33.715 9.84242 33.7329 9.63381 33.7329H9.61426V33.5553H9.699C10.0038 33.5536 10.0901 33.3581 10.0934 32.9914V31.0536C10.0934 30.8092 9.89131 30.6592 9.69411 30.6592H9.61426V30.4816H9.63381C9.80982 30.4816 9.98909 30.4995 10.1635 30.4995C10.3004 30.4995 10.434 30.4816 10.5888 30.4881L12.6113 32.7649V31.0716C12.6081 30.7049 12.3652 30.6609 12.23 30.6576H12.1077V30.48H12.1273C12.344 30.48 12.5559 30.4979 12.771 30.4979C12.9585 30.4979 13.1475 30.48 13.3366 30.48H13.3561V30.6576H13.2681C13.0774 30.6625 12.8835 30.6788 12.877 31.2215V33.3157C12.877 33.4754 12.8819 33.6368 12.9047 33.7769L12.9096 33.7997H12.8851L12.8884 33.8014Z" fill="#0069AA"></path><path d="M14.0313 30.7295C13.6858 30.7295 13.6728 30.8126 13.6043 31.1483H13.4658C13.4837 31.0196 13.5066 30.8908 13.5212 30.7572C13.5392 30.6284 13.5489 30.4997 13.5489 30.3661H13.6598C13.6972 30.5046 13.8113 30.4997 13.9368 30.4997H16.3113C16.4368 30.4997 16.5509 30.4948 16.5607 30.3579L16.6699 30.3758C16.6519 30.4997 16.634 30.6252 16.6193 30.749C16.6112 30.8729 16.6112 30.9984 16.6112 31.1222L16.4727 31.1728C16.4629 31.0033 16.4401 30.7311 16.1321 30.7311H15.3775V33.1806C15.3775 33.5359 15.5388 33.5766 15.7588 33.5766H15.8469V33.7151C15.6676 33.7151 15.3449 33.6972 15.0972 33.6972C14.8218 33.6972 14.4991 33.7151 14.3182 33.7151V33.5766H14.4062C14.6604 33.5766 14.7875 33.5538 14.7875 33.1904V30.7327H14.033L14.0313 30.7295Z" fill="#0069AA"></path><path d="M15.8453 33.7311C15.6644 33.7311 15.3417 33.7132 15.0956 33.7132C14.8202 33.7132 14.4975 33.7311 14.3166 33.7311H14.297V33.5535H14.4046C14.6588 33.547 14.7599 33.5437 14.7664 33.1868V30.7487H14.0314V30.708H14.8055V33.1868C14.8055 33.5568 14.6572 33.5926 14.4046 33.5942H14.3361V33.6904C14.517 33.6904 14.8267 33.6725 15.0939 33.6725C15.3335 33.6725 15.6415 33.6888 15.8241 33.6904V33.5942H15.7572C15.5356 33.5942 15.3563 33.5388 15.3563 33.177V30.708H16.1305C16.4401 30.708 16.4792 30.972 16.4906 31.1431L16.59 31.1073C16.59 30.9883 16.59 30.8677 16.5982 30.7455C16.6112 30.6265 16.6292 30.5092 16.6454 30.3918L16.5754 30.3804C16.5542 30.5141 16.4254 30.5206 16.3097 30.5206H13.9124C13.8048 30.5206 13.6859 30.5157 13.6451 30.3869H13.5685C13.5685 30.5141 13.5587 30.6379 13.5408 30.7602C13.5278 30.8873 13.5066 31.0079 13.4903 31.1301H13.5881C13.6484 30.809 13.6891 30.7047 14.0314 30.7096V30.7504C13.6908 30.7569 13.6989 30.8139 13.6223 31.1545L13.619 31.1708H13.4414L13.4447 31.1464C13.4642 31.0177 13.487 30.8889 13.5001 30.7553C13.5196 30.6281 13.5278 30.4994 13.5278 30.3674V30.3478H13.6745L13.6777 30.3625C13.7087 30.4782 13.7934 30.4798 13.9108 30.4815H16.3081C16.4368 30.4798 16.5297 30.4782 16.5379 30.3576V30.3364L16.5607 30.3413L16.6911 30.3625L16.6878 30.3821C16.6699 30.5059 16.652 30.6298 16.6373 30.7536C16.6292 30.8759 16.6292 30.9997 16.6292 31.1252V31.1399L16.6161 31.1448L16.4531 31.2051V31.1774C16.4401 31.0046 16.4222 30.7536 16.1305 30.7536H15.3954V33.1819C15.4003 33.5291 15.5372 33.5535 15.7572 33.5568H15.8648V33.7344H15.8453V33.7311Z" fill="#0069AA"></path><path d="M16.8164 33.5732H16.8816C17.0478 33.5732 17.2222 33.5504 17.2222 33.3108V30.9004C17.2222 30.6609 17.0478 30.638 16.8816 30.638H16.8164V30.4995C17.0967 30.4995 17.5759 30.5174 17.9621 30.5174C18.3483 30.5174 18.8275 30.4995 19.1404 30.4995C19.1322 30.6967 19.1371 31.0015 19.1502 31.2036L19.0116 31.241C18.9888 30.9412 18.9351 30.7032 18.451 30.7032H17.8122V31.9092H18.3598C18.6352 31.9092 18.6955 31.7528 18.7232 31.5051H18.8617C18.8519 31.6843 18.8487 31.8636 18.8487 32.0429C18.8487 32.2221 18.8536 32.3933 18.8617 32.5676L18.7232 32.5953C18.6955 32.3199 18.6824 32.1406 18.363 32.1406H17.8122V33.213C17.8122 33.5129 18.0778 33.5129 18.3728 33.5129C18.9253 33.5129 19.1697 33.4754 19.3066 32.9523L19.4354 32.9832C19.3751 33.2277 19.3197 33.4705 19.2789 33.715C18.9839 33.715 18.4543 33.697 18.0403 33.697C17.6264 33.697 17.0788 33.715 16.8164 33.715V33.5764V33.5732Z" fill="#0069AA"></path><path d="M19.2607 33.6922C19.3014 33.4591 19.3536 33.2277 19.4106 32.9946L19.3194 32.9718C19.1808 33.4868 18.9152 33.5325 18.3709 33.5292C18.0808 33.5292 17.7907 33.5292 17.7891 33.2098V32.1179H18.3611C18.6821 32.1146 18.7147 32.3085 18.7376 32.5709L18.837 32.5497C18.8288 32.3802 18.8239 32.2107 18.8239 32.0413C18.8239 31.8718 18.8288 31.6958 18.837 31.5214H18.7376C18.7115 31.7609 18.6365 31.9304 18.3562 31.9272H17.7891V30.6804H18.4491C18.9282 30.6772 19.0081 30.9249 19.0276 31.2134L19.1271 31.1873C19.1189 31.0569 19.114 30.8907 19.114 30.7375C19.114 30.6593 19.114 30.5843 19.1189 30.5191C18.806 30.5191 18.3399 30.537 17.9618 30.537C17.5837 30.537 17.1176 30.5207 16.8357 30.5191V30.6169H16.8813C17.0459 30.6169 17.2415 30.6462 17.2415 30.9005V33.3108C17.2415 33.5651 17.0443 33.5928 16.8813 33.5944H16.8357V33.6905C17.1046 33.6905 17.6359 33.6726 18.04 33.6726C18.4442 33.6726 18.9641 33.6905 19.2607 33.6905M19.277 33.7313C18.982 33.7313 18.4524 33.7117 18.0384 33.7117C17.6245 33.7117 17.0769 33.7313 16.8145 33.7313H16.7949V33.5536H16.8797C17.0459 33.5504 17.1975 33.5357 17.1991 33.3108V30.9005C17.1975 30.6755 17.0459 30.6609 16.8797 30.6576H16.7949V30.48H16.8145C17.0948 30.48 17.5739 30.4979 17.9602 30.4979C18.3464 30.4979 18.8256 30.48 19.1385 30.48H19.1597V30.5012C19.1548 30.5712 19.1548 30.6527 19.1548 30.7391C19.1548 30.8988 19.1597 31.0716 19.1694 31.2036V31.2199L19.1548 31.2248L18.9934 31.2671V31.2443C18.9657 30.9461 18.925 30.7293 18.4507 30.7244H17.8314V31.8897H18.3595C18.6251 31.8864 18.6724 31.7512 18.7033 31.5034V31.4855H18.881V31.5067C18.8712 31.686 18.8663 31.8652 18.8663 32.0445C18.8663 32.2238 18.8728 32.3933 18.881 32.5677V32.584L18.8647 32.5872L18.705 32.6198V32.5986C18.6724 32.3167 18.6691 32.1635 18.3643 32.1602H17.8314V33.213C17.8314 33.4917 18.0726 33.4917 18.3725 33.4917C18.9266 33.4885 19.1482 33.4607 19.2868 32.9441L19.2917 32.9262L19.3112 32.9295L19.4595 32.9669L19.4546 32.9865C19.3943 33.2293 19.3389 33.4738 19.2982 33.7166L19.2949 33.7329H19.2786L19.277 33.7313Z" fill="#0069AA"></path><path d="M20.6442 32.0543H20.8691C21.3303 32.0543 21.578 31.8799 21.578 31.3372C21.578 30.9281 21.3157 30.6657 20.9066 30.6657C20.7681 30.6657 20.7094 30.6804 20.6458 30.6837V32.0543H20.6442ZM20.0542 30.9868C20.0542 30.6511 19.8701 30.638 19.7267 30.638H19.6436V30.4995C19.7902 30.4995 20.0754 30.5174 20.3574 30.5174C20.6393 30.5174 20.8544 30.4995 21.0989 30.4995C21.6775 30.4995 22.1941 30.656 22.1941 31.3095C22.1941 31.7234 21.917 31.976 21.5552 32.1195L22.3424 33.2961C22.4711 33.4917 22.5624 33.5455 22.7889 33.5732V33.7117C22.6374 33.7117 22.4891 33.6938 22.3375 33.6938C22.1957 33.6938 22.0474 33.7117 21.9056 33.7117C21.552 33.2472 21.2472 32.7502 20.9473 32.2205H20.6442V33.2065C20.6442 33.5618 20.8088 33.5748 21.0207 33.5748H21.1038V33.7133C20.8414 33.7133 20.5741 33.6954 20.3117 33.6954C20.0901 33.6954 19.875 33.7133 19.6452 33.7133V33.5748H19.7283C19.8994 33.5748 20.0559 33.4982 20.0559 33.3271V30.9884L20.0542 30.9868Z" fill="#0069AA"></path><path d="M20.8691 32.0346C21.3255 32.0313 21.5536 31.8732 21.5585 31.3371C21.5552 30.9361 21.3059 30.6852 20.905 30.6835C20.7811 30.6835 20.7225 30.6949 20.6638 30.6998V32.0329H20.8691V32.0346ZM20.6442 32.0737H20.6247V30.6656H20.6426C20.7045 30.6591 20.7681 30.646 20.9066 30.646C21.3255 30.646 21.5993 30.9182 21.5993 31.3371C21.5993 31.8863 21.3352 32.0737 20.8708 32.0737H20.6459H20.6442ZM20.6442 32.2008H20.9588L20.9653 32.2106C21.2652 32.7386 21.5667 33.2357 21.9056 33.692C22.0458 33.692 22.1941 33.6724 22.3375 33.6724C22.4809 33.6724 22.626 33.6887 22.7694 33.6904V33.5893C22.5526 33.5633 22.4516 33.4981 22.3261 33.3074L21.5243 32.1095L21.5471 32.0998C21.9073 31.958 22.1745 31.7119 22.1745 31.3077C22.1745 30.6689 21.6775 30.5206 21.0989 30.5173C20.8561 30.5173 20.6361 30.5352 20.359 30.5352C20.082 30.5352 19.8163 30.5173 19.6648 30.5173V30.6151H19.7283C19.8717 30.6151 20.0738 30.6395 20.0738 30.985V33.3237C20.0738 33.5078 19.9011 33.5926 19.7283 33.5926H19.6648V33.6887C19.8864 33.6887 20.0966 33.6708 20.3118 33.6708C20.5693 33.6708 20.8284 33.6887 21.0843 33.6887V33.5926H21.0207C20.8105 33.5926 20.623 33.5665 20.623 33.2031V32.1992H20.6426L20.6442 32.2008ZM22.789 33.7311C22.6341 33.7311 22.4891 33.7132 22.3375 33.7132C22.1974 33.7132 22.0507 33.7311 21.8893 33.7246C21.5357 33.2618 21.2342 32.768 20.936 32.2416H20.6638V33.2063C20.6687 33.5518 20.8072 33.5502 21.0207 33.5551H21.1234V33.7327H21.1022C20.8398 33.7327 20.5725 33.7148 20.3101 33.7148C20.0901 33.7148 19.875 33.7327 19.6436 33.7327H19.624V33.5551H19.7267C19.8929 33.5551 20.0315 33.4818 20.0331 33.3269V30.9883C20.0298 30.6623 19.8701 30.664 19.7267 30.6591H19.624V30.4814H19.6436C19.7935 30.4814 20.0771 30.4994 20.3574 30.4994C20.6377 30.4994 20.8528 30.4814 21.0973 30.4814C21.6775 30.4814 22.212 30.6428 22.2137 31.311C22.2137 31.7266 21.9399 31.9857 21.5846 32.1307L22.3571 33.2878C22.4858 33.4785 22.5657 33.5258 22.7906 33.5551L22.8069 33.5584V33.7344H22.7873L22.789 33.7311Z" fill="#0069AA"></path><path d="M25.9134 32.8057L25.9215 32.796V31.0701C25.9215 30.692 25.6592 30.6366 25.5223 30.6366H25.4212V30.498C25.638 30.498 25.8482 30.516 26.065 30.516C26.254 30.516 26.4414 30.498 26.6321 30.498V30.6366H26.562C26.3681 30.6366 26.153 30.6741 26.153 31.2216V33.3158C26.153 33.4772 26.1579 33.6369 26.1807 33.7803H26.0063L23.6367 31.1385V33.0355C23.6367 33.4364 23.7149 33.5733 24.0685 33.5733H24.1468V33.7119C23.9496 33.7119 23.7507 33.6939 23.5535 33.6939C23.3466 33.6939 23.1347 33.7119 22.9277 33.7119V33.5733H22.9913C23.3091 33.5733 23.4069 33.3582 23.4069 32.9899V31.0522C23.4069 30.7947 23.195 30.6382 22.988 30.6382H22.9277V30.4997C23.1021 30.4997 23.2814 30.5176 23.4574 30.5176C23.5943 30.5176 23.7279 30.4997 23.8665 30.4997L25.915 32.8057H25.9134Z" fill="#0069AA"></path><path d="M26.0063 33.7606H26.1579C26.1383 33.6221 26.1334 33.4689 26.1334 33.3173V31.2231C26.1334 30.6707 26.3665 30.6201 26.5637 30.6185H26.6109V30.5207C26.43 30.5207 26.2475 30.5387 26.065 30.5387C25.8531 30.5387 25.6494 30.5224 25.4408 30.5207V30.6185H25.5223C25.6641 30.6185 25.9428 30.6821 25.9428 31.0716L25.9362 32.8105L25.9281 32.8203L25.9134 32.8349L23.8649 30.5191C23.728 30.5191 23.5943 30.537 23.4558 30.537C23.2847 30.537 23.1135 30.5207 22.9457 30.5191V30.6169H22.9864C23.2032 30.6169 23.4248 30.7815 23.4248 31.0504V32.9881C23.4248 33.3581 23.3205 33.5928 22.9913 33.5944H22.9457V33.6905C23.1445 33.6905 23.3499 33.6726 23.5519 33.6726C23.754 33.6726 23.9366 33.6889 24.1272 33.6905V33.5944H24.0686C23.7068 33.5944 23.6155 33.4347 23.6139 33.0354V31.0879L26.0047 33.7606H26.0063ZM26.1807 33.8014L25.9916 33.7948L23.6562 31.1922V33.037C23.6628 33.4379 23.7231 33.5504 24.0702 33.5553H24.168V33.7329H24.1484C23.9496 33.7329 23.7524 33.7134 23.5552 33.7134C23.358 33.7134 23.1364 33.7329 22.9294 33.7329H22.9082V33.5553H22.9929C23.2961 33.5553 23.3841 33.3581 23.3873 32.9898V31.052C23.3873 30.8076 23.1869 30.6576 22.9897 30.6576H22.9082V30.48H22.9294C23.1054 30.48 23.2847 30.4979 23.4591 30.4979C23.5943 30.4979 23.728 30.48 23.8828 30.4865L25.9053 32.7649V31.0716C25.9053 30.7065 25.6592 30.6609 25.5255 30.6592H25.4033V30.4816H25.4229C25.6396 30.4816 25.8515 30.4995 26.0682 30.4995C26.2557 30.4995 26.4447 30.4816 26.6338 30.4816H26.6533V30.6592H26.5653C26.3746 30.6641 26.1791 30.6804 26.1758 31.2231V33.3173C26.1758 33.477 26.1807 33.6368 26.2035 33.7785V33.8014H26.184H26.1807Z" fill="#0069AA"></path><path d="M28.0429 31.0147H28.0331L27.6061 32.3168H28.4666L28.0445 31.0147H28.0429ZM27.3714 33.0534C27.3242 33.2099 27.2688 33.3305 27.2688 33.412C27.2688 33.5505 27.4627 33.5733 27.6143 33.5733H27.6648V33.7119C27.4806 33.7021 27.2916 33.6939 27.1074 33.6939C26.9412 33.6939 26.7766 33.7021 26.6104 33.7119V33.5733H26.6381C26.8173 33.5733 26.9689 33.4674 27.0373 33.2735L27.774 31.1613C27.8343 30.9902 27.9174 30.7604 27.9451 30.5893C28.0918 30.5388 28.2759 30.4475 28.3639 30.3921C28.3786 30.3872 28.3868 30.3823 28.4014 30.3823C28.4161 30.3823 28.4242 30.3823 28.434 30.397C28.4471 30.4328 28.4601 30.4752 28.4764 30.5127L29.3238 32.9198C29.3793 33.0812 29.433 33.2506 29.4933 33.3892C29.5487 33.5179 29.6465 33.5717 29.7981 33.5717H29.8258V33.7102C29.6188 33.7004 29.4118 33.6923 29.1902 33.6923C28.9686 33.6923 28.7339 33.7004 28.4992 33.7102V33.5717H28.5497C28.6557 33.5717 28.8349 33.5538 28.8349 33.4381C28.8349 33.3778 28.7942 33.2539 28.742 33.1056L28.5628 32.5727H27.5181L27.3714 33.0518V33.0534Z" fill="#0069AA"></path><path d="M27.6329 32.297H28.438L28.037 31.0633L27.6312 32.297H27.6329ZM27.5775 32.3361L28.0175 30.9932H28.0419H28.0566L28.4934 32.3361H27.5775ZM28.5178 33.6887C28.746 33.6806 28.9692 33.6724 29.1893 33.6724C29.4093 33.6724 29.6032 33.6806 29.8037 33.6887V33.5926H29.7971C29.6407 33.5926 29.5315 33.5323 29.4745 33.3954C29.4142 33.2552 29.3587 33.0857 29.305 32.9244L28.4575 30.5173C28.4428 30.4814 28.4298 30.4391 28.4184 30.4065C28.4151 30.4016 28.4151 30.4016 28.4119 30.4016H28.4037C28.394 30.4016 28.3891 30.4048 28.3777 30.4081C28.2896 30.4651 28.1039 30.5564 27.9686 30.5923C27.9409 30.7666 27.8578 30.9964 27.7975 31.1676L27.0608 33.2797C26.9908 33.4801 26.8294 33.5926 26.642 33.5926H26.6355V33.6887C26.7936 33.6806 26.9533 33.6724 27.113 33.6724C27.2906 33.6724 27.4732 33.6806 27.6475 33.6887V33.5926H27.6182C27.4683 33.5926 27.258 33.5747 27.2531 33.4117C27.2531 33.3204 27.3102 33.2015 27.3542 33.0466L27.5057 32.5545H28.5781L28.7623 33.102C28.8128 33.2503 28.8552 33.3726 28.8552 33.4394C28.8486 33.5812 28.6547 33.591 28.5504 33.5926H28.5194V33.6887H28.5178ZM29.8216 33.7295C29.6146 33.7213 29.4076 33.7099 29.1876 33.7099C28.9676 33.7099 28.7329 33.7197 28.4983 33.7295H28.4771V33.7099V33.5502H28.5471C28.6547 33.5502 28.8112 33.5258 28.8128 33.4378C28.8128 33.3856 28.772 33.2585 28.7215 33.1118L28.5471 32.5919H27.5318L27.3884 33.0564C27.3411 33.2129 27.2874 33.3351 27.2874 33.4101C27.2874 33.5225 27.4617 33.5502 27.6133 33.5502H27.6834V33.7295H27.6622C27.478 33.7197 27.2906 33.7099 27.1065 33.7099C26.9419 33.7099 26.7756 33.7197 26.611 33.7295H26.5898V33.7099V33.5502H26.6371C26.8082 33.5502 26.9516 33.4524 27.0185 33.265L27.7551 31.1529C27.8154 30.9818 27.8985 30.752 27.9376 30.5694C28.081 30.5206 28.2668 30.4277 28.3548 30.3722C28.3679 30.3674 28.3809 30.3608 28.3988 30.3608C28.4102 30.3608 28.4347 30.3641 28.4494 30.3885C28.4624 30.426 28.4771 30.4668 28.4901 30.5043L29.3376 32.9114C29.3913 33.0727 29.4468 33.2422 29.5071 33.3791C29.5608 33.5013 29.6456 33.5502 29.7923 33.5502H29.8395V33.7295H29.8183H29.8216Z" fill="#0069AA"></path><path d="M30.0271 30.7295C29.6816 30.7295 29.6686 30.8126 29.5985 31.1483H29.46C29.4779 31.0196 29.5023 30.8908 29.5154 30.7572C29.5333 30.6284 29.5431 30.4997 29.5431 30.3661H29.6539C29.6914 30.5046 29.8055 30.4997 29.9293 30.4997H32.3038C32.4277 30.4997 32.5418 30.4948 32.5516 30.3579L32.6624 30.3758C32.6444 30.4997 32.6265 30.6252 32.6119 30.749C32.6021 30.8729 32.6021 30.9984 32.6021 31.1222L32.4635 31.1728C32.4554 31.0033 32.4326 30.7311 32.1229 30.7311H31.3684V33.1806C31.3684 33.5359 31.5297 33.5766 31.7497 33.5766H31.8377V33.7151C31.6585 33.7151 31.3358 33.6972 31.0881 33.6972C30.8126 33.6972 30.4899 33.7151 30.3107 33.7151V33.5766H30.3987C30.6529 33.5766 30.7817 33.5538 30.7817 33.1904V30.7327H30.0271V30.7295Z" fill="#0069AA"></path><path d="M31.841 33.7315C31.6601 33.7315 31.3374 33.7135 31.0913 33.7135C30.8159 33.7135 30.4932 33.7315 30.314 33.7315H30.2944V33.5538H30.402C30.6562 33.5473 30.7572 33.5441 30.7638 33.1871V30.7491H30.0304V30.7083H30.8045V33.1871C30.8045 33.5571 30.6546 33.5929 30.402 33.5929H30.3335V33.6907C30.516 33.6891 30.8241 33.6712 31.0913 33.6712C31.3325 33.6712 31.6389 33.6875 31.8215 33.6907V33.5929H31.753C31.5314 33.5929 31.3521 33.5392 31.3521 33.1774V30.7083H32.1262C32.4359 30.7083 32.475 30.9723 32.4848 31.1435L32.5858 31.1076C32.5858 30.9886 32.5858 30.868 32.5956 30.7458C32.6086 30.6285 32.6249 30.5095 32.6428 30.3922L32.5728 30.3808C32.5516 30.5144 32.4212 30.5225 32.3071 30.5209H29.9082C29.8006 30.5209 29.6816 30.516 29.6409 30.3873H29.5659C29.5659 30.5144 29.5561 30.6383 29.5382 30.7605C29.5252 30.8876 29.504 31.0098 29.4861 31.1304H29.5855C29.6458 30.8094 29.6865 30.7051 30.0304 30.71V30.7507C29.6898 30.7572 29.6963 30.8143 29.6213 31.1549L29.6181 31.1712H29.4404L29.4437 31.1484C29.4632 31.0196 29.4861 30.8892 29.4991 30.7572C29.5187 30.6285 29.5268 30.5014 29.5268 30.3693V30.3498H29.6719L29.6767 30.3645C29.7093 30.4802 29.7924 30.4818 29.9098 30.4834C29.9179 30.4834 29.9245 30.4834 29.9326 30.4834H32.3071C32.4342 30.4818 32.5271 30.4785 32.5353 30.3596V30.3384L32.5581 30.3433L32.6885 30.3645L32.6852 30.384C32.6657 30.5079 32.6494 30.6317 32.6347 30.7556C32.6249 30.8778 32.6249 31.0033 32.6249 31.1272V31.1418L32.6119 31.1467L32.4489 31.207V31.1793C32.4359 31.0066 32.4179 30.7556 32.1278 30.7556H31.3928V33.1839C31.3977 33.531 31.5346 33.5555 31.7546 33.5587H31.8622V33.7364H31.8426L31.841 33.7315Z" fill="#0069AA"></path><path d="M32.833 33.5732H32.8966C33.0628 33.5732 33.2372 33.5504 33.2372 33.3108V30.9004C33.2372 30.6609 33.0628 30.638 32.8966 30.638H32.833V30.4995C33.0123 30.4995 33.2877 30.5174 33.5142 30.5174C33.7408 30.5174 34.0211 30.4995 34.2378 30.4995V30.638H34.1726C34.0064 30.638 33.832 30.6609 33.832 30.9004V33.3108C33.832 33.5504 34.008 33.5732 34.1726 33.5732H34.2378V33.7117C34.0162 33.7117 33.7408 33.6938 33.511 33.6938C33.2812 33.6938 33.0139 33.7117 32.8346 33.7117V33.5732H32.833Z" fill="#0069AA"></path><path d="M34.2163 33.692V33.5942H34.1723C34.0077 33.5942 33.8122 33.5649 33.8122 33.3123V30.9019C33.8122 30.6477 34.0077 30.6183 34.1723 30.6183H34.2163V30.5206C34.0045 30.5206 33.7372 30.5385 33.5139 30.5385C33.2907 30.5385 33.0315 30.5222 32.8539 30.5206V30.6183H32.8979C33.0625 30.6183 33.2581 30.6477 33.2581 30.9019V33.3123C33.2581 33.5665 33.0609 33.5942 32.8979 33.5942H32.8539V33.692C33.0315 33.6904 33.2923 33.6741 33.5107 33.6741C33.7291 33.6741 33.9996 33.6904 34.218 33.692M34.2392 33.7327C34.0175 33.7327 33.7421 33.7132 33.5123 33.7132C33.2825 33.7132 33.0152 33.7327 32.836 33.7327H32.8164V33.5551H32.9012C33.0674 33.5518 33.2206 33.5372 33.2206 33.3123V30.9019C33.2206 30.677 33.0674 30.6623 32.9012 30.6591H32.8164V30.4814H32.836C33.0169 30.4814 33.2923 30.4994 33.5172 30.4994C33.7421 30.4994 34.0224 30.4814 34.2408 30.4814H34.2603V30.6591H34.1772C34.0094 30.6623 33.8578 30.677 33.8562 30.9019V33.3123C33.8578 33.5372 34.0094 33.5518 34.1772 33.5551H34.2603V33.7327H34.2408H34.2392Z" fill="#0069AA"></path><path d="M36.1433 33.5782C37.0363 33.5782 37.1912 32.791 37.1912 32.1195C37.1912 31.4481 36.8277 30.6332 36.0634 30.6332C35.2583 30.6332 35.0187 31.3519 35.0187 31.968C35.0187 32.791 35.3968 33.5798 36.1416 33.5798M36.0715 30.4312C37.0526 30.4312 37.8349 31.039 37.8349 32.0201C37.8349 33.0778 37.0755 33.7819 36.096 33.7819C35.1165 33.7819 34.375 33.1186 34.375 32.1293C34.375 31.1401 35.1165 30.4312 36.0732 30.4312" fill="#0069AA"></path><path d="M34.9989 31.968C34.9989 31.3487 35.2417 30.6137 36.0647 30.6137C36.8454 30.6137 37.2104 31.4449 37.2121 32.1212C37.2104 32.7926 37.0523 33.5994 36.143 33.5994V33.5603C37.0181 33.5603 37.1697 32.7926 37.1713 32.1212C37.1713 31.4546 36.8111 30.6561 36.0647 30.6544C35.2743 30.6544 35.0413 31.3552 35.0396 31.968C35.0396 32.7878 35.4145 33.557 36.143 33.5586V33.5977C35.3786 33.5977 35.0005 32.7959 34.9989 31.968ZM34.3535 32.1294C34.3551 31.1613 35.1048 30.4133 36.0712 30.4116V30.4507C35.1244 30.4507 34.3926 31.1825 34.3926 32.1294C34.3926 33.1072 35.1293 33.7607 36.0957 33.7607C37.067 33.7607 37.8151 33.0664 37.8167 32.0185C37.8167 31.0505 37.0458 30.4524 36.0729 30.4507V30.4116C37.0605 30.4116 37.8542 31.0277 37.8558 32.0185C37.8558 33.0876 37.0866 33.7998 36.0973 33.8014C35.113 33.7998 34.3584 33.13 34.3551 32.1294" fill="#0069AA"></path><path d="M40.9378 32.8057L40.9476 32.796V31.0701C40.9476 30.692 40.6836 30.6366 40.5467 30.6366H40.4473V30.498C40.6624 30.498 40.8742 30.516 41.091 30.516C41.28 30.516 41.4691 30.498 41.6581 30.498V30.6366H41.5881C41.3958 30.6366 41.179 30.6741 41.179 31.2216V33.3158C41.179 33.4772 41.1839 33.6369 41.2067 33.7803H41.0323L38.6627 31.1385V33.0355C38.6627 33.4364 38.7409 33.5733 39.0946 33.5733H39.1728V33.7119C38.9756 33.7119 38.7768 33.6939 38.5796 33.6939C38.3726 33.6939 38.1608 33.7119 37.9521 33.7119V33.5733H38.0173C38.3351 33.5733 38.4313 33.3582 38.4313 32.9899V31.0522C38.4313 30.7947 38.2211 30.6382 38.0124 30.6382H37.9521V30.4997C38.1282 30.4997 38.3074 30.5176 38.4818 30.5176C38.6203 30.5176 38.7523 30.4997 38.8909 30.4997L40.9394 32.8057H40.9378Z" fill="#0069AA"></path><path d="M41.0304 33.7608H41.1803C41.1608 33.6223 41.1575 33.4691 41.1575 33.3175V31.2233C41.1575 30.6708 41.3889 30.6203 41.5861 30.6187H41.6367V30.5209C41.4541 30.5209 41.2732 30.5388 41.0891 30.5388C40.8788 30.5388 40.6735 30.5225 40.4649 30.5209V30.6187H40.5464C40.6882 30.6187 40.9668 30.6822 40.9668 31.0717L40.962 32.8107L40.9538 32.8204L40.9391 32.8351L38.8906 30.5193C38.7553 30.5193 38.62 30.5372 38.4815 30.5372C38.312 30.5372 38.1393 30.5209 37.9714 30.5193V30.617H38.0122C38.2289 30.617 38.4505 30.7816 38.4505 31.0506V32.9883C38.4505 33.3566 38.3479 33.5913 38.017 33.5929H37.9714V33.6891C38.1719 33.6891 38.3756 33.6712 38.5793 33.6712C38.7716 33.6712 38.9623 33.6874 39.153 33.6891V33.5929H39.0927C38.7309 33.5929 38.6412 33.4332 38.6412 33.0339V31.0864L41.032 33.7592L41.0304 33.7608ZM41.2048 33.8015L41.0141 33.795L38.6787 31.1923V33.0372C38.6836 33.4381 38.7455 33.5506 39.091 33.5538H39.1904V33.7331H39.1709C38.9721 33.7331 38.7749 33.7152 38.5777 33.7152C38.3707 33.7152 38.1605 33.7331 37.9502 33.7331H37.9307V33.5538H38.0154C38.3185 33.5538 38.4065 33.3582 38.4098 32.9899V31.0522C38.4098 30.8077 38.2093 30.6578 38.0105 30.6578H37.9307V30.4801H37.9502C38.1262 30.4801 38.3055 30.4981 38.4799 30.4981C38.6168 30.4981 38.7488 30.4801 38.9052 30.4867L40.9277 32.7634V31.0701C40.9277 30.7034 40.6816 30.6594 40.5464 30.6562H40.4258V30.4785H40.447C40.6637 30.4785 40.8756 30.4964 41.0907 30.4964C41.2798 30.4964 41.4672 30.4785 41.6578 30.4785H41.6774V30.6562H41.5878C41.3987 30.661 41.2032 30.679 41.1983 31.22V33.3142C41.1983 33.474 41.2015 33.6353 41.2243 33.7755L41.2276 33.7983H41.2048V33.8015Z" fill="#0069AA"></path><path d="M43.0696 31.0147H43.0598L42.6312 32.3168H43.4933L43.0696 31.0147ZM42.3965 33.0534C42.3509 33.2099 42.2955 33.3305 42.2955 33.412C42.2955 33.5505 42.4894 33.5733 42.641 33.5733H42.6915V33.7119C42.5073 33.7021 42.3183 33.6939 42.1341 33.6939C41.9679 33.6939 41.8033 33.7021 41.6387 33.7119V33.5733H41.6647C41.8456 33.5733 41.9972 33.4674 42.0657 33.2735L42.8039 31.1613C42.8642 30.9902 42.9473 30.7604 42.9734 30.5893C43.1201 30.5388 43.3043 30.4475 43.3923 30.3921C43.4053 30.3872 43.4151 30.3823 43.4281 30.3823C43.4411 30.3823 43.4509 30.3823 43.4591 30.397C43.4737 30.4328 43.4868 30.4752 43.5015 30.5127L44.3473 32.9198C44.4027 33.0812 44.4581 33.2506 44.5184 33.3892C44.5738 33.5179 44.67 33.5717 44.8215 33.5717H44.8492V33.7102C44.6423 33.7004 44.4353 33.6923 44.2136 33.6923C43.992 33.6923 43.7573 33.7004 43.5226 33.7102V33.5717H43.5732C43.6791 33.5717 43.8584 33.5538 43.8584 33.4381C43.8584 33.3778 43.8176 33.2539 43.7655 33.1056L43.5862 32.5727H42.5415L42.3932 33.0518L42.3965 33.0534Z" fill="#0069AA"></path><path d="M42.6583 32.2969H43.4633L43.0624 31.0649L42.6583 32.2969ZM42.6028 32.3361L43.0445 30.9932H43.0689H43.0836L43.5187 32.3361H42.6045H42.6028ZM43.5432 33.6904C43.7714 33.6822 43.9946 33.6724 44.2146 33.6724C44.4347 33.6724 44.6286 33.6806 44.829 33.6887V33.5926H44.8209C44.6644 33.5926 44.5569 33.5323 44.4998 33.3954C44.4395 33.2552 44.3841 33.0857 44.3287 32.9244L43.4813 30.5173C43.4682 30.4814 43.4536 30.4391 43.4422 30.4065C43.4389 30.4016 43.4389 30.4016 43.4356 30.4016H43.4259C43.4161 30.4016 43.4112 30.4048 43.3998 30.4081C43.3101 30.4651 43.126 30.5564 42.9891 30.5923C42.9614 30.7666 42.8766 30.9964 42.818 31.1676L42.0813 33.2797C42.0113 33.4801 41.8515 33.5926 41.6625 33.5926H41.656V33.6887C41.8141 33.6806 41.9721 33.6724 42.1335 33.6724C42.3111 33.6724 42.4936 33.6806 42.6713 33.6887V33.5926H42.6403C42.4904 33.5926 42.2802 33.5747 42.2753 33.4117C42.2753 33.3204 42.3339 33.2031 42.3779 33.0466L42.5295 32.5544H43.6019L43.786 33.102C43.8365 33.2503 43.8789 33.3726 43.8789 33.4394C43.8724 33.5812 43.6785 33.591 43.5742 33.5926H43.5432V33.6904ZM44.847 33.7311C44.64 33.723 44.433 33.7132 44.213 33.7132C43.993 33.7132 43.7583 33.723 43.5236 33.7311H43.5041V33.7116V33.5535H43.5742C43.6817 33.5535 43.8398 33.529 43.8398 33.4394C43.8398 33.3872 43.7991 33.2617 43.7485 33.1134L43.5742 32.5936H42.5588L42.4171 33.058C42.3714 33.2161 42.316 33.3367 42.316 33.4117C42.316 33.5241 42.4888 33.5535 42.6403 33.5535H42.7104V33.7327H42.6908C42.5067 33.723 42.3176 33.7132 42.1351 33.7132C41.9705 33.7132 41.8043 33.723 41.6397 33.7311H41.6201V33.7116V33.5535H41.6657C41.8369 33.5535 41.9819 33.4541 42.0487 33.2683L42.7854 31.1561C42.844 30.985 42.9272 30.7552 42.9679 30.5727C43.1129 30.5222 43.2971 30.4309 43.3867 30.3755C43.3981 30.3706 43.4112 30.3657 43.4307 30.3657C43.4438 30.3657 43.4666 30.3674 43.4813 30.3934C43.4943 30.4293 43.509 30.4717 43.5236 30.5091L44.3695 32.9162C44.4249 33.0776 44.4803 33.2471 44.539 33.384C44.5927 33.5062 44.6775 33.5535 44.8242 33.5551H44.8714V33.7344H44.8502L44.847 33.7311Z" fill="#0069AA"></path><path d="M46.0098 33.2604C46.0098 33.4446 46.1385 33.5 46.2852 33.5179C46.4742 33.5326 46.6812 33.5326 46.8931 33.5082C47.0854 33.4853 47.2516 33.3745 47.3347 33.2588C47.4081 33.1578 47.4488 33.029 47.4781 32.928H47.6118C47.5613 33.1904 47.4961 33.4495 47.4407 33.7102C47.0365 33.7102 46.6307 33.6923 46.2265 33.6923C45.8223 33.6923 45.4165 33.7102 45.0107 33.7102V33.5717H45.0743C45.2405 33.5717 45.4198 33.5489 45.4198 33.2637V30.899C45.4198 30.6594 45.2405 30.6366 45.0743 30.6366H45.0107V30.498C45.2536 30.498 45.4931 30.516 45.7376 30.516C45.9821 30.516 46.2021 30.498 46.4368 30.498V30.6366H46.321C46.1467 30.6366 46.0098 30.6415 46.0098 30.8859V33.2604Z" fill="#0069AA"></path><path d="M47.4228 33.6923C47.4765 33.443 47.5368 33.1985 47.5857 32.9508H47.4912C47.4635 33.0502 47.4211 33.1741 47.3494 33.2751C47.2631 33.3941 47.0936 33.5065 46.8931 33.531C46.7725 33.5424 46.6535 33.5505 46.5395 33.5505C46.4498 33.5505 46.3634 33.5457 46.2803 33.5408C46.1304 33.5245 45.9853 33.4593 45.9853 33.2637V30.8892C45.9853 30.6333 46.1467 30.6203 46.3178 30.6203H46.4123V30.5225C46.1858 30.5225 45.9625 30.5404 45.7327 30.5404C45.5029 30.5404 45.2618 30.5225 45.0254 30.5225V30.6203H45.0694C45.234 30.6203 45.4345 30.6496 45.4345 30.9022V33.2686C45.4345 33.5668 45.234 33.5978 45.0694 33.5978H45.0254V33.6956C45.4231 33.6956 45.8207 33.6777 46.2217 33.6777C46.6226 33.6777 47.0219 33.6956 47.4195 33.6956M47.4358 33.7363C47.03 33.7363 46.6242 33.7184 46.2217 33.7184C45.8191 33.7184 45.4117 33.7363 45.0059 33.7363H44.9863V33.5587H45.0694C45.2357 33.5554 45.3938 33.544 45.3954 33.2702V30.9039C45.3938 30.6806 45.2373 30.6643 45.0694 30.661H44.9863V30.4834H45.0059C45.2503 30.4834 45.4899 30.5013 45.7344 30.5013C45.9788 30.5013 46.1972 30.4834 46.4335 30.4834H46.4531V30.661H46.3178C46.1402 30.6659 46.0294 30.6578 46.0245 30.8892V33.2637C46.0245 33.4348 46.1385 33.4821 46.282 33.5017C46.3634 33.5082 46.4482 33.5098 46.5378 33.5098C46.6503 33.5098 46.7676 33.5049 46.8866 33.4919C47.074 33.4707 47.2353 33.3615 47.3152 33.2523C47.3853 33.1545 47.426 33.0274 47.4537 32.928L47.4586 32.9133H47.6314L47.6265 32.9378C47.5743 33.2018 47.5108 33.4576 47.4554 33.72L47.4505 33.7363H47.4358Z" fill="#0069AA"></path><path d="M47.4758 30.8548H47.5328C47.5948 30.8548 47.6241 30.8075 47.6241 30.7309C47.6241 30.6543 47.5785 30.6266 47.5296 30.6266H47.4758V30.8548ZM47.3128 31.1107V31.0862C47.3731 31.0781 47.3829 31.0797 47.3829 31.0422V30.6837C47.3829 30.6332 47.378 30.6152 47.3144 30.6185V30.594H47.5622C47.6469 30.594 47.7251 30.6348 47.7251 30.7228C47.7251 30.7945 47.6779 30.8483 47.6111 30.8695L47.6909 30.9803C47.7284 31.0308 47.7708 31.0781 47.7985 31.0944V31.1107H47.704C47.6583 31.1107 47.6192 31.0145 47.5296 30.8874H47.4758V31.0487C47.4758 31.0813 47.4872 31.0781 47.5475 31.0879V31.1123H47.3128V31.1107ZM47.554 31.2476C47.7708 31.2476 47.937 31.0634 47.937 30.8548C47.937 30.6462 47.7724 30.4588 47.554 30.4588C47.3356 30.4588 47.1694 30.6446 47.1694 30.8548C47.1694 31.065 47.3356 31.2476 47.554 31.2476ZM47.554 30.3691C47.8311 30.3691 48.038 30.5826 48.038 30.8548C48.038 31.127 47.8311 31.3372 47.554 31.3372C47.277 31.3372 47.0684 31.1253 47.0684 30.8548C47.0684 30.5843 47.277 30.3691 47.554 30.3691Z" fill="#0069AA"></path></svg> 