<?xml version="1.0" encoding="UTF-8"?> <svg xmlns="http://www.w3.org/2000/svg" width="368" height="192" viewBox="0 0 368 192" fill="none"><rect width="367.5" height="192" fill="#E9E9E6"></rect><g clip-path="url(#clip0_107_2971)"><path d="M306.172 59C306.257 59.3617 306.26 59.7695 306.437 60.0787C311.101 68.2574 315.801 76.4131 320.455 84.5951C325.295 93.1093 330.096 101.643 334.911 110.171C337.998 115.64 341.072 121.118 344.173 126.581C344.491 127.14 345.018 127.58 345.326 128.143C345.641 128.722 346.165 129.613 345.949 129.955C345.621 130.471 344.73 130.895 344.078 130.895C335.353 130.882 326.629 130.787 317.905 130.711C317.249 130.705 316.594 130.698 315.942 130.705C309.577 130.767 311.599 131.543 308.358 126.252C306.729 123.591 305.012 122.44 301.879 122.519C293.318 122.73 284.755 122.647 276.191 122.671C275.647 122.671 275.06 122.427 274.572 122.572C273.687 122.835 272.569 123.078 272.071 123.729C270.39 125.926 268.902 128.278 267.414 130.616C266.988 131.283 266.805 132.106 266.483 132.928H263.645C263.603 130.8 262.272 130.642 260.466 130.665C251.903 130.77 243.336 130.714 234.769 130.77C233.182 130.78 232.52 130.165 232.124 128.6C230.108 120.641 227.949 112.719 225.851 104.784C225.202 102.331 224.609 99.8641 223.937 97.4174C223.806 96.9372 223.482 96.2302 223.134 96.1579C222.751 96.0756 222.072 96.4933 221.813 96.8879C220.224 99.2853 218.752 101.758 217.176 104.162C213.145 110.325 209.078 116.462 205.04 122.618C204.535 123.387 204.142 124.229 203.654 125.009C202.916 126.186 201.517 126.341 200.819 125.334C197.928 121.154 195.038 116.975 192.163 112.785C188.919 108.056 185.704 103.304 182.43 98.5914C182.089 98.1014 181.456 97.812 180.958 97.4305C180.575 97.9764 179.991 98.4697 179.834 99.0748C178.14 105.57 176.508 112.081 174.875 118.593C173.994 122.111 173.224 125.663 172.227 129.149C172.024 129.859 171.133 130.682 170.405 130.876C168.37 131.415 167.301 130.011 167.914 128.008C169.625 122.421 171.27 116.817 172.935 111.216C174.059 107.434 175.183 103.656 176.288 99.8674C177.632 95.2568 178.946 90.6396 180.29 86.029C182.207 79.4419 184.144 72.8614 186.051 66.2711C186.441 64.9228 186.664 63.5218 187.106 62.1932C187.349 61.4599 187.89 60.8285 188.296 60.1477C188.902 60.6344 189.663 61.0126 190.089 61.6243C192.022 64.3801 193.848 67.2083 195.736 69.9971C201.409 78.3764 207.098 86.7426 212.765 95.1252C213.312 95.9342 213.774 96.7991 214.246 97.6542C215.069 99.1505 215.895 99.3379 216.966 97.9863C218.208 96.4177 219.26 94.6911 220.355 93.0074C225.792 84.6543 231.223 76.3013 236.637 67.9351C238.049 65.7548 239.363 63.512 240.799 61.3481C241.094 60.9008 241.74 60.3944 242.182 60.4273C242.582 60.4568 243.109 61.1376 243.264 61.6309C244.515 65.7153 245.676 69.8261 246.898 73.9171C248.52 79.3367 250.205 84.7398 251.808 90.166C252.846 93.6782 253.748 97.2332 254.78 100.745C256.422 106.333 258.162 111.894 259.778 117.488C260.614 120.385 261.272 123.335 262.013 126.262C262.079 126.525 262.075 126.834 262.216 127.048C262.587 127.607 262.964 128.475 263.449 128.557C263.957 128.643 264.786 128.084 265.133 127.574C266.175 126.058 267.047 124.423 267.994 122.838C271.219 117.442 274.457 112.048 277.676 106.648C281.864 99.624 286.026 92.5831 290.221 85.562C294.61 78.2186 299.07 70.9212 303.383 63.535C304.166 62.1932 304.386 60.5226 304.868 59.0033C305.303 59.0033 305.739 59.0033 306.178 59.0033L306.172 59ZM289.32 118.931V119.093C293.626 119.093 297.929 119.132 302.236 119.053C302.898 119.04 303.881 118.652 304.11 118.155C304.34 117.659 303.907 116.764 303.593 116.133C303.232 115.413 302.613 114.824 302.226 114.114C300.699 111.315 299.234 108.484 297.716 105.678C295.757 102.061 293.787 98.4467 291.778 94.8556C291.394 94.1683 290.805 93.596 290.313 92.9712C289.69 93.5138 288.887 93.9479 288.478 94.6188C284.106 101.811 279.786 109.036 275.496 116.274C275.175 116.817 274.854 117.724 275.093 118.142C275.355 118.599 276.263 118.885 276.899 118.895C281.041 118.958 285.181 118.928 289.323 118.928L289.32 118.931Z" fill="black"></path><path d="M65.5256 58.9999C65.7223 59.3156 65.8796 59.8714 66.1188 59.9076C74.9218 61.2559 81.4633 66.3138 87.2118 72.6838C87.5395 73.0455 87.8443 73.4336 88.1229 73.8381C88.8013 74.8247 89.1355 75.9132 88.0114 76.7189C86.9791 77.4588 85.9598 77.0576 85.1175 76.1533C83.3773 74.282 81.7681 72.2563 79.841 70.5988C75.8427 67.1655 71.2118 65.0181 66.0566 63.6599C62.7334 62.7851 59.4888 63.0745 56.2082 62.8903C54.1664 62.7785 53.9075 63.3869 53.9534 65.4259C54.0845 71.0395 54.0812 76.6597 54.0451 82.2766C53.9862 91.0539 53.7993 99.8312 53.7797 108.612C53.7666 113.679 53.9829 118.747 54.0812 123.815C54.0943 124.575 54.0976 125.351 53.9698 126.094C53.6551 127.962 54.2549 128.985 56.1656 129.017C59.2922 129.07 62.4417 129.406 65.4994 128.126C68.5703 126.84 71.9722 126.216 74.8497 124.621C79.8902 121.825 84.059 117.951 87.0315 112.864C89.1716 109.207 90.4891 105.303 91.3183 101.193C91.6296 99.647 90.9184 98.838 89.1126 98.7952C86.3334 98.7328 83.5542 98.6769 80.7783 98.6999C74.7808 98.7492 68.7833 98.8479 62.7858 98.9367C61.0914 98.9597 59.9345 98.0191 60.0263 96.6544C60.1049 95.4705 61.1766 94.8128 62.6711 94.8391C69.3732 94.9607 76.0787 95.0956 82.7808 95.1087C85.773 95.1153 88.7619 94.7338 91.7541 94.724C95.1396 94.7108 95.1036 95.7763 94.8905 98.2362C94.553 102.163 93.6517 105.882 92.2392 109.434C89.3387 116.731 84.5899 122.654 77.8648 126.863C75.1184 128.583 72.3064 130.136 69.0848 130.895C67.61 131.244 66.2794 132.181 64.8636 132.809C64.5326 132.957 64.1295 132.983 63.7592 132.983C60.1574 132.997 56.5589 133.02 52.9603 132.957C52.5114 132.951 52.0689 132.47 51.6232 132.211C51.1382 131.928 50.6728 131.444 50.1615 131.392C40.8211 130.468 34.5188 124.765 28.8818 117.984C24.6507 112.893 22.822 106.823 21.6848 100.459C21.5143 99.5023 21.0227 98.5749 21.0031 97.6245C20.9736 96.2203 21.1604 94.7963 21.3832 93.4019C21.7241 91.2644 22.0912 89.1268 22.5926 87.0221C23.8085 81.9083 25.7585 77.1168 29.4914 73.2889C32.2181 70.4936 34.9678 67.6917 37.96 65.1989C40.7949 62.8377 44.1443 61.3151 47.8346 60.5949C49.0112 60.3647 50.5613 60.6081 51.1218 58.9967C55.9231 58.9999 60.7244 58.9999 65.5256 58.9999Z" fill="black"></path><path d="M134.618 130.705C125.455 130.705 116.291 130.698 107.128 130.714C106.315 130.714 105.502 130.826 104.693 130.912C102.959 131.096 102.143 130.313 102.202 128.58C102.33 124.825 102.507 121.069 102.513 117.313C102.546 100.68 102.533 84.0427 102.513 67.4089C102.513 66.1099 102.408 64.8011 102.241 63.5087C101.969 61.404 102.445 60.8877 104.591 60.8975C121.279 60.9666 137.971 61.0192 154.659 61.062C156.131 61.0652 157.602 60.9633 159.074 60.9205C160.43 60.8811 161.479 61.3481 161.65 62.8312C161.784 64.0085 160.64 64.903 159.038 64.8997C151.785 64.8866 144.532 64.8471 137.276 64.8175C136.676 64.8175 136.073 64.7879 135.477 64.8307C133.294 64.9885 133.025 65.5673 133.104 67.7575C133.222 71.1218 133.176 74.5057 132.96 77.8667C132.799 80.3693 132.917 80.9021 135.395 80.9612C143.024 81.1355 150.661 81.1816 158.294 81.2375C159.48 81.2474 160.67 80.9514 161.859 80.9317C162.951 80.9152 163.747 81.4118 163.826 82.6516C163.908 83.9144 163.229 84.6543 162.079 84.8155C161.01 84.9668 159.906 84.8747 158.815 84.8747C150.906 84.8747 142.995 84.8648 135.087 84.8747C133.271 84.8747 132.888 85.2956 132.901 86.9103C132.996 97.7068 133.068 108.503 133.16 119.3C133.173 120.882 133.265 122.46 133.288 124.042C133.32 126.186 134.169 127.081 136.375 127.097C140.249 127.13 144.119 127.117 147.993 127.117C151.483 127.117 154.974 127.136 158.467 127.097C159.768 127.081 161.073 126.952 162.367 126.817C164.022 126.646 165.477 127.528 165.628 128.853C165.756 129.984 164.593 130.774 162.754 130.774C153.371 130.777 143.991 130.774 134.608 130.774C134.608 130.751 134.608 130.728 134.608 130.708L134.618 130.705Z" fill="black"></path></g><defs><clipPath id="clip0_107_2971"><rect width="325" height="74" fill="white" transform="translate(21 59)"></rect></clipPath></defs></svg> 