<?xml version="1.0" encoding="UTF-8"?> <svg xmlns="http://www.w3.org/2000/svg" width="83" height="40" viewBox="0 0 83 40" fill="none"><g clip-path="url(#clip0_1010_2097)"><path d="M38.8307 20.6675V30.2116H35.752V6.60791H43.7567C45.7065 6.60791 47.5538 7.32628 48.9905 8.6604C50.4273 9.8919 51.1457 11.7391 51.1457 13.689C51.1457 15.6389 50.4273 17.3835 48.9905 18.7176C47.5538 20.0517 45.8092 20.7701 43.7567 20.7701L38.8307 20.6675ZM38.8307 9.4814V17.6914H43.9619C45.0908 17.6914 46.2197 17.2809 46.938 16.4599C48.58 14.9205 48.58 12.3549 47.0407 10.8155L46.938 10.7129C46.117 9.8919 45.0908 9.37878 43.9619 9.4814H38.8307Z" fill="#5F6368"></path><path d="M58.2266 13.5859C60.4844 13.5859 62.229 14.2017 63.5631 15.4332C64.8972 16.6647 65.513 18.3067 65.513 20.3592V30.2111H62.6395V27.9534H62.5369C61.3054 29.8006 59.5607 30.7243 57.5082 30.7243C55.7636 30.7243 54.2242 30.2111 52.9928 29.1849C51.8639 28.1586 51.1455 26.7219 51.1455 25.1825C51.1455 23.5405 51.7613 22.2064 52.9928 21.1802C54.2242 20.1539 55.9689 19.7434 58.0214 19.7434C59.8686 19.7434 61.3054 20.0513 62.4342 20.7697V20.0513C62.4342 19.025 62.0237 17.9988 61.2027 17.383C60.3817 16.6647 59.3555 16.2542 58.2266 16.2542C56.482 16.2542 55.1479 16.9726 54.2242 18.4093L51.556 16.7673C53.198 14.6122 55.3531 13.5859 58.2266 13.5859ZM54.3269 25.2852C54.3269 26.1061 54.7374 26.8245 55.3531 27.235C56.0715 27.7481 56.8925 28.056 57.7135 28.056C58.945 28.056 60.1765 27.5429 61.1001 26.6193C62.1264 25.6956 62.6395 24.5668 62.6395 23.3353C61.7159 22.6169 60.3817 22.2064 58.6371 22.2064C57.4056 22.2064 56.3794 22.5143 55.5584 23.13C54.7374 23.6432 54.3269 24.3615 54.3269 25.2852Z" fill="#5F6368"></path><path d="M82.1375 14.0991L71.9776 37.3949H68.8989L72.696 29.2876L66.0254 14.2017H69.3094L74.1327 25.7983H74.2354L78.9561 14.2017H82.1375V14.0991Z" fill="#5F6368"></path><path d="M26.6183 18.6146C26.6183 17.691 26.5157 16.7674 26.413 15.8438H13.585V21.0776H20.8713C20.5634 22.7196 19.6398 24.259 18.2031 25.1826V28.5692H22.6159C25.1816 26.2088 26.6183 22.7196 26.6183 18.6146Z" fill="#4285F4"></path><path d="M13.5843 31.8534C17.2788 31.8534 20.3576 30.6219 22.6153 28.5694L18.2024 25.1828C16.9709 26.0038 15.4316 26.5169 13.5843 26.5169C10.0951 26.5169 7.01634 24.1565 5.9901 20.8726H1.47461V24.3618C3.83498 28.9799 8.45309 31.8534 13.5843 31.8534Z" fill="#34A853"></path><path d="M5.99058 20.8725C5.37484 19.2305 5.37484 17.3833 5.99058 15.6387V12.1494H1.4751C-0.474772 15.9465 -0.474772 20.462 1.4751 24.3617L5.99058 20.8725Z" fill="#FBBC04"></path><path d="M13.5842 10.0969C15.5341 10.0969 17.3813 10.8153 18.8181 12.1494L22.7178 8.24964C20.2548 5.9919 16.9709 4.65778 13.6869 4.7604C8.55563 4.7604 3.83489 7.6339 1.57715 12.252L6.09264 15.7412C7.01626 12.4573 10.095 10.0969 13.5842 10.0969Z" fill="#EA4335"></path></g><defs><clipPath id="clip0_1010_2097"><rect width="82.0997" height="39.1" fill="white" transform="translate(0.0380859 0.450195)"></rect></clipPath></defs></svg> 