<?xml version="1.0" encoding="UTF-8"?> <svg xmlns="http://www.w3.org/2000/svg" width="41" height="40" viewBox="0 0 41 40" fill="none"><g clip-path="url(#clip0_1010_2105)"><path d="M0.145516 20C0.145516 13.4398 0.147079 6.87969 0.137704 0.319531C0.137704 0.0523438 0.190047 0 0.457235 0C13.5775 0.00859375 26.6971 0.00859375 39.8174 0C40.0846 0 40.1377 0.0523438 40.1369 0.319531C40.1283 13.4398 40.1283 26.5602 40.1369 39.6797C40.1369 39.9469 40.0846 40 39.8174 39.9992C26.6971 39.9906 13.5775 39.9906 0.457235 39.9992C0.190047 39.9992 0.136922 39.9469 0.137704 39.6797C0.147079 33.1195 0.145516 26.5594 0.145516 19.9992V20ZM20.6307 18.2617C20.6322 19.0531 21.051 19.5039 21.8205 19.4953C25.594 19.4531 29.3666 19.4617 33.14 19.4813C33.8557 19.4852 34.2775 19.0477 34.2908 18.3344C34.3018 17.7617 34.294 17.1891 34.2932 16.6172C34.2908 15.5508 33.9291 15.1945 32.8572 15.2023C31.2049 15.2133 29.5525 15.2266 27.9002 15.2336C27.7775 15.2336 27.5932 15.3016 27.5432 15.1648C27.4494 14.907 27.4619 14.6164 27.5268 14.3586C27.5799 14.1477 27.8197 14.2547 27.9729 14.2547C29.6643 14.2578 31.3557 14.275 33.0471 14.2789C33.8557 14.2813 34.2791 13.857 34.2877 13.0578C34.2924 12.6281 34.2893 12.1992 34.2877 11.7695C34.2854 10.7844 33.9002 10.4 32.915 10.4063C31.2494 10.4172 29.5846 10.4328 27.919 10.4438C27.7932 10.4438 27.6096 10.5078 27.5525 10.3906C27.4307 10.1414 27.4775 9.85391 27.515 9.58984C27.5471 9.36328 27.7705 9.46406 27.9057 9.46406C29.6229 9.46484 31.3408 9.47969 33.058 9.48125C33.865 9.48203 34.2775 9.06016 34.283 8.24922C34.2869 7.75469 34.2846 7.26016 34.283 6.76563C34.2799 5.83281 33.8854 5.42969 32.9494 5.44453C29.2807 5.5 25.6111 5.49297 21.9424 5.45625C21.0135 5.44688 20.6041 5.85781 20.6205 6.78906C20.6541 8.675 20.7033 10.5609 20.7455 12.4477M27.4018 34.5156C29.2494 34.5156 31.0963 34.5141 32.944 34.5156C33.8822 34.5172 34.308 34.1234 34.2822 33.2023C34.2221 31.0039 34.215 28.8063 34.2822 26.6078C34.3088 25.7258 33.8807 25.3109 33.0049 25.3141C31.2096 25.3211 29.4143 25.3211 27.619 25.3516C27.2385 25.3578 27.1236 25.2547 27.1479 24.8773C27.1807 24.3633 27.1557 24.3617 27.6861 24.3633C27.8166 24.3633 27.9463 24.3641 28.0768 24.3648C29.7549 24.3727 31.433 24.3844 33.1119 24.3852C33.7611 24.3852 34.0557 24.1391 34.208 23.518C34.3744 22.8391 34.3229 22.1469 34.2557 21.4703C34.1861 20.7688 33.7713 20.4602 33.065 20.4703C29.3182 20.5258 25.5721 20.5516 21.8252 20.4719C21.0471 20.4555 20.5963 20.9156 20.6299 21.6867C20.7291 23.9242 20.7143 26.1602 20.6299 28.3977C20.5908 29.4242 20.9994 29.8148 22.0307 29.8086C23.8127 29.7984 25.5955 29.7852 27.3776 29.7766C27.4908 29.7766 27.6588 29.7203 27.7065 29.8242C27.8299 30.0898 27.7885 30.3883 27.7369 30.6633C27.7025 30.8461 27.4932 30.7617 27.3643 30.7609C25.5299 30.7547 23.6955 30.7375 21.8611 30.7313C21.0588 30.7289 20.6338 31.157 20.6236 31.9586C20.6182 32.3617 20.6213 32.7648 20.6229 33.1688C20.626 34.1219 21.0268 34.5164 21.9783 34.5156C23.7869 34.5133 25.5947 34.5156 27.4033 34.5156H27.4018ZM6.08145 27.493C6.11817 29.4461 5.9502 31.3945 5.9627 33.3469C5.96739 34.118 6.34786 34.5039 7.11348 34.507C8.45411 34.5117 9.79395 34.5148 11.1346 34.5055C11.8369 34.5008 12.2463 34.0789 12.244 33.3766C12.2408 32.4789 12.2213 31.5813 12.215 30.6828C12.2096 29.8867 12.0994 30.0305 12.8846 29.9938C13.2127 29.9781 13.2729 30.1047 13.2627 30.3977C13.2315 31.3469 13.2221 32.2969 13.2104 33.2469C13.2002 34.0969 13.5955 34.5055 14.4338 34.5078C15.7354 34.5117 17.0361 34.5117 18.3377 34.5078C19.1736 34.5055 19.576 34.0992 19.5775 33.2555C19.5807 31.8367 19.5807 30.4188 19.5775 29C19.576 28.1672 19.1627 27.7586 18.3213 27.7625C17.4494 27.7664 16.5775 27.7875 15.7057 27.7906C14.9721 27.7938 15.0916 27.9023 15.0588 27.1563C15.0447 26.8344 15.1658 26.7656 15.4611 26.7734C16.4236 26.7969 17.3869 26.8 18.3494 26.8023C19.1619 26.8047 19.5736 26.393 19.576 25.5781C19.5799 24.2898 19.5799 23.0016 19.576 21.7133C19.5736 20.8836 19.1572 20.4734 18.3205 20.4719C17.0322 20.4695 15.744 20.4695 14.4557 20.4719C13.5979 20.4734 13.1979 20.8836 13.2088 21.7531C13.219 22.5992 13.2385 23.4445 13.251 24.2906C13.2619 24.9977 13.2596 24.9805 12.5572 24.9953C12.2471 25.0016 12.1924 24.8883 12.2002 24.6102C12.2275 23.6477 12.2354 22.6844 12.2432 21.7219C12.2494 20.8703 11.858 20.4742 11.0127 20.4727C9.76348 20.4703 8.51427 20.4711 7.26505 20.4727C6.30099 20.4727 5.96114 20.8188 5.96114 21.7977C5.96114 23.6977 6.12677 25.5945 6.08067 27.4953L6.08145 27.493ZM19.5791 16.0984C19.5791 15.3953 19.5815 14.693 19.5791 13.9898C19.5752 13.1492 19.169 12.7391 18.3338 12.7422C17.4486 12.7453 16.5635 12.7625 15.6791 12.7648C14.9775 12.7672 15.0908 12.8664 15.0619 12.1406C15.0494 11.8336 15.1447 11.7367 15.4557 11.7461C16.4315 11.775 17.408 11.7836 18.3838 11.7844C19.1486 11.7844 19.5752 11.3609 19.5791 10.6039C19.5854 9.28906 19.5846 7.975 19.5791 6.66016C19.576 5.86875 19.1643 5.46563 18.3682 5.46406C17.0533 5.46094 15.7393 5.46094 14.4244 5.46406C13.5994 5.46563 13.2033 5.86406 13.2119 6.68984C13.2205 7.54844 13.2502 8.40781 13.2525 9.26641C13.2541 10.0484 13.4205 9.9375 12.558 9.96719C12.2408 9.97813 12.1986 9.84453 12.2057 9.57578C12.2322 8.57422 12.2486 7.57188 12.251 6.56953C12.2525 5.88828 11.8338 5.46875 11.1572 5.46563C9.77755 5.45859 8.39786 5.45859 7.01817 5.46563C6.38692 5.46875 5.99942 5.85313 5.96583 6.47969C5.95958 6.59688 5.9627 6.71406 5.96427 6.83125C5.98145 8.91328 6.14005 10.993 6.08458 13.0766C6.05724 14.1266 6.04473 15.1742 5.96036 16.225C5.90411 16.9234 5.94395 17.6469 5.9627 18.3594C5.98223 19.0961 6.36192 19.4875 7.1088 19.4922C8.43614 19.5008 9.76427 19.5016 11.0916 19.4922C11.8385 19.4867 12.2494 19.0641 12.2463 18.3219C12.2424 17.4367 12.2283 16.5516 12.215 15.6672C12.2049 14.9758 12.2025 14.993 12.8838 14.9766C13.2049 14.9688 13.2752 15.0813 13.265 15.3789C13.233 16.3414 13.2236 17.3047 13.2119 18.268C13.2025 19.0688 13.6135 19.4891 14.4229 19.493C15.7377 19.4992 17.0518 19.5 18.3666 19.493C19.1557 19.4891 19.5736 19.0688 19.5799 18.2867C19.5854 17.5578 19.5815 16.8289 19.5815 16.1L19.5791 16.0984Z" fill="#2F2F5B"></path><path d="M20.7466 12.4459C20.7044 10.5599 20.6552 8.67399 20.6216 6.78727C20.6052 5.85602 21.0145 5.44508 21.9434 5.45446C25.613 5.49118 29.2817 5.49821 32.9505 5.44274C33.8864 5.42868 34.2809 5.83102 34.2841 6.76383C34.2856 7.25836 34.288 7.75289 34.2841 8.24743C34.2778 9.05836 33.8653 9.48024 33.0591 9.47946C31.3419 9.47789 29.6239 9.46305 27.9067 9.46227C27.7708 9.46227 27.5481 9.36149 27.5161 9.58805C27.4786 9.85211 27.4309 10.1396 27.5536 10.3888C27.6106 10.506 27.7942 10.4427 27.92 10.442C29.5856 10.4318 31.2505 10.4154 32.9161 10.4045C33.9013 10.3982 34.2864 10.7834 34.2888 11.7677C34.2895 12.1974 34.2927 12.6263 34.2888 13.056C34.2809 13.8552 33.8575 14.2795 33.0481 14.2771C31.3567 14.2724 29.6653 14.256 27.9739 14.2529C27.8208 14.2529 27.5809 14.1459 27.5278 14.3568C27.4622 14.6146 27.4505 14.906 27.5442 15.1631C27.5942 15.2998 27.7786 15.2326 27.9013 15.2318C29.5536 15.224 31.2059 15.2115 32.8583 15.2006C33.9302 15.1935 34.2919 15.5498 34.2942 16.6154C34.2958 17.1881 34.3028 17.7607 34.2919 18.3326C34.2786 19.0451 33.8567 19.4826 33.1411 19.4795C29.3677 19.4599 25.595 19.4513 21.8216 19.4935C21.052 19.5021 20.6333 19.0521 20.6317 18.2599" fill="#21A2E8"></path><path d="M27.4023 34.5143C25.5937 34.5143 23.7859 34.5127 21.9773 34.5143C21.0258 34.5159 20.625 34.1213 20.6219 33.1674C20.6211 32.7643 20.618 32.3604 20.6226 31.9573C20.6328 31.1557 21.0578 30.7268 21.8601 30.7299C23.6945 30.7362 25.5289 30.7534 27.3633 30.7596C27.4922 30.7596 27.7016 30.8448 27.7359 30.662C27.7875 30.387 27.8289 30.0885 27.7055 29.8229C27.657 29.719 27.489 29.7752 27.3765 29.7752C25.5945 29.7838 23.8117 29.7971 22.0297 29.8073C20.9984 29.8135 20.5898 29.4229 20.6289 28.3963C20.714 26.1588 20.7289 23.9229 20.6289 21.6854C20.5945 20.9143 21.0461 20.4541 21.8242 20.4706C25.5711 20.5502 29.3172 20.5252 33.064 20.469C33.7703 20.4588 34.1851 20.7674 34.2547 21.469C34.3219 22.1456 34.3734 22.8377 34.207 23.5166C34.0555 24.1377 33.7601 24.3838 33.1109 24.3838C31.4328 24.3823 29.7547 24.3706 28.0758 24.3635C27.9453 24.3635 27.8156 24.3627 27.6851 24.362C27.1547 24.3604 27.1797 24.362 27.1469 24.876C27.1226 25.2534 27.2375 25.3565 27.618 25.3502C29.4133 25.3198 31.2086 25.3198 33.0039 25.3127C33.8805 25.3096 34.3086 25.7245 34.2812 26.6065C34.214 28.8049 34.2211 31.0026 34.2812 33.201C34.3062 34.1221 33.8805 34.5159 32.943 34.5143C31.0953 34.512 29.2484 34.5143 27.4008 34.5143H27.4023Z" fill="#3ADE9D"></path><path d="M6.08145 27.4915C6.12676 25.5907 5.96191 23.6938 5.96191 21.7938C5.96191 20.8149 6.30176 20.4688 7.26582 20.4688C8.51504 20.4688 9.76426 20.4665 11.0135 20.4688C11.8588 20.4704 12.251 20.8665 12.2439 21.7181C12.2369 22.6813 12.2291 23.6438 12.201 24.6063C12.1932 24.8845 12.2479 24.9978 12.558 24.9915C13.2604 24.9767 13.2627 24.9946 13.2518 24.2868C13.2393 23.4407 13.2197 22.5954 13.2096 21.7493C13.1986 20.8798 13.5986 20.4696 14.4564 20.4681C15.7447 20.4657 17.033 20.4657 18.3213 20.4681C19.158 20.4696 19.5744 20.8798 19.5768 21.7095C19.5807 22.9978 19.5807 24.286 19.5768 25.5743C19.5744 26.3892 19.1627 26.8009 18.3502 26.7985C17.3869 26.7962 16.4244 26.7938 15.4619 26.7696C15.1666 26.7626 15.0455 26.8306 15.0596 27.1524C15.0924 27.8993 14.9729 27.7899 15.7064 27.7868C16.5783 27.7837 17.4502 27.7626 18.3221 27.7587C19.1627 27.7548 19.576 28.1634 19.5783 28.9962C19.5814 30.4149 19.5814 31.8329 19.5783 33.2517C19.5768 34.0962 19.1744 34.5024 18.3385 34.504C17.0369 34.5071 15.7361 34.5079 14.4346 34.504C13.5963 34.5017 13.201 34.0931 13.2111 33.2431C13.2229 32.2931 13.2322 31.3431 13.2635 30.3938C13.2729 30.1009 13.2127 29.9751 12.8854 29.9899C12.1002 30.0267 12.2104 29.8829 12.2158 30.679C12.2221 31.5767 12.2424 32.4743 12.2447 33.3728C12.2471 34.0751 11.8377 34.497 11.1354 34.5017C9.79473 34.511 8.45488 34.5087 7.11426 34.5032C6.34863 34.5001 5.96816 34.1149 5.96348 33.3431C5.95098 31.3907 6.11894 29.4423 6.08223 27.4892L6.08145 27.4915Z" fill="#21A2E8"></path><path d="M19.5787 16.0967C19.5787 16.8256 19.5834 17.5545 19.5772 18.2834C19.5709 19.0654 19.153 19.4857 18.3639 19.4896C17.049 19.4967 15.735 19.4959 14.4201 19.4896C13.6108 19.4857 13.1998 19.0654 13.2092 18.2646C13.2209 17.3014 13.2303 16.3381 13.2623 15.3756C13.2725 15.0771 13.2022 14.9654 12.8811 14.9732C12.2006 14.9896 12.2022 14.9717 12.2123 15.6639C12.2256 16.549 12.2397 17.4342 12.2436 18.3186C12.2467 19.06 11.8358 19.4834 11.0889 19.4889C9.76154 19.4982 8.43342 19.4975 7.10608 19.4889C6.3592 19.4842 5.97951 19.0928 5.95998 18.3561C5.94123 17.6443 5.90139 16.9201 5.95764 16.2217C6.0428 15.1709 6.05451 14.1225 6.08186 13.0732C6.13654 10.9896 5.97873 8.90996 5.96155 6.82793C5.96076 6.71074 5.95686 6.59355 5.96311 6.47637C5.9967 5.8498 6.38498 5.46621 7.01545 5.4623C8.39514 5.45527 9.77483 5.45527 11.1545 5.4623C11.8311 5.46543 12.2498 5.88496 12.2483 6.56621C12.2459 7.56856 12.2295 8.5709 12.203 9.57246C12.1959 9.84043 12.2381 9.9748 12.5553 9.96387C13.4178 9.93418 13.2514 10.0451 13.2498 9.26309C13.2475 8.40449 13.2186 7.54512 13.2092 6.68652C13.2006 5.86074 13.5967 5.4623 14.4217 5.46074C15.7365 5.4584 17.0506 5.45762 18.3655 5.46074C19.1615 5.4623 19.5733 5.86543 19.5764 6.65684C19.5819 7.97168 19.5819 9.28574 19.5764 10.6006C19.5725 11.3584 19.1467 11.7818 18.3811 11.7811C17.4053 11.7803 16.4287 11.7717 15.453 11.7428C15.142 11.7334 15.0475 11.8303 15.0592 12.1373C15.0881 12.8631 14.9748 12.7639 15.6764 12.7615C16.5615 12.7592 17.4467 12.742 18.3311 12.7389C19.1662 12.7365 19.5725 13.1467 19.5764 13.9865C19.5795 14.6896 19.5764 15.392 19.5764 16.0951L19.5787 16.0967Z" fill="#3ADE9D"></path></g><defs><clipPath id="clip0_1010_2105"><rect width="40" height="40" fill="white" transform="translate(0.137695)"></rect></clipPath></defs></svg> 