<?xml version="1.0" encoding="UTF-8"?> <svg xmlns="http://www.w3.org/2000/svg" width="41" height="40" viewBox="0 0 41 40" fill="none"><path d="M40.0381 0.0356445H0.0380859V20.0233H40.0381V0.0356445Z" fill="#FEFEFE"></path><path d="M40.0381 19.9761H0.0380859V39.9637H40.0381V19.9761Z" fill="#1A1F71"></path><path d="M11.8188 27.4945C11.6081 27.3913 11.256 27.2837 10.7919 27.2837C9.82097 27.2837 9.2021 27.8308 9.2021 28.5573C9.2021 29.1807 9.69316 29.5955 10.4219 29.8735C11.0027 30.1 11.2515 30.3422 11.2515 30.7323C11.2515 31.1471 10.9264 31.4297 10.3457 31.4297C9.94206 31.4297 9.54742 31.3086 9.28507 31.1583L9.11914 31.7413C9.35682 31.8916 9.84115 32.0171 10.3008 32.0171C11.3973 32.0171 12.0027 31.4409 12.0027 30.6718C12.0027 30.0417 11.626 29.6381 10.8435 29.313C10.2246 29.0618 9.94878 28.869 9.94878 28.4788C9.94878 28.1851 10.1909 27.8667 10.7717 27.8667C11.1731 27.8667 11.4803 27.9855 11.6395 28.0707L11.8188 27.4945ZM15.4558 31.3691H13.5342V29.8421H15.245V29.2659H13.5342V27.9317H15.3459V27.3487H12.7942V31.9521H15.4558V31.3691ZM19.2385 31.266C19.0278 31.3624 18.6892 31.4297 18.3573 31.4297C17.3505 31.4297 16.7249 30.7973 16.7249 29.6672C16.7249 28.4721 17.4268 27.8712 18.3708 27.8712C18.734 27.8712 19.021 27.9496 19.2251 28.0393L19.3843 27.4698C19.2498 27.4025 18.9067 27.2882 18.3439 27.2882C16.9918 27.2882 15.9469 28.1425 15.9469 29.7054C15.9469 31.1696 16.8572 32.0171 18.2183 32.0171C18.7475 32.0171 19.1623 31.9207 19.3664 31.8243L19.2385 31.266ZM23.5325 27.3487H22.7903V30.1359C22.7903 31.0507 22.4091 31.4476 21.797 31.4476C21.2342 31.4476 20.8328 31.0552 20.8328 30.1359V27.3487H20.0928V30.0933C20.0928 31.4655 20.77 32.0171 21.7701 32.0171C22.8105 32.0171 23.5325 31.4409 23.5325 30.0753V27.3487ZM26.6313 29.7524C27.1224 29.5775 27.5058 29.1762 27.5058 28.5865C27.5058 28.2142 27.3713 27.8958 27.1157 27.6851C26.8107 27.4272 26.3645 27.3196 25.7255 27.3196C25.286 27.3196 24.851 27.3622 24.5393 27.416V31.9521H25.2725V30.0058H25.7187C26.2367 30.0058 26.4721 30.239 26.6067 30.8512C26.7277 31.4162 26.8421 31.8198 26.9116 31.9521H27.6785C27.5821 31.7772 27.461 31.3019 27.3152 30.7009C27.1986 30.2143 26.9946 29.8915 26.6313 29.7637V29.7524ZM25.2725 29.4811V27.9026C25.3622 27.8779 25.5416 27.86 25.7905 27.86C26.3197 27.86 26.7659 28.064 26.7659 28.6582C26.7659 29.1515 26.3824 29.4811 25.7703 29.4811H25.2725ZM30.9948 31.3691H29.0754V29.8421H30.784V29.2659H29.0754V27.9317H30.8872V27.3487H28.3355V31.9521H30.9948V31.3691Z" fill="#FEFEFE" stroke="#FEFEFE" stroke-width="0.287993"></path><path fill-rule="evenodd" clip-rule="evenodd" d="M19.0956 5.6458L17.1785 14.6082H14.8622L16.7794 5.6458H19.0956ZM28.8563 11.4331L30.0806 8.06522L30.7824 11.4331H28.8563ZM31.4416 14.6082H33.5852L31.7174 5.6458H29.7375C29.289 5.6458 28.9191 5.90815 28.7464 6.30503L25.2686 14.6172H27.7015L28.1836 13.2763H31.1591L31.4416 14.6082ZM25.392 11.682C25.3987 9.31641 22.1205 9.18636 22.1406 8.128C22.1474 7.80511 22.4568 7.46653 23.125 7.37908C23.4546 7.33648 24.3672 7.30284 25.4121 7.77596L25.818 5.87227C25.2619 5.66598 24.5399 5.47314 23.6475 5.47314C21.3581 5.47314 19.7414 6.6907 19.728 8.43744C19.7145 9.72899 20.8827 10.4443 21.7639 10.877C22.6631 11.3165 22.9658 11.599 22.9658 11.9914C22.9591 12.5879 22.2438 12.857 21.5778 12.8704C20.4096 12.8906 19.7347 12.5543 19.1921 12.3076L18.7727 14.2718C19.3154 14.5207 20.3132 14.7405 21.3514 14.7472C23.791 14.7539 25.3785 13.5431 25.392 11.682ZM15.7838 5.6458L12.0235 14.6082H9.5682L7.72056 7.45308C7.61069 7.01359 7.51427 6.8499 7.1712 6.66379C6.61287 6.36109 5.6913 6.07856 4.88184 5.89918L4.93565 5.63907H8.88206C9.38433 5.63907 9.83727 5.97541 9.95387 6.55392L10.9293 11.7426L13.342 5.63907H15.7838V5.6458Z" fill="#1A1F71"></path></svg> 