<svg width="264" height="64" viewBox="0 0 264 64" fill="none" xmlns="http://www.w3.org/2000/svg">
<g clip-path="url(#clip0_711_1086)">
<path d="M34.5186 57.9406C34.5186 57.5665 34.5186 57.2407 34.5186 56.9139C34.5186 51.7791 34.5241 46.6443 34.5165 41.5095C34.511 38.1465 32.7987 36.078 29.4686 35.3824C28.5864 35.1985 27.702 35.0211 26.8176 34.847C22.6139 34.0191 20.5202 31.4894 20.5192 27.2265C20.517 21.6735 20.5289 16.1194 20.5039 10.5664C20.5007 9.9471 20.68 9.62994 21.2688 9.37943C24.0709 8.18712 27.1598 7.3625 29.6164 7.24854C29.6164 7.57322 29.6164 7.89253 29.6164 8.21292C29.6164 13.3757 29.6077 18.5384 29.6196 23.7012C29.6272 26.9846 31.3189 29.037 34.5621 29.738C35.553 29.9519 36.5482 30.1508 37.5456 30.3325C40.1108 30.8002 42.0578 32.1162 43.0389 34.5373C43.4268 35.4953 43.6061 36.5951 43.6159 37.6326C43.6702 43.2974 43.6322 48.9623 43.655 54.6271C43.6572 55.2195 43.4659 55.5087 42.9173 55.7463C40.2662 56.8946 37.5261 57.6815 34.5176 57.9396L34.5186 57.9406Z" fill="black"/>
<path d="M15.5738 13.1026V52.2286C10.5162 47.9506 7.42621 42.7524 6.52659 36.4167C5.19998 27.0717 8.35082 19.3147 15.5738 13.1016V13.1026Z" fill="black"/>
<path d="M48.5635 51.9845V13.1672C48.6363 13.136 48.708 13.1048 48.7808 13.0747C54.0503 17.6053 57.2174 23.2948 57.8096 30.2423C58.5571 39.0132 55.3693 46.2584 48.8188 52.077C48.7341 52.0469 48.6482 52.0157 48.5635 51.9856V51.9845Z" fill="black"/>
<path d="M43.6425 27.9137C42.1399 27.632 40.7383 27.374 39.3389 27.1063C38.536 26.9536 37.7287 26.816 36.9367 26.6203C35.4623 26.2559 34.5399 25.2001 34.5334 23.7659C34.5095 18.4096 34.5214 13.0533 34.5225 7.69707C34.5225 7.56268 34.5573 7.42829 34.5833 7.23584C37.0812 7.40356 39.4345 8.0196 41.7184 8.90658C43.6501 9.65809 43.6425 9.67852 43.6425 11.7374C43.6425 16.7872 43.6425 21.836 43.6425 26.8859V27.9126V27.9137Z" fill="black"/>
<path d="M29.5618 57.9388C26.4826 57.6646 23.661 56.8389 20.9611 55.5918C20.7622 55.5004 20.5395 55.194 20.5395 54.9875C20.5276 49.1571 20.5428 43.3267 20.5547 37.4953C20.5547 37.4705 20.5786 37.4458 20.646 37.3125C21.0078 37.3663 21.4109 37.4125 21.8085 37.4877C23.5795 37.8243 25.3559 38.1414 27.1182 38.5188C28.7262 38.8628 29.603 39.9261 29.6085 41.5528C29.627 46.8263 29.6161 52.1008 29.615 57.3743C29.615 57.5367 29.5857 57.699 29.5618 57.9388Z" fill="black"/>
<path d="M32.1803 3.36429C48.4712 3.38579 61.7156 16.4507 61.7689 32.5496C61.821 48.5152 48.4875 61.8016 32.1988 61.7564C15.5841 61.7102 2.63635 48.7302 2.61136 32.5389C2.58637 16.4109 15.9264 3.34171 32.1803 3.36429ZM32.1456 4.23514C16.2816 4.29857 3.38277 17.0678 3.47839 32.6109C3.57508 48.2765 16.3284 60.8566 32.1488 60.892C47.9139 60.9275 60.9344 48.14 60.8681 32.5743C60.8019 17.0603 48.3028 4.38565 32.1456 4.23514Z" fill="black"/>
</g>
<path d="M87.176 42.192C85.928 42.192 84.84 41.992 83.912 41.592C82.984 41.192 82.264 40.632 81.752 39.912C81.256 39.192 81.008 38.344 81.008 37.368V36.768C81.008 36.688 81.032 36.624 81.08 36.576C81.144 36.512 81.216 36.48 81.296 36.48H83.432C83.512 36.48 83.576 36.512 83.624 36.576C83.688 36.624 83.72 36.688 83.72 36.768V37.224C83.72 37.96 84.048 38.576 84.704 39.072C85.36 39.552 86.256 39.792 87.392 39.792C88.368 39.792 89.104 39.584 89.6 39.168C90.096 38.752 90.344 38.216 90.344 37.56C90.344 37.112 90.208 36.736 89.936 36.432C89.664 36.112 89.272 35.824 88.76 35.568C88.264 35.312 87.512 34.992 86.504 34.608C85.368 34.192 84.448 33.8 83.744 33.432C83.04 33.064 82.448 32.568 81.968 31.944C81.504 31.304 81.272 30.512 81.272 29.568C81.272 28.16 81.784 27.048 82.808 26.232C83.832 25.416 85.2 25.008 86.912 25.008C88.112 25.008 89.168 25.216 90.08 25.632C91.008 26.048 91.728 26.632 92.24 27.384C92.752 28.12 93.008 28.976 93.008 29.952V30.36C93.008 30.44 92.976 30.512 92.912 30.576C92.864 30.624 92.8 30.648 92.72 30.648H90.56C90.48 30.648 90.408 30.624 90.344 30.576C90.296 30.512 90.272 30.44 90.272 30.36V30.096C90.272 29.344 89.96 28.712 89.336 28.2C88.728 27.672 87.88 27.408 86.792 27.408C85.912 27.408 85.224 27.592 84.728 27.96C84.248 28.328 84.008 28.848 84.008 29.52C84.008 30 84.136 30.392 84.392 30.696C84.648 31 85.032 31.28 85.544 31.536C86.056 31.776 86.848 32.088 87.92 32.472C89.056 32.904 89.96 33.296 90.632 33.648C91.32 34 91.904 34.496 92.384 35.136C92.88 35.76 93.128 36.544 93.128 37.488C93.128 38.928 92.592 40.072 91.52 40.92C90.464 41.768 89.016 42.192 87.176 42.192ZM106.012 34.488C106.076 34.888 106.108 35.336 106.108 35.832L106.084 36.576C106.084 36.768 105.988 36.864 105.796 36.864H98.2837C98.2037 36.864 98.1637 36.904 98.1637 36.984C98.2117 37.512 98.2837 37.872 98.3797 38.064C98.7637 39.216 99.6997 39.8 101.188 39.816C102.276 39.816 103.14 39.368 103.78 38.472C103.844 38.376 103.924 38.328 104.02 38.328C104.084 38.328 104.14 38.352 104.188 38.4L105.676 39.624C105.82 39.736 105.844 39.864 105.748 40.008C105.252 40.712 104.588 41.256 103.756 41.64C102.94 42.024 102.028 42.216 101.02 42.216C99.7717 42.216 98.7077 41.936 97.8277 41.376C96.9637 40.816 96.3317 40.032 95.9317 39.024C95.5637 38.16 95.3797 36.96 95.3797 35.424C95.3797 34.496 95.4757 33.744 95.6677 33.168C95.9877 32.048 96.5877 31.168 97.4677 30.528C98.3637 29.872 99.4357 29.544 100.684 29.544C103.836 29.544 105.612 31.192 106.012 34.488ZM100.684 31.944C100.092 31.944 99.5957 32.096 99.1957 32.4C98.8117 32.688 98.5397 33.096 98.3797 33.624C98.2837 33.896 98.2197 34.248 98.1877 34.68C98.1557 34.76 98.1877 34.8 98.2837 34.8H103.156C103.236 34.8 103.276 34.76 103.276 34.68C103.244 34.28 103.196 33.976 103.132 33.768C102.988 33.192 102.7 32.744 102.268 32.424C101.852 32.104 101.324 31.944 100.684 31.944ZM114.532 29.544C115.828 29.544 116.86 29.928 117.628 30.696C118.412 31.464 118.804 32.512 118.804 33.84V41.712C118.804 41.792 118.772 41.864 118.708 41.928C118.66 41.976 118.596 42 118.516 42H116.308C116.228 42 116.156 41.976 116.092 41.928C116.044 41.864 116.02 41.792 116.02 41.712V34.416C116.02 33.68 115.812 33.088 115.396 32.64C114.98 32.176 114.428 31.944 113.74 31.944C113.052 31.944 112.492 32.168 112.06 32.616C111.644 33.064 111.436 33.656 111.436 34.392V41.712C111.436 41.792 111.404 41.864 111.34 41.928C111.292 41.976 111.228 42 111.148 42H108.94C108.86 42 108.788 41.976 108.724 41.928C108.676 41.864 108.652 41.792 108.652 41.712V30.024C108.652 29.944 108.676 29.88 108.724 29.832C108.788 29.768 108.86 29.736 108.94 29.736H111.148C111.228 29.736 111.292 29.768 111.34 29.832C111.404 29.88 111.436 29.944 111.436 30.024V30.792C111.436 30.84 111.452 30.872 111.484 30.888C111.516 30.904 111.54 30.888 111.556 30.84C112.212 29.976 113.204 29.544 114.532 29.544ZM128.211 31.704C128.211 31.784 128.179 31.856 128.115 31.92C128.067 31.968 128.003 31.992 127.923 31.992H125.475C125.395 31.992 125.355 32.032 125.355 32.112V37.896C125.355 38.504 125.483 38.944 125.739 39.216C126.011 39.488 126.435 39.624 127.011 39.624H127.731C127.811 39.624 127.875 39.656 127.923 39.72C127.987 39.768 128.019 39.832 128.019 39.912V41.712C128.019 41.888 127.923 41.992 127.731 42.024L126.483 42.048C125.219 42.048 124.275 41.832 123.651 41.4C123.027 40.968 122.707 40.152 122.691 38.952V32.112C122.691 32.032 122.651 31.992 122.571 31.992H121.203C121.123 31.992 121.051 31.968 120.987 31.92C120.939 31.856 120.915 31.784 120.915 31.704V30.024C120.915 29.944 120.939 29.88 120.987 29.832C121.051 29.768 121.123 29.736 121.203 29.736H122.571C122.651 29.736 122.691 29.696 122.691 29.616V26.808C122.691 26.728 122.715 26.664 122.763 26.616C122.827 26.552 122.899 26.52 122.979 26.52H125.067C125.147 26.52 125.211 26.552 125.259 26.616C125.323 26.664 125.355 26.728 125.355 26.808V29.616C125.355 29.696 125.395 29.736 125.475 29.736H127.923C128.003 29.736 128.067 29.768 128.115 29.832C128.179 29.88 128.211 29.944 128.211 30.024V31.704ZM132.267 28.056C131.771 28.056 131.363 27.896 131.043 27.576C130.723 27.256 130.563 26.848 130.563 26.352C130.563 25.856 130.723 25.448 131.043 25.128C131.363 24.808 131.771 24.648 132.267 24.648C132.763 24.648 133.171 24.808 133.491 25.128C133.811 25.448 133.971 25.856 133.971 26.352C133.971 26.848 133.811 27.256 133.491 27.576C133.171 27.896 132.763 28.056 132.267 28.056ZM131.115 42C131.035 42 130.963 41.976 130.899 41.928C130.851 41.864 130.827 41.792 130.827 41.712V30C130.827 29.92 130.851 29.856 130.899 29.808C130.963 29.744 131.035 29.712 131.115 29.712H133.323C133.403 29.712 133.467 29.744 133.515 29.808C133.579 29.856 133.611 29.92 133.611 30V41.712C133.611 41.792 133.579 41.864 133.515 41.928C133.467 41.976 133.403 42 133.323 42H131.115ZM147.889 25.392C147.969 25.264 148.081 25.2 148.225 25.2H150.433C150.513 25.2 150.577 25.232 150.625 25.296C150.689 25.344 150.721 25.408 150.721 25.488V41.712C150.721 41.792 150.689 41.864 150.625 41.928C150.577 41.976 150.513 42 150.433 42H148.225C148.145 42 148.073 41.976 148.009 41.928C147.961 41.864 147.937 41.792 147.937 41.712V30.264C147.937 30.216 147.913 30.184 147.865 30.168C147.833 30.152 147.809 30.168 147.793 30.216L144.793 34.824C144.713 34.952 144.601 35.016 144.457 35.016H143.353C143.209 35.016 143.097 34.952 143.017 34.824L139.993 30.24C139.977 30.192 139.945 30.176 139.897 30.192C139.865 30.208 139.849 30.24 139.849 30.288V41.712C139.849 41.792 139.817 41.864 139.753 41.928C139.705 41.976 139.641 42 139.561 42H137.353C137.273 42 137.201 41.976 137.137 41.928C137.089 41.864 137.065 41.792 137.065 41.712V25.488C137.065 25.408 137.089 25.344 137.137 25.296C137.201 25.232 137.273 25.2 137.353 25.2H139.561C139.705 25.2 139.817 25.264 139.897 25.392L143.809 31.32C143.841 31.352 143.873 31.368 143.905 31.368C143.937 31.368 143.961 31.352 143.977 31.32L147.889 25.392ZM164.301 34.488C164.365 34.888 164.397 35.336 164.397 35.832L164.373 36.576C164.373 36.768 164.277 36.864 164.085 36.864H156.573C156.493 36.864 156.453 36.904 156.453 36.984C156.501 37.512 156.573 37.872 156.669 38.064C157.053 39.216 157.989 39.8 159.477 39.816C160.565 39.816 161.429 39.368 162.069 38.472C162.133 38.376 162.213 38.328 162.309 38.328C162.373 38.328 162.429 38.352 162.477 38.4L163.965 39.624C164.109 39.736 164.133 39.864 164.037 40.008C163.541 40.712 162.877 41.256 162.045 41.64C161.229 42.024 160.317 42.216 159.309 42.216C158.061 42.216 156.997 41.936 156.117 41.376C155.253 40.816 154.621 40.032 154.221 39.024C153.853 38.16 153.669 36.96 153.669 35.424C153.669 34.496 153.765 33.744 153.957 33.168C154.277 32.048 154.877 31.168 155.757 30.528C156.653 29.872 157.725 29.544 158.973 29.544C162.125 29.544 163.901 31.192 164.301 34.488ZM158.973 31.944C158.381 31.944 157.885 32.096 157.485 32.4C157.101 32.688 156.829 33.096 156.669 33.624C156.573 33.896 156.509 34.248 156.477 34.68C156.445 34.76 156.477 34.8 156.573 34.8H161.445C161.525 34.8 161.565 34.76 161.565 34.68C161.533 34.28 161.485 33.976 161.421 33.768C161.277 33.192 160.989 32.744 160.557 32.424C160.141 32.104 159.613 31.944 158.973 31.944ZM172.821 29.544C174.117 29.544 175.149 29.928 175.917 30.696C176.701 31.464 177.093 32.512 177.093 33.84V41.712C177.093 41.792 177.061 41.864 176.997 41.928C176.949 41.976 176.885 42 176.805 42H174.597C174.517 42 174.445 41.976 174.381 41.928C174.333 41.864 174.309 41.792 174.309 41.712V34.416C174.309 33.68 174.101 33.088 173.685 32.64C173.269 32.176 172.717 31.944 172.029 31.944C171.341 31.944 170.781 32.168 170.349 32.616C169.933 33.064 169.725 33.656 169.725 34.392V41.712C169.725 41.792 169.693 41.864 169.629 41.928C169.581 41.976 169.517 42 169.437 42H167.229C167.149 42 167.077 41.976 167.013 41.928C166.965 41.864 166.941 41.792 166.941 41.712V30.024C166.941 29.944 166.965 29.88 167.013 29.832C167.077 29.768 167.149 29.736 167.229 29.736H169.437C169.517 29.736 169.581 29.768 169.629 29.832C169.693 29.88 169.725 29.944 169.725 30.024V30.792C169.725 30.84 169.741 30.872 169.773 30.888C169.805 30.904 169.829 30.888 169.845 30.84C170.501 29.976 171.493 29.544 172.821 29.544ZM186.5 31.704C186.5 31.784 186.468 31.856 186.404 31.92C186.356 31.968 186.292 31.992 186.212 31.992H183.764C183.684 31.992 183.644 32.032 183.644 32.112V37.896C183.644 38.504 183.772 38.944 184.028 39.216C184.3 39.488 184.724 39.624 185.3 39.624H186.02C186.1 39.624 186.164 39.656 186.212 39.72C186.276 39.768 186.308 39.832 186.308 39.912V41.712C186.308 41.888 186.212 41.992 186.02 42.024L184.772 42.048C183.508 42.048 182.564 41.832 181.94 41.4C181.316 40.968 180.996 40.152 180.98 38.952V32.112C180.98 32.032 180.94 31.992 180.86 31.992H179.492C179.412 31.992 179.34 31.968 179.276 31.92C179.228 31.856 179.204 31.784 179.204 31.704V30.024C179.204 29.944 179.228 29.88 179.276 29.832C179.34 29.768 179.412 29.736 179.492 29.736H180.86C180.94 29.736 180.98 29.696 180.98 29.616V26.808C180.98 26.728 181.004 26.664 181.052 26.616C181.116 26.552 181.188 26.52 181.268 26.52H183.356C183.436 26.52 183.5 26.552 183.548 26.616C183.612 26.664 183.644 26.728 183.644 26.808V29.616C183.644 29.696 183.684 29.736 183.764 29.736H186.212C186.292 29.736 186.356 29.768 186.404 29.832C186.468 29.88 186.5 29.944 186.5 30.024V31.704ZM193.652 29.544C194.66 29.544 195.548 29.72 196.316 30.072C197.084 30.424 197.676 30.912 198.092 31.536C198.508 32.144 198.716 32.84 198.716 33.624V41.712C198.716 41.792 198.684 41.864 198.62 41.928C198.572 41.976 198.508 42 198.428 42H196.22C196.14 42 196.068 41.976 196.004 41.928C195.956 41.864 195.932 41.792 195.932 41.712V40.944C195.932 40.896 195.916 40.872 195.884 40.872C195.852 40.856 195.82 40.864 195.788 40.896C195.004 41.76 193.868 42.192 192.38 42.192C191.18 42.192 190.188 41.888 189.404 41.28C188.636 40.672 188.252 39.768 188.252 38.568C188.252 37.32 188.684 36.352 189.548 35.664C190.428 34.96 191.66 34.608 193.244 34.608H195.812C195.892 34.608 195.932 34.568 195.932 34.488V33.912C195.932 33.288 195.748 32.808 195.38 32.472C195.012 32.12 194.46 31.944 193.724 31.944C193.116 31.944 192.62 32.056 192.236 32.28C191.868 32.488 191.636 32.784 191.54 33.168C191.492 33.36 191.38 33.44 191.204 33.408L188.876 33.12C188.796 33.104 188.724 33.08 188.66 33.048C188.612 33 188.596 32.944 188.612 32.88C188.74 31.904 189.26 31.104 190.172 30.48C191.1 29.856 192.26 29.544 193.652 29.544ZM193.076 39.984C193.86 39.984 194.532 39.776 195.092 39.36C195.652 38.944 195.932 38.416 195.932 37.776V36.648C195.932 36.568 195.892 36.528 195.812 36.528H193.796C192.948 36.528 192.276 36.688 191.78 37.008C191.3 37.328 191.06 37.784 191.06 38.376C191.06 38.888 191.244 39.288 191.612 39.576C191.996 39.848 192.484 39.984 193.076 39.984ZM201.799 42C201.719 42 201.647 41.976 201.583 41.928C201.535 41.864 201.511 41.792 201.511 41.712V25.488C201.511 25.408 201.535 25.344 201.583 25.296C201.647 25.232 201.719 25.2 201.799 25.2H204.007C204.087 25.2 204.151 25.232 204.199 25.296C204.263 25.344 204.295 25.408 204.295 25.488V41.712C204.295 41.792 204.263 41.864 204.199 41.928C204.151 41.976 204.087 42 204.007 42H201.799ZM216.902 33.24C216.806 33.288 216.806 33.336 216.902 33.384C218.534 34.152 219.35 35.472 219.35 37.344C219.35 38.864 218.838 40.024 217.814 40.824C216.806 41.608 215.486 42 213.854 42H207.806C207.726 42 207.654 41.976 207.59 41.928C207.542 41.864 207.518 41.792 207.518 41.712V25.488C207.518 25.408 207.542 25.344 207.59 25.296C207.654 25.232 207.726 25.2 207.806 25.2H213.662C215.406 25.2 216.75 25.576 217.694 26.328C218.638 27.08 219.11 28.216 219.11 29.736C219.11 31.416 218.374 32.584 216.902 33.24ZM210.422 27.6C210.342 27.6 210.302 27.64 210.302 27.72V32.16C210.302 32.24 210.342 32.28 210.422 32.28H213.662C214.51 32.28 215.174 32.08 215.654 31.68C216.15 31.264 216.398 30.696 216.398 29.976C216.398 29.24 216.15 28.664 215.654 28.248C215.174 27.816 214.51 27.6 213.662 27.6H210.422ZM213.854 39.576C214.686 39.576 215.342 39.352 215.822 38.904C216.318 38.456 216.566 37.848 216.566 37.08C216.566 36.296 216.318 35.688 215.822 35.256C215.326 34.808 214.654 34.584 213.806 34.584H210.422C210.342 34.584 210.302 34.624 210.302 34.704V39.456C210.302 39.536 210.342 39.576 210.422 39.576H213.854ZM223.767 28.056C223.271 28.056 222.863 27.896 222.543 27.576C222.223 27.256 222.063 26.848 222.063 26.352C222.063 25.856 222.223 25.448 222.543 25.128C222.863 24.808 223.271 24.648 223.767 24.648C224.263 24.648 224.671 24.808 224.991 25.128C225.311 25.448 225.471 25.856 225.471 26.352C225.471 26.848 225.311 27.256 224.991 27.576C224.671 27.896 224.263 28.056 223.767 28.056ZM222.615 42C222.535 42 222.463 41.976 222.399 41.928C222.351 41.864 222.327 41.792 222.327 41.712V30C222.327 29.92 222.351 29.856 222.399 29.808C222.463 29.744 222.535 29.712 222.615 29.712H224.823C224.903 29.712 224.967 29.744 225.015 29.808C225.079 29.856 225.111 29.92 225.111 30V41.712C225.111 41.792 225.079 41.864 225.015 41.928C224.967 41.976 224.903 42 224.823 42H222.615ZM228.589 42C228.509 42 228.437 41.976 228.373 41.928C228.325 41.864 228.301 41.792 228.301 41.712V25.488C228.301 25.408 228.325 25.344 228.373 25.296C228.437 25.232 228.509 25.2 228.589 25.2H230.797C230.877 25.2 230.941 25.232 230.989 25.296C231.053 25.344 231.085 25.408 231.085 25.488V34.152C231.085 34.2 231.101 34.232 231.133 34.248C231.165 34.264 231.197 34.248 231.229 34.2L235.117 29.904C235.229 29.792 235.349 29.736 235.477 29.736H238.021C238.181 29.736 238.261 29.792 238.261 29.904C238.261 29.952 238.237 30.016 238.189 30.096L235.141 33.744C235.093 33.792 235.085 33.848 235.117 33.912L238.717 41.664C238.749 41.728 238.765 41.776 238.765 41.808C238.765 41.936 238.677 42 238.501 42H236.173C236.013 42 235.901 41.928 235.837 41.784L233.221 35.688C233.205 35.656 233.173 35.64 233.125 35.64C233.093 35.624 233.069 35.632 233.053 35.664L231.133 37.872C231.101 37.936 231.085 37.992 231.085 38.04V41.712C231.085 41.792 231.053 41.864 230.989 41.928C230.941 41.976 230.877 42 230.797 42H228.589ZM250.316 34.488C250.38 34.888 250.412 35.336 250.412 35.832L250.388 36.576C250.388 36.768 250.292 36.864 250.1 36.864H242.588C242.508 36.864 242.468 36.904 242.468 36.984C242.516 37.512 242.588 37.872 242.684 38.064C243.068 39.216 244.004 39.8 245.492 39.816C246.58 39.816 247.444 39.368 248.084 38.472C248.148 38.376 248.228 38.328 248.324 38.328C248.388 38.328 248.444 38.352 248.492 38.4L249.98 39.624C250.124 39.736 250.148 39.864 250.052 40.008C249.556 40.712 248.892 41.256 248.06 41.64C247.244 42.024 246.332 42.216 245.324 42.216C244.076 42.216 243.012 41.936 242.132 41.376C241.268 40.816 240.636 40.032 240.236 39.024C239.868 38.16 239.684 36.96 239.684 35.424C239.684 34.496 239.78 33.744 239.972 33.168C240.292 32.048 240.892 31.168 241.772 30.528C242.668 29.872 243.74 29.544 244.988 29.544C248.14 29.544 249.916 31.192 250.316 34.488ZM244.988 31.944C244.396 31.944 243.9 32.096 243.5 32.4C243.116 32.688 242.844 33.096 242.684 33.624C242.588 33.896 242.524 34.248 242.492 34.68C242.46 34.76 242.492 34.8 242.588 34.8H247.46C247.54 34.8 247.58 34.76 247.58 34.68C247.548 34.28 247.5 33.976 247.436 33.768C247.292 33.192 247.004 32.744 246.572 32.424C246.156 32.104 245.628 31.944 244.988 31.944ZM257.329 42.144C256.321 42.144 255.433 42 254.665 41.712C253.913 41.408 253.329 41 252.913 40.488C252.497 39.96 252.289 39.376 252.289 38.736V38.52C252.289 38.44 252.313 38.376 252.361 38.328C252.425 38.264 252.497 38.232 252.577 38.232H254.689C254.769 38.232 254.833 38.264 254.881 38.328C254.945 38.376 254.977 38.44 254.977 38.52V38.568C254.977 38.968 255.193 39.32 255.625 39.624C256.073 39.912 256.633 40.056 257.305 40.056C257.945 40.056 258.465 39.928 258.865 39.672C259.265 39.4 259.465 39.064 259.465 38.664C259.465 38.296 259.297 38.024 258.961 37.848C258.641 37.656 258.113 37.456 257.377 37.248L256.465 36.96C255.649 36.72 254.961 36.464 254.401 36.192C253.841 35.92 253.369 35.552 252.985 35.088C252.601 34.608 252.409 34 252.409 33.264C252.409 32.144 252.849 31.256 253.729 30.6C254.609 29.928 255.769 29.592 257.209 29.592C258.185 29.592 259.041 29.752 259.777 30.072C260.513 30.376 261.081 30.808 261.481 31.368C261.881 31.912 262.081 32.536 262.081 33.24C262.081 33.32 262.049 33.392 261.985 33.456C261.937 33.504 261.873 33.528 261.793 33.528H259.753C259.673 33.528 259.601 33.504 259.537 33.456C259.489 33.392 259.465 33.32 259.465 33.24C259.465 32.824 259.257 32.48 258.841 32.208C258.441 31.92 257.889 31.776 257.185 31.776C256.561 31.776 256.049 31.896 255.649 32.136C255.265 32.36 255.073 32.68 255.073 33.096C255.073 33.48 255.257 33.776 255.625 33.984C256.009 34.176 256.641 34.392 257.521 34.632L258.049 34.776C258.897 35.032 259.609 35.296 260.185 35.568C260.761 35.824 261.249 36.192 261.649 36.672C262.049 37.136 262.249 37.744 262.249 38.496C262.249 39.632 261.801 40.528 260.905 41.184C260.009 41.824 258.817 42.144 257.329 42.144Z" fill="black"/>
<defs>
<clipPath id="clip0_711_1086">
<rect width="64" height="64" fill="white"/>
</clipPath>
</defs>
</svg>
