<svg width="64" height="64" viewBox="0 0 64 64" fill="none" xmlns="http://www.w3.org/2000/svg">
<g clip-path="url(#clip0_610_753)">
<path d="M34.5186 57.9406C34.5186 57.5665 34.5186 57.2407 34.5186 56.9139C34.5186 51.7791 34.5241 46.6443 34.5165 41.5095C34.511 38.1465 32.7987 36.078 29.4686 35.3824C28.5864 35.1985 27.702 35.0211 26.8176 34.847C22.6139 34.0191 20.5202 31.4894 20.5192 27.2265C20.517 21.6735 20.5289 16.1194 20.5039 10.5664C20.5007 9.9471 20.68 9.62994 21.2688 9.37943C24.0709 8.18712 27.1598 7.3625 29.6164 7.24854C29.6164 7.57322 29.6164 7.89253 29.6164 8.21292C29.6164 13.3757 29.6077 18.5384 29.6196 23.7012C29.6272 26.9846 31.3189 29.037 34.5621 29.738C35.553 29.9519 36.5482 30.1508 37.5456 30.3325C40.1108 30.8002 42.0578 32.1162 43.0389 34.5373C43.4268 35.4953 43.6061 36.5951 43.6159 37.6326C43.6702 43.2974 43.6322 48.9623 43.655 54.6271C43.6572 55.2195 43.4659 55.5087 42.9173 55.7463C40.2662 56.8946 37.5261 57.6815 34.5176 57.9396L34.5186 57.9406Z" fill="black"/>
<path d="M15.5738 13.1026V52.2286C10.5162 47.9506 7.42621 42.7524 6.52659 36.4167C5.19998 27.0717 8.35082 19.3147 15.5738 13.1016V13.1026Z" fill="black"/>
<path d="M48.5635 51.9845V13.1672C48.6363 13.136 48.708 13.1048 48.7808 13.0747C54.0503 17.6053 57.2174 23.2948 57.8096 30.2423C58.5571 39.0132 55.3693 46.2584 48.8188 52.077C48.7341 52.0469 48.6482 52.0157 48.5635 51.9856V51.9845Z" fill="black"/>
<path d="M43.6425 27.9137C42.1399 27.632 40.7383 27.374 39.3389 27.1063C38.536 26.9536 37.7287 26.816 36.9367 26.6203C35.4623 26.2559 34.5399 25.2001 34.5334 23.7659C34.5095 18.4096 34.5214 13.0533 34.5225 7.69707C34.5225 7.56268 34.5573 7.42829 34.5833 7.23584C37.0812 7.40356 39.4345 8.0196 41.7184 8.90658C43.6501 9.65809 43.6425 9.67852 43.6425 11.7374C43.6425 16.7872 43.6425 21.836 43.6425 26.8859V27.9126V27.9137Z" fill="black"/>
<path d="M29.5618 57.9388C26.4826 57.6646 23.661 56.8389 20.9611 55.5918C20.7622 55.5004 20.5395 55.194 20.5395 54.9875C20.5276 49.1571 20.5428 43.3267 20.5547 37.4953C20.5547 37.4705 20.5786 37.4458 20.646 37.3125C21.0078 37.3663 21.4109 37.4125 21.8085 37.4877C23.5795 37.8243 25.3559 38.1414 27.1182 38.5188C28.7262 38.8628 29.603 39.9261 29.6085 41.5528C29.627 46.8263 29.6161 52.1008 29.615 57.3743C29.615 57.5367 29.5857 57.699 29.5618 57.9388Z" fill="black"/>
<path d="M32.1803 3.36429C48.4712 3.38579 61.7156 16.4507 61.7689 32.5496C61.821 48.5152 48.4875 61.8016 32.1988 61.7564C15.5841 61.7102 2.63635 48.7302 2.61136 32.5389C2.58637 16.4109 15.9264 3.34171 32.1803 3.36429ZM32.1456 4.23514C16.2816 4.29857 3.38277 17.0678 3.47839 32.6109C3.57508 48.2765 16.3284 60.8566 32.1488 60.892C47.9139 60.9275 60.9344 48.14 60.8681 32.5743C60.8019 17.0603 48.3028 4.38565 32.1456 4.23514Z" fill="black"/>
</g>
<defs>
<clipPath id="clip0_610_753">
<rect width="64" height="64" fill="white"/>
</clipPath>
</defs>
</svg>
