<svg width="50" height="50" viewBox="0 0 50 50" fill="none" xmlns="http://www.w3.org/2000/svg">
<path d="M26.9686 45.2663C26.9686 44.974 26.9686 44.7195 26.9686 44.4642C26.9686 40.4526 26.9728 36.441 26.9669 32.4295C26.9626 29.8021 25.6249 28.1861 23.0232 27.6427C22.334 27.499 21.643 27.3604 20.9521 27.2244C17.668 26.5776 16.0323 24.6012 16.0314 21.2709C16.0298 16.9326 16.0391 12.5934 16.0196 8.25514C16.017 7.77134 16.1571 7.52355 16.6171 7.32785C18.8063 6.39635 21.2195 5.75212 23.1387 5.66309C23.1387 5.91675 23.1387 6.16621 23.1387 6.41651C23.1387 10.4499 23.1319 14.4833 23.1412 18.5167C23.1471 21.0819 24.4688 22.6853 27.0025 23.233C27.7766 23.4001 28.5542 23.5555 29.3334 23.6975C31.3375 24.0628 32.8585 25.0909 33.625 26.9825C33.9281 27.7309 34.0681 28.5901 34.0758 29.4007C34.1182 33.8263 34.0885 38.2519 34.1063 42.6776C34.108 43.1404 33.9586 43.3664 33.53 43.552C31.4588 44.449 29.3181 45.0639 26.9677 45.2655L26.9686 45.2663Z" fill="white"/>
<path d="M12.1667 10.2362V40.8033C8.21542 37.4612 5.80136 33.4001 5.09853 28.4503C4.06212 21.1495 6.52371 15.0894 12.1667 10.2354V10.2362Z" fill="white"/>
<path d="M37.9395 40.6122V10.2861C37.9963 10.2617 38.0523 10.2374 38.1092 10.2139C42.226 13.7534 44.7003 18.1983 45.1629 23.626C45.7469 30.4783 43.2565 36.1386 38.1389 40.6844C38.0727 40.6609 38.0057 40.6365 37.9395 40.613V40.6122Z" fill="white"/>
<path d="M34.0959 21.8069C32.922 21.5869 31.827 21.3853 30.7337 21.1761C30.1064 21.0569 29.4757 20.9493 28.8569 20.7965C27.7051 20.5117 26.9844 19.6869 26.9793 18.5664C26.9607 14.3818 26.97 10.1973 26.9709 6.01268C26.9709 5.90769 26.998 5.80269 27.0184 5.65234C28.9698 5.78337 30.8084 6.26466 32.5926 6.95761C34.1018 7.54473 34.0959 7.56069 34.0959 9.16918C34.0959 13.1144 34.0959 17.0587 34.0959 21.0039V21.8061V21.8069Z" fill="white"/>
<path d="M23.095 45.2647C20.6894 45.0505 18.485 44.4054 16.3757 43.4311C16.2204 43.3597 16.0464 43.1203 16.0464 42.959C16.037 38.404 16.0489 33.849 16.0582 29.2932C16.0582 29.2739 16.0769 29.2545 16.1296 29.1504C16.4122 29.1924 16.7271 29.2285 17.0378 29.2873C18.4214 29.5502 19.8092 29.798 21.186 30.0928C22.4423 30.3616 23.1273 31.1923 23.1315 32.4631C23.1459 36.583 23.1374 40.7038 23.1366 44.8237C23.1366 44.9505 23.1137 45.0773 23.095 45.2647Z" fill="white"/>
<path d="M25.1408 2.62795C37.8681 2.64475 48.2153 12.8517 48.2569 25.429C48.2976 37.9021 37.8808 48.2821 25.1553 48.2468C12.175 48.2107 2.05959 38.0701 2.04007 25.4206C2.02054 12.8206 12.4424 2.61031 25.1408 2.62795ZM25.1137 3.3083C12.72 3.35786 2.64273 13.3338 2.71743 25.4769C2.79297 37.7156 12.7565 47.5438 25.1162 47.5715C37.4327 47.5992 47.605 37.609 47.5532 25.4483C47.5014 13.328 37.7365 3.4259 25.1137 3.3083Z" fill="white"/>
<path d="M26.9686 45.2663C26.9686 44.974 26.9686 44.7195 26.9686 44.4642C26.9686 40.4526 26.9728 36.441 26.9669 32.4295C26.9626 29.8021 25.6249 28.1861 23.0232 27.6427C22.334 27.499 21.643 27.3604 20.9521 27.2244C17.668 26.5776 16.0323 24.6012 16.0314 21.2709C16.0298 16.9326 16.0391 12.5934 16.0196 8.25514C16.017 7.77134 16.1571 7.52355 16.6171 7.32785C18.8063 6.39635 21.2195 5.75212 23.1387 5.66309C23.1387 5.91675 23.1387 6.16621 23.1387 6.41651C23.1387 10.4499 23.1319 14.4833 23.1412 18.5167C23.1471 21.0819 24.4688 22.6853 27.0025 23.233C27.7766 23.4001 28.5542 23.5555 29.3334 23.6975C31.3375 24.0628 32.8585 25.0909 33.625 26.9825C33.9281 27.7309 34.0681 28.5901 34.0758 29.4007C34.1182 33.8263 34.0885 38.2519 34.1063 42.6776C34.108 43.1404 33.9586 43.3664 33.53 43.552C31.4588 44.449 29.3181 45.0639 26.9677 45.2655L26.9686 45.2663Z" fill="white"/>
<path d="M12.1686 10.2362V40.8033C8.21737 37.4612 5.80331 33.4001 5.10049 28.4503C4.06407 21.1495 6.52566 15.0894 12.1686 10.2354V10.2362Z" fill="white"/>
<path d="M37.9395 40.6131V10.2871C37.9963 10.2627 38.0523 10.2384 38.1092 10.2148C42.226 13.7544 44.7003 18.1993 45.1629 23.627C45.7469 30.4793 43.2565 36.1396 38.1389 40.6854C38.0727 40.6619 38.0057 40.6375 37.9395 40.614V40.6131Z" fill="white"/>
<path d="M34.0949 21.8079C32.921 21.5878 31.826 21.3862 30.7327 21.1771C30.1054 21.0578 29.4748 20.9503 28.856 20.7975C27.7041 20.5127 26.9835 19.6879 26.9784 18.5674C26.9597 14.3828 26.969 10.1982 26.9699 6.01365C26.9699 5.90866 26.997 5.80367 27.0174 5.65332C28.9689 5.78435 30.8074 6.26564 32.5916 6.95859C34.1009 7.54571 34.0949 7.56167 34.0949 9.17015C34.0949 13.1154 34.0949 17.0597 34.0949 21.0049V21.8071V21.8079Z" fill="white"/>
<path d="M23.096 45.2647C20.6904 45.0505 18.486 44.4054 16.3767 43.4311C16.2214 43.3597 16.0473 43.1203 16.0473 42.959C16.038 38.404 16.0499 33.849 16.0592 29.2932C16.0592 29.2739 16.0779 29.2545 16.1305 29.1504C16.4132 29.1924 16.7281 29.2285 17.0388 29.2873C18.4224 29.5502 19.8102 29.798 21.187 30.0928C22.4432 30.3616 23.1282 31.1923 23.1325 32.4631C23.1469 36.583 23.1384 40.7038 23.1376 44.8237C23.1376 44.9505 23.1147 45.0773 23.096 45.2647Z" fill="white"/>
</svg>
