<?xml version="1.0" encoding="UTF-8"?> <svg xmlns="http://www.w3.org/2000/svg" width="57" height="40" viewBox="0 0 57 40" fill="none"><rect x="0.0380859" y="0.459961" width="56" height="39.08" rx="4" fill="white"></rect><path d="M47.6582 24.48V24H47.5382L47.3982 24.32L47.2582 24H47.1382V24.48H47.2182V24.12L47.3582 24.44H47.4582L47.5982 24.12V24.48H47.6582ZM46.8582 24.48V24.08H47.0182V24H46.6182V24.08H46.7782V24.48H46.8582Z" fill="#00A2E5"></path><path d="M33.4382 26.5401H22.6182V7.1001H33.4382V26.5401Z" fill="#7375CF"></path><path d="M23.3181 16.82C23.3181 12.88 25.1581 9.35996 28.0381 7.09996C25.9381 5.43996 23.2781 4.45996 20.3981 4.45996C13.5781 4.45996 8.03809 9.99996 8.03809 16.82C8.03809 23.64 13.5781 29.18 20.3981 29.18C23.2781 29.18 25.9381 28.2 28.0381 26.54C25.1581 24.28 23.3181 20.76 23.3181 16.82Z" fill="#EB001B"></path><path d="M48.0381 16.82C48.0381 23.64 42.4981 29.18 35.6781 29.18C32.7981 29.18 30.1381 28.2 28.0381 26.54C30.9181 24.28 32.7581 20.76 32.7581 16.82C32.7581 12.88 30.9181 9.35996 28.0381 7.09996C30.1381 5.43996 32.7981 4.45996 35.6781 4.45996C42.4981 4.45996 48.0381 9.99996 48.0381 16.82Z" fill="#00A2E5"></path><path d="M37.0776 32.0401C37.2176 32.0401 37.4376 32.0601 37.5776 32.1201L37.3576 32.8001C37.1976 32.7401 37.0576 32.7201 36.9176 32.7201C36.4576 32.7201 36.2176 33.0201 36.2176 33.5601V35.4001H35.4976V32.1201H36.1976V32.5201C36.3976 32.2201 36.6776 32.0401 37.0776 32.0401ZM34.4376 32.7601H33.2776V34.2401C33.2776 34.5601 33.3976 34.7801 33.7576 34.7801C33.9376 34.7801 34.1776 34.7201 34.3976 34.6001L34.5976 35.2201C34.3776 35.3801 34.0176 35.4801 33.6976 35.4801C32.8576 35.4801 32.5576 35.0201 32.5576 34.2601V32.7601H31.8976V32.1001H32.5576V31.1001H33.2776V32.1001H34.4376V32.7601ZM25.2976 33.4601C25.3776 32.9801 25.6576 32.6601 26.1776 32.6601C26.6376 32.6601 26.9376 32.9401 27.0176 33.4601H25.2976ZM27.7576 33.7601C27.7576 32.7401 27.1176 32.0401 26.1976 32.0401C25.2376 32.0401 24.5576 32.7401 24.5576 33.7601C24.5576 34.8001 25.2576 35.4801 26.2376 35.4801C26.7376 35.4801 27.1776 35.3601 27.5776 35.0201L27.2176 34.5001C26.9376 34.7201 26.5976 34.8401 26.2576 34.8401C25.7976 34.8401 25.3776 34.6201 25.2776 34.0401H27.7176C27.7376 33.9401 27.7576 33.8601 27.7576 33.7601ZM30.8976 32.9601C30.6976 32.8401 30.2976 32.6801 29.8776 32.6801C29.4776 32.6801 29.2576 32.8201 29.2576 33.0601C29.2576 33.2801 29.4976 33.3401 29.8176 33.3801L30.1576 33.4201C30.8776 33.5201 31.2976 33.8201 31.2976 34.4001C31.2976 35.0201 30.7576 35.4801 29.7976 35.4801C29.2576 35.4801 28.7576 35.3401 28.3776 35.0601L28.7176 34.5001C28.9576 34.6801 29.3176 34.8401 29.8176 34.8401C30.2976 34.8401 30.5576 34.7001 30.5576 34.4401C30.5576 34.2601 30.3776 34.1601 29.9776 34.1001L29.6376 34.0601C28.8976 33.9601 28.4976 33.6201 28.4976 33.1001C28.4976 32.4401 29.0376 32.0401 29.8576 32.0401C30.3776 32.0401 30.8576 32.1601 31.1976 32.3801L30.8976 32.9601ZM39.6976 32.7001C39.5576 32.7001 39.4176 32.7201 39.2976 32.7801C39.1776 32.8401 39.0576 32.9001 38.9776 33.0001C38.8976 33.1001 38.8176 33.2001 38.7576 33.3401C38.6976 33.4601 38.6776 33.6201 38.6776 33.7601C38.6776 33.9201 38.6976 34.0601 38.7576 34.1801C38.8176 34.3001 38.8776 34.4201 38.9776 34.5201C39.0776 34.6201 39.1776 34.6801 39.2976 34.7401C39.4176 34.8001 39.5576 34.8201 39.6976 34.8201C39.8376 34.8201 39.9776 34.8001 40.0976 34.7401C40.2176 34.6801 40.3376 34.6201 40.4176 34.5201C40.5176 34.4201 40.5776 34.3201 40.6376 34.1801C40.6976 34.0601 40.7176 33.9001 40.7176 33.7601C40.7176 33.6001 40.6976 33.4601 40.6376 33.3401C40.5776 33.2201 40.5176 33.1001 40.4176 33.0001C40.3176 32.9001 40.2176 32.8401 40.0976 32.7801C39.9776 32.7401 39.8376 32.7001 39.6976 32.7001ZM39.6976 32.0401C39.9576 32.0401 40.1976 32.0801 40.3976 32.1801C40.6176 32.2601 40.7976 32.3801 40.9576 32.5401C41.1176 32.7001 41.2376 32.8801 41.3376 33.0801C41.4176 33.3001 41.4776 33.5201 41.4776 33.7601C41.4776 34.0001 41.4376 34.2401 41.3376 34.4401C41.2576 34.6601 41.1176 34.8401 40.9576 34.9801C40.7976 35.1401 40.6176 35.2601 40.3976 35.3401C40.1776 35.4201 39.9376 35.4801 39.6976 35.4801C39.4376 35.4801 39.1976 35.4401 38.9976 35.3401C38.7776 35.2601 38.5976 35.1401 38.4376 34.9801C38.2776 34.8201 38.1576 34.6401 38.0576 34.4401C37.9776 34.2201 37.9176 34.0001 37.9176 33.7601C37.9176 33.5201 37.9576 33.2801 38.0576 33.0801C38.1376 32.8601 38.2776 32.6801 38.4376 32.5401C38.5976 32.3801 38.7776 32.2601 38.9976 32.1801C39.1976 32.0801 39.4376 32.0401 39.6976 32.0401ZM21.1376 33.7601C21.1376 33.1801 21.5176 32.7001 22.1376 32.7001C22.7376 32.7001 23.1176 33.1601 23.1176 33.7601C23.1176 34.3601 22.7176 34.8001 22.1376 34.8001C21.5176 34.8001 21.1376 34.3401 21.1376 33.7601ZM23.7976 33.7601V32.1201H23.0776V32.5201C22.8576 32.2201 22.5176 32.0401 22.0376 32.0401C21.1176 32.0401 20.3976 32.7601 20.3976 33.7601C20.3976 34.7601 21.1176 35.4801 22.0376 35.4801C22.4976 35.4801 22.8376 35.3001 23.0776 35.0001V35.4001H23.7976V33.7601ZM19.7776 35.4001V33.3401C19.7776 32.5601 19.2776 32.0401 18.4776 32.0401C18.0576 32.0401 17.6176 32.1601 17.3176 32.6201C17.0976 32.2601 16.7376 32.0401 16.2376 32.0401C15.8976 32.0401 15.5376 32.1401 15.2776 32.5201V32.1201H14.5576V35.4001H15.2776V33.5801C15.2776 33.0201 15.5976 32.7001 16.0776 32.7001C16.5576 32.7001 16.7976 33.0001 16.7976 33.5601V35.3801H17.5176V33.5601C17.5176 33.0001 17.8576 32.6801 18.3176 32.6801C18.7976 32.6801 19.0376 32.9801 19.0376 33.5401V35.3601H19.7776V35.4001Z" fill="black"></path><path d="M42.238 35.1399V35.2199H42.318C42.338 35.2199 42.358 35.2199 42.358 35.1999C42.378 35.1999 42.378 35.1799 42.378 35.1599C42.378 35.1399 42.378 35.1399 42.358 35.1399C42.358 35.1399 42.338 35.1199 42.318 35.1199H42.238V35.1399ZM42.318 35.0999C42.358 35.0999 42.378 35.0999 42.398 35.1199C42.418 35.1399 42.438 35.1599 42.438 35.1999C42.438 35.2199 42.438 35.2399 42.418 35.2599C42.398 35.2799 42.378 35.2799 42.338 35.2799L42.438 35.3999H42.358L42.258 35.2799H42.238V35.3999H42.178V35.0999H42.318ZM42.298 35.4999C42.338 35.4999 42.358 35.4999 42.398 35.4799C42.438 35.4599 42.458 35.4399 42.478 35.4199C42.498 35.3999 42.518 35.3799 42.538 35.3399C42.558 35.2999 42.558 35.2799 42.558 35.2399C42.558 35.1999 42.558 35.1799 42.538 35.1399C42.518 35.0999 42.498 35.0799 42.478 35.0599C42.458 35.0399 42.438 35.0199 42.398 34.9999C42.378 34.9799 42.338 34.9799 42.298 34.9799C42.258 34.9799 42.238 34.9799 42.198 34.9999C42.158 35.0199 42.138 35.0399 42.118 35.0599C42.098 35.0799 42.078 35.1199 42.058 35.1399C42.038 35.1799 42.038 35.1999 42.038 35.2399C42.038 35.2799 42.038 35.2999 42.058 35.3399C42.078 35.3799 42.098 35.3999 42.118 35.4199C42.138 35.4399 42.178 35.4599 42.198 35.4799C42.238 35.4999 42.258 35.4999 42.298 35.4999ZM42.298 34.9199C42.338 34.9199 42.378 34.9199 42.418 34.9399C42.458 34.9599 42.498 34.9799 42.518 34.9999C42.538 35.0199 42.578 35.0599 42.598 35.0999C42.618 35.1399 42.618 35.1799 42.618 35.2199C42.618 35.2599 42.618 35.2999 42.598 35.3399C42.578 35.3799 42.558 35.4199 42.518 35.4399C42.478 35.4599 42.458 35.4999 42.418 35.5199C42.378 35.5399 42.338 35.5399 42.298 35.5399C42.258 35.5399 42.198 35.5399 42.158 35.5199C42.118 35.4999 42.078 35.4799 42.058 35.4399C42.038 35.4199 41.998 35.3799 41.978 35.3399C41.958 35.2999 41.958 35.2599 41.958 35.2199C41.958 35.1799 41.958 35.1399 41.978 35.0999C41.998 35.0599 42.018 35.0199 42.058 34.9999C42.078 34.9799 42.118 34.9399 42.158 34.9399C42.198 34.9199 42.258 34.9199 42.298 34.9199Z" fill="black"></path></svg> 