<?xml version="1.0" encoding="UTF-8"?> <svg xmlns="http://www.w3.org/2000/svg" width="57" height="40" viewBox="0 0 57 40" fill="none"><rect x="0.0380859" y="0.294434" width="56" height="39.4115" rx="4" fill="white"></rect><path d="M33.434 6.94043H22.6094V26.388H33.434V6.94043Z" fill="#FF5A00"></path><path d="M23.3303 16.6643C23.3303 12.7132 25.1878 9.20636 28.0381 6.94055C25.9404 5.29123 23.2943 4.29443 20.408 4.29443C13.5705 4.29443 8.03809 9.82686 8.03809 16.6643C8.03809 23.5018 13.5705 29.0342 20.408 29.0342C23.2943 29.0342 25.9404 28.0374 28.0381 26.3881C25.1838 24.1543 23.3303 20.6155 23.3303 16.6643Z" fill="#EB001B"></path><path d="M48.0381 16.6643C48.0381 23.5018 42.5057 29.0342 35.6682 29.0342C32.7819 29.0342 30.1358 28.0374 28.0381 26.3881C30.9244 24.1183 32.7459 20.6155 32.7459 16.6643C32.7459 12.7132 30.8884 9.20636 28.0381 6.94055C30.1318 5.29123 32.7779 4.29443 35.6642 4.29443C42.5057 4.29443 48.0381 9.86289 48.0381 16.6643Z" fill="#F79E1B"></path><path d="M15.2543 35.6379V33.5762C15.2543 32.7876 14.7739 32.2712 13.9492 32.2712C13.5369 32.2712 13.0885 32.4073 12.7803 32.8556C12.5401 32.4793 12.1958 32.2712 11.6794 32.2712C11.3351 32.2712 10.9908 32.3753 10.7186 32.7516V32.3392H9.99805V35.6379H10.7186V33.8164C10.7186 33.2319 11.0269 32.9557 11.5073 32.9557C11.9876 32.9557 12.2278 33.264 12.2278 33.8164V35.6379H12.9484V33.8164C12.9484 33.2319 13.2927 32.9557 13.737 32.9557C14.2174 32.9557 14.4576 33.264 14.4576 33.8164V35.6379H15.2543ZM25.9428 32.3392H24.7739V31.3424H24.0533V32.3392H23.4008V32.9917H24.0533V34.505C24.0533 35.2616 24.3615 35.7059 25.1862 35.7059C25.4944 35.7059 25.8387 35.6018 26.0789 35.4657L25.8707 34.8452C25.6626 34.9813 25.4224 35.0174 25.2502 35.0174C24.906 35.0174 24.7699 34.8092 24.7699 34.4689V32.9917H25.9388V32.3392H25.9428ZM32.0597 32.2672C31.6474 32.2672 31.3711 32.4753 31.199 32.7475V32.3352H30.4784V35.6339H31.199V33.7764C31.199 33.2279 31.4392 32.9157 31.8876 32.9157C32.0237 32.9157 32.1958 32.9517 32.3359 32.9837L32.5441 32.2952C32.4 32.2672 32.1958 32.2672 32.0597 32.2672ZM22.8163 32.6114C22.472 32.3713 21.9916 32.2672 21.4752 32.2672C20.6506 32.2672 20.1021 32.6795 20.1021 33.332C20.1021 33.8805 20.5145 34.1927 21.235 34.2928L21.5793 34.3288C21.9556 34.3969 22.1638 34.501 22.1638 34.6731C22.1638 34.9133 21.8876 35.0854 21.4072 35.0854C20.9268 35.0854 20.5465 34.9133 20.3063 34.7411L19.962 35.2896C20.3383 35.5658 20.8547 35.7019 21.3711 35.7019C22.3319 35.7019 22.8844 35.2536 22.8844 34.6371C22.8844 34.0526 22.436 33.7443 21.7514 33.6403L21.4072 33.6042C21.0989 33.5682 20.8587 33.5002 20.8587 33.296C20.8587 33.0558 21.0989 32.9197 21.4792 32.9197C21.8916 32.9197 22.3039 33.0918 22.5121 33.1959L22.8163 32.6114ZM41.9876 32.2672C41.5753 32.2672 41.2991 32.4753 41.127 32.7475V32.3352H40.4064V35.6339H41.127V33.7764C41.127 33.2279 41.3671 32.9157 41.8155 32.9157C41.9516 32.9157 42.1237 32.9517 42.2639 32.9837L42.472 32.3032C42.3319 32.2672 42.1278 32.2672 41.9876 32.2672ZM32.7803 33.9885C32.7803 34.9853 33.4688 35.7059 34.5337 35.7059C35.0141 35.7059 35.3583 35.6018 35.7026 35.3296L35.3583 34.7451C35.0821 34.9533 34.8099 35.0534 34.4976 35.0534C33.9132 35.0534 33.5009 34.6411 33.5009 33.9885C33.5009 33.368 33.9132 32.9557 34.4976 32.9237C34.8059 32.9237 35.0821 33.0278 35.3583 33.2319L35.7026 32.6475C35.3583 32.3712 35.0141 32.2712 34.5337 32.2712C33.4688 32.2672 32.7803 32.9917 32.7803 33.9885ZM39.4456 33.9885V32.3392H38.725V32.7516C38.4848 32.4433 38.1406 32.2712 37.6922 32.2712C36.7635 32.2712 36.0429 32.9917 36.0429 33.9885C36.0429 34.9853 36.7635 35.7059 37.6922 35.7059C38.1726 35.7059 38.5169 35.5338 38.725 35.2255V35.6379H39.4456V33.9885ZM36.7995 33.9885C36.7995 33.4041 37.1758 32.9237 37.7963 32.9237C38.3808 32.9237 38.7931 33.372 38.7931 33.9885C38.7931 34.573 38.3808 35.0534 37.7963 35.0534C37.1798 35.0174 36.7995 34.569 36.7995 33.9885ZM28.1766 32.2672C27.2158 32.2672 26.5273 32.9557 26.5273 33.9845C26.5273 35.0174 27.2158 35.7019 28.2126 35.7019C28.693 35.7019 29.1734 35.5658 29.5537 35.2536L29.2094 34.7371C28.9332 34.9453 28.5889 35.0814 28.2486 35.0814C27.8003 35.0814 27.3559 34.8733 27.2519 34.2928H29.6898C29.6898 34.1887 29.6898 34.1206 29.6898 34.0166C29.7218 32.9557 29.1013 32.2672 28.1766 32.2672ZM28.1766 32.8877C28.6249 32.8877 28.9332 33.1639 29.0012 33.6763H27.2839C27.3519 33.2319 27.6602 32.8877 28.1766 32.8877ZM46.0789 33.9885V31.0342H45.3583V32.7516C45.1181 32.4433 44.7739 32.2712 44.3255 32.2712C43.3968 32.2712 42.6762 32.9917 42.6762 33.9885C42.6762 34.9853 43.3968 35.7059 44.3255 35.7059C44.8059 35.7059 45.1502 35.5338 45.3583 35.2255V35.6379H46.0789V33.9885ZM43.4328 33.9885C43.4328 33.4041 43.8091 32.9237 44.4296 32.9237C45.0141 32.9237 45.4264 33.372 45.4264 33.9885C45.4264 34.573 45.0141 35.0534 44.4296 35.0534C43.8091 35.0174 43.4328 34.569 43.4328 33.9885ZM19.3095 33.9885V32.3392H18.5889V32.7516C18.3487 32.4433 18.0045 32.2712 17.5561 32.2712C16.6274 32.2712 15.9068 32.9917 15.9068 33.9885C15.9068 34.9853 16.6274 35.7059 17.5561 35.7059C18.0365 35.7059 18.3808 35.5338 18.5889 35.2255V35.6379H19.3095V33.9885ZM16.6314 33.9885C16.6314 33.4041 17.0077 32.9237 17.6282 32.9237C18.2126 32.9237 18.6249 33.372 18.6249 33.9885C18.6249 34.573 18.2126 35.0534 17.6282 35.0534C17.0077 35.0174 16.6314 34.569 16.6314 33.9885Z" fill="black"></path></svg> 