<?xml version="1.0" encoding="UTF-8"?> <svg xmlns="http://www.w3.org/2000/svg" width="368" height="192" viewBox="0 0 368 192" fill="none"><rect width="367.5" height="192" fill="#E9E9E6"></rect><g clip-path="url(#clip0_107_1082)"><path d="M326.003 98.5057C326.003 98.5057 299.666 133 271.605 133C250.74 133 233.828 117.556 233.828 98.5057C233.828 79.4554 250.74 64.0115 271.605 64.0115C299.666 64.0115 326.003 98.5057 326.003 98.5057Z" fill="#C7E78B"></path><path fill-rule="evenodd" clip-rule="evenodd" d="M292.343 101.543C292.508 99.9563 292.59 98.4488 292.59 97.0268C292.59 92.9198 291.684 89.2508 289.874 86.0226C288.119 82.7376 285.594 80.1636 282.302 78.3035C279.01 76.4405 275.225 75.5105 270.945 75.5105C266.664 75.5105 262.66 76.469 259.257 78.386C255.911 80.2489 253.303 82.931 251.439 86.435C249.573 89.939 248.641 94.0176 248.641 98.6735C248.641 103.329 249.601 107.434 251.522 110.992C253.443 114.496 256.076 117.206 259.422 119.123C262.822 121.04 266.664 121.999 270.945 121.999C276.323 121.999 280.82 120.656 284.442 117.974C288.065 115.235 290.479 111.706 291.684 107.38H283.619C282.741 109.9 281.205 111.925 279.01 113.458C276.87 114.937 274.182 115.676 270.945 115.676C266.995 115.676 263.62 114.445 260.822 111.981C258.077 109.462 256.569 105.986 256.296 101.552C256.096 99.1798 256.133 97.8459 256.378 95.4738C256.763 91.2019 258.271 87.8628 260.904 85.4538C263.592 83.0447 266.829 81.8388 270.614 81.8388C273.248 81.8388 275.636 82.3877 277.773 83.4827C279.968 84.5237 281.695 86.0823 282.957 88.1643C284.22 90.1893 284.85 92.6268 284.85 95.4738H270.611V101.552H292.337L292.343 101.543Z" fill="white"></path><path d="M226.847 121.501L209.154 101.626V121.501H201.664V60.7235H209.154V96.4493L226.519 76.4917H236.97L215.737 98.9124L237.053 121.498H226.847V121.501Z" fill="#1F1F1F"></path><path d="M185.273 69.1851C183.846 69.1851 182.64 68.693 181.654 67.7061C180.665 66.7192 180.172 65.5161 180.172 64.0911C180.172 62.6662 180.665 61.4631 181.654 60.4762C182.64 59.4892 183.848 58.9972 185.273 58.9972C186.698 58.9972 187.798 59.4892 188.73 60.4762C189.717 61.4631 190.212 62.6662 190.212 64.0911C190.212 65.5161 189.719 66.7192 188.73 67.7061C187.798 68.693 186.644 69.1851 185.273 69.1851ZM188.896 76.4946V121.501H181.406V76.4946H188.896Z" fill="#1F1F1F"></path><path d="M133.279 84.8706C134.815 82.1886 137.064 79.9986 140.028 78.3006C142.989 76.6026 146.363 75.755 150.151 75.755C154.212 75.755 157.86 76.7135 161.098 78.6305C164.335 80.5475 166.886 83.258 168.75 86.762C170.617 90.212 171.549 94.2365 171.549 98.8356C171.549 103.435 170.617 107.431 168.75 110.992C166.886 114.55 164.307 117.317 161.015 119.288C157.777 121.259 154.158 122.246 150.151 122.246C146.144 122.246 142.826 121.399 139.862 119.701C136.955 118.003 134.761 115.841 133.279 113.213V121.509H125.789V60.7235H133.279V84.8706ZM163.894 98.8327C163.894 95.4368 163.207 92.4817 161.836 89.9617C160.465 87.4446 158.598 85.5276 156.238 84.2136C153.933 82.8996 151.382 82.2426 148.583 82.2426C145.785 82.2426 143.288 82.9281 140.928 84.2961C138.625 85.6101 136.759 87.5527 135.331 90.1267C133.96 92.6438 133.273 95.5762 133.273 98.9152C133.273 102.254 133.96 105.295 135.331 107.866C136.756 110.386 138.623 112.328 140.928 113.696C143.288 115.01 145.839 115.667 148.583 115.667C151.328 115.667 153.933 115.01 156.238 113.696C158.598 112.328 160.462 110.383 161.836 107.866C163.207 105.292 163.894 102.28 163.894 98.8327Z" fill="#1F1F1F"></path><path d="M95.2355 75.6726C98.7467 75.6726 101.873 76.4121 104.618 77.8911C107.359 79.316 109.528 81.4776 111.119 84.3787C112.709 87.2797 113.507 90.8122 113.507 94.9732V121.501H106.1V96.0398C106.1 91.5488 104.974 88.1273 102.725 85.7723C100.531 83.3633 97.5411 82.1573 93.7563 82.1573C89.9715 82.1573 86.7596 83.4173 84.4568 85.9344C82.1511 88.3975 80.9998 91.984 80.9998 96.694V121.498H73.5926V96.037C73.5926 91.546 72.4668 88.1245 70.2182 85.7695C68.0237 83.3604 65.034 82.1545 61.2464 82.1545C57.4588 82.1545 54.2496 83.4145 51.9468 85.9316C49.6412 88.3946 48.4898 91.9812 48.4898 96.6911V121.495H41V76.4946H48.4898V82.9822C49.9718 80.6272 51.9468 78.8211 54.4149 77.5611C56.94 76.3012 59.7102 75.6726 62.7284 75.6726C66.5132 75.6726 69.862 76.5202 72.7689 78.2182C75.6759 79.9161 77.8448 82.4076 79.2698 85.6927C80.5323 82.5157 82.6157 80.0527 85.5255 78.3006C88.4325 76.5486 91.6702 75.6726 95.2355 75.6726Z" fill="#1F1F1F"></path></g><defs><clipPath id="clip0_107_1082"><rect width="285" height="74" fill="white" transform="translate(41 59)"></rect></clipPath></defs></svg> 