<?xml version="1.0" encoding="UTF-8"?> <svg xmlns="http://www.w3.org/2000/svg" width="41" height="42" viewBox="0 0 41 42" fill="none"><g clip-path="url(#clip0_1010_1995)"><path d="M38.6272 40.7873H38.5497V40.9888H38.5125V40.7873H38.435V40.75H38.6272V40.7873ZM38.9218 40.9888H38.8846V40.7935L38.8164 40.9671H38.7729L38.7047 40.7966V40.9888H38.6675V40.75H38.7264L38.7946 40.9206L38.8629 40.75H38.9218V40.9888ZM2.75434 40.9888H2.23031V34.9795H2.75434V40.9888ZM6.74813 34.9795C7.24736 34.9795 7.69697 35.0508 8.10007 35.1904C8.50007 35.3299 8.84116 35.5314 9.12023 35.7919C9.4024 36.0524 9.61635 36.3686 9.76829 36.7376C9.92023 37.1097 9.99775 37.5252 9.99775 37.9841C9.99775 38.4462 9.92023 38.8617 9.76829 39.2307C9.61635 39.6028 9.4024 39.919 9.12023 40.1795C8.84116 40.44 8.50007 40.6384 8.10007 40.7779C7.69697 40.9206 7.24736 40.9888 6.74813 40.9888H4.55279V34.9795H6.74813ZM5.07682 35.4787V40.4927H6.74813C7.18534 40.4927 7.57294 40.4338 7.90472 40.3128C8.23961 40.195 8.52178 40.0276 8.75124 39.8105C8.98069 39.5904 9.15434 39.3299 9.27217 39.0198C9.38689 38.7097 9.44581 38.3655 9.44581 37.9841C9.44581 37.6059 9.38689 37.2586 9.27217 36.9516C9.15434 36.6415 8.98069 36.3779 8.75124 36.1578C8.52178 35.9407 8.23961 35.7702 7.90472 35.6555C7.57294 35.5376 7.18534 35.4787 6.74813 35.4787H5.07682ZM16.4257 34.9113C16.683 34.9113 16.9342 34.9392 17.1729 34.9981C17.4117 35.0539 17.6381 35.1376 17.8489 35.2431C18.0598 35.3516 18.2489 35.4818 18.4195 35.6338C18.59 35.7857 18.7357 35.9562 18.8567 36.1485L18.4195 36.44C18.314 36.2818 18.1931 36.1423 18.0505 36.0152C17.9078 35.888 17.7528 35.7826 17.5822 35.6927C17.4117 35.6059 17.2288 35.5345 17.0334 35.488C16.8381 35.4415 16.6334 35.4167 16.4257 35.4167C16.0691 35.4167 15.7373 35.4787 15.4272 35.6028C15.1202 35.7268 14.8536 35.9004 14.6241 36.1268C14.3977 36.3531 14.2179 36.6229 14.0877 36.9392C13.9574 37.2524 13.8923 37.6028 13.8923 37.9841C13.8923 38.3686 13.9574 38.719 14.0877 39.0322C14.2179 39.3485 14.3977 39.6183 14.6241 39.8446C14.8536 40.071 15.1202 40.2446 15.4272 40.3686C15.7373 40.4896 16.0691 40.5516 16.4257 40.5516C16.6334 40.5516 16.8381 40.5299 17.0303 40.4834C17.2257 40.4369 17.4086 40.3717 17.5791 40.2818C17.7497 40.1919 17.9047 40.0865 18.0474 39.9593C18.1869 39.8322 18.3109 39.6896 18.4132 39.5314L18.8443 39.8446C18.7171 40.0338 18.5683 40.2012 18.3977 40.35C18.2272 40.4989 18.0381 40.626 17.8303 40.7314C17.6257 40.8369 17.4024 40.9175 17.1636 40.9733C16.928 41.0291 16.6799 41.057 16.4257 41.057C15.9884 41.057 15.5822 40.9826 15.2039 40.8307C14.8288 40.6787 14.5032 40.4679 14.2272 40.1981C13.9543 39.9283 13.7373 39.6028 13.5822 39.2276C13.4272 38.8524 13.3497 38.4369 13.3497 37.9841C13.3497 37.5345 13.4272 37.1221 13.5822 36.7438C13.7373 36.3655 13.9543 36.0431 14.2272 35.7733C14.5032 35.5004 14.8288 35.2896 15.2039 35.1376C15.5822 34.9888 15.9884 34.9113 16.4257 34.9113ZM20.6365 37.6493C20.7171 37.519 20.8102 37.4043 20.9187 37.3051C21.0241 37.209 21.1419 37.1314 21.2691 37.0694C21.3931 37.0074 21.5264 36.9609 21.6629 36.9299C21.7993 36.902 21.9357 36.8865 22.0753 36.8865C22.3264 36.8865 22.5559 36.9237 22.7667 37.0012C22.9745 37.0756 23.1543 37.1841 23.3032 37.3237C23.4551 37.4632 23.5698 37.6338 23.6536 37.8384C23.7342 38.04 23.7745 38.2632 23.7745 38.5144V40.9888H23.2846V38.6632C23.2846 38.4617 23.2567 38.2756 23.1977 38.1144C23.1419 37.95 23.0582 37.8136 22.9466 37.6989C22.835 37.5873 22.6985 37.5004 22.5373 37.4415C22.3791 37.3795 22.1962 37.3485 21.9884 37.3485C21.7993 37.3485 21.6226 37.3826 21.4582 37.4446C21.2939 37.5097 21.1512 37.6028 21.0303 37.7206C20.9063 37.8384 20.8133 37.981 20.7419 38.1454C20.6706 38.3097 20.6365 38.4927 20.6365 38.688V40.9888H20.1466V34.809H20.6365V37.6493ZM26.9683 36.8865C27.2381 36.8865 27.4861 36.9361 27.7156 37.0384C27.9481 37.1407 28.1466 37.2803 28.314 37.4632C28.4815 37.6462 28.6148 37.8632 28.7109 38.1175C28.807 38.3686 28.8567 38.6446 28.8598 38.9454C28.8598 38.9826 28.8598 39.0198 28.8598 39.0508C28.8567 39.0849 28.8567 39.1159 28.8536 39.1469H25.4644C25.483 39.3826 25.5357 39.5904 25.6226 39.7733C25.7094 39.9593 25.8241 40.1144 25.9636 40.2415C26.1032 40.3686 26.2644 40.4648 26.4474 40.5299C26.6272 40.595 26.8226 40.6291 27.0272 40.6291C27.3125 40.6291 27.5636 40.5764 27.7869 40.4741C28.0102 40.3717 28.2117 40.2322 28.3946 40.0524L28.6551 40.3873C28.5249 40.5175 28.3946 40.626 28.2613 40.7097C28.128 40.7966 27.9915 40.8648 27.8551 40.9175C27.7156 40.9671 27.576 41.0043 27.4303 41.0229C27.2877 41.0446 27.145 41.0539 26.9993 41.0539C26.7047 41.0539 26.4319 41.0043 26.1838 40.902C25.9326 40.7997 25.7187 40.657 25.5388 40.4741C25.359 40.2911 25.2195 40.071 25.1171 39.8167C25.0179 39.5624 24.9683 39.2803 24.9683 38.9733C24.9683 38.6694 25.0179 38.3904 25.1202 38.133C25.2226 37.8756 25.3621 37.6555 25.5419 37.4725C25.7187 37.2865 25.9326 37.1438 26.1776 37.0415C26.4195 36.9392 26.6861 36.8865 26.9683 36.8865ZM26.959 37.3206C26.7543 37.3206 26.5652 37.3547 26.3946 37.426C26.2241 37.4942 26.0753 37.5935 25.945 37.7175C25.8179 37.8415 25.7125 37.9904 25.6319 38.1609C25.5481 38.3314 25.4985 38.5206 25.4737 38.7283H28.3636C28.345 38.5175 28.2985 38.3283 28.221 38.1547C28.1435 37.981 28.0443 37.8322 27.9202 37.7113C27.7931 37.5873 27.6505 37.4911 27.4861 37.4229C27.3249 37.3547 27.1481 37.3206 26.959 37.3206ZM31.8489 36.8865C32.1497 36.8865 32.4257 36.9392 32.683 37.0477C32.9404 37.1531 33.1574 37.3082 33.3373 37.5128L33.021 37.8446C32.8629 37.6865 32.6861 37.5624 32.4908 37.4756C32.2923 37.3888 32.0753 37.3454 31.8365 37.3454C31.6164 37.3454 31.4086 37.3857 31.2195 37.4663C31.0303 37.55 30.8629 37.6617 30.7233 37.8074C30.5838 37.95 30.4753 38.1237 30.3946 38.3221C30.3171 38.5206 30.2768 38.7376 30.2768 38.9733C30.2768 39.2059 30.3171 39.4229 30.3946 39.6214C30.4753 39.8229 30.5838 39.9935 30.7233 40.1361C30.8629 40.2787 31.0303 40.3904 31.2195 40.471C31.4086 40.5547 31.6164 40.595 31.8365 40.595C32.0753 40.595 32.2954 40.5485 32.497 40.4586C32.7016 40.3655 32.8784 40.2446 33.0334 40.0927L33.3373 40.4276C33.1543 40.6291 32.9342 40.7873 32.6799 40.8927C32.4257 41.0012 32.1497 41.0539 31.8489 41.0539C31.545 41.0539 31.266 41.0012 31.0148 40.8958C30.7605 40.7904 30.5435 40.6446 30.3574 40.4586C30.1745 40.2725 30.0319 40.0524 29.9326 39.7981C29.8303 39.5438 29.7807 39.271 29.7807 38.9733C29.7807 38.6756 29.8303 38.3997 29.9326 38.1423C30.0319 37.888 30.1745 37.6679 30.3574 37.4818C30.5435 37.2958 30.7605 37.15 31.0148 37.0446C31.266 36.9392 31.545 36.8865 31.8489 36.8865ZM34.9807 38.6539H35.6381L37.3373 36.9516H37.9574L36.0319 38.8555L37.9915 40.9888H37.3683L35.6381 39.0973H34.9807V40.9888H34.4908V34.809H34.9807V38.6539ZM7.31558 31.8818V29.8229C7.31558 29.0446 6.81945 28.5237 6.02255 28.5175C5.60395 28.5113 5.17294 28.6415 4.86906 29.1004C4.64271 28.7376 4.28612 28.5175 3.78379 28.5175C3.43341 28.5175 3.09232 28.6198 2.82255 29.0043V28.6012H2.10938V31.8818H2.82875V30.0617C2.82875 29.4911 3.14503 29.1904 3.63496 29.1904C4.10627 29.1904 4.34813 29.5004 4.34813 30.0555V31.8818H5.06751V30.0617C5.06751 29.4911 5.3993 29.1904 5.87062 29.1904C6.36054 29.1904 6.5931 29.5004 6.5931 30.0555V31.8818H7.31558ZM17.9853 28.6012H16.8164V27.6028H16.097V28.6012H15.4303V29.2524H16.097V30.75C16.097 31.5097 16.3915 31.9655 17.2381 31.9655C17.545 31.9655 17.9016 31.8694 18.128 31.7113L17.9233 31.1004C17.7094 31.2214 17.4768 31.2834 17.2908 31.2834C16.9342 31.2834 16.8164 31.0663 16.8164 30.7345V29.2524H17.9853V28.6012ZM24.0753 28.5175C23.6629 28.5175 23.3962 28.7097 23.2101 28.9981V28.6012H22.5032V31.8818H23.2164V30.0431C23.2164 29.5004 23.452 29.1966 23.9171 29.1966C24.0629 29.1966 24.2117 29.2183 24.3636 29.2803L24.5838 28.6074C24.4257 28.5454 24.221 28.5175 24.0753 28.5175ZM14.8691 28.8617C14.5249 28.6353 14.0505 28.5175 13.5295 28.5175C12.6985 28.5175 12.1621 28.9144 12.1621 29.5686C12.1621 30.1051 12.559 30.4338 13.2939 30.5361L13.6319 30.5857C14.0226 30.6384 14.2086 30.7407 14.2086 30.9268C14.2086 31.181 13.9481 31.3268 13.4613 31.3268C12.9652 31.3268 12.6086 31.1686 12.3667 30.9826L12.0319 31.5376C12.4226 31.826 12.9187 31.9655 13.452 31.9655C14.4008 31.9655 14.9497 31.519 14.9497 30.8927C14.9497 30.3159 14.5187 30.0152 13.8024 29.9097L13.4675 29.8632C13.1574 29.8229 12.9094 29.7609 12.9094 29.5407C12.9094 29.2989 13.145 29.1562 13.5357 29.1562C13.9543 29.1562 14.3605 29.3144 14.559 29.4384L14.8691 28.8617ZM33.9977 28.5175C33.5853 28.5175 33.3187 28.7097 33.1326 28.9981V28.6012H32.4257V31.8818H33.1388V30.0431C33.1388 29.5004 33.3745 29.1966 33.8396 29.1966C33.9853 29.1966 34.1342 29.2183 34.2861 29.2803L34.5063 28.6074C34.3481 28.5454 34.1435 28.5175 33.9977 28.5175ZM24.7977 30.2415C24.7977 31.2369 25.4892 31.9655 26.5466 31.9655C27.0427 31.9655 27.3714 31.8539 27.728 31.5717L27.3869 30.995C27.1171 31.1873 26.835 31.2927 26.528 31.2927C25.9574 31.2834 25.5388 30.8741 25.5388 30.2415C25.5388 29.609 25.9574 29.1966 26.528 29.1904C26.835 29.1904 27.1171 29.2927 27.3869 29.4849L27.728 28.9082C27.3714 28.626 27.0427 28.5175 26.5466 28.5175C25.4892 28.5175 24.7977 29.2462 24.7977 30.2415ZM31.4861 30.2415V28.6012H30.7698V28.9981C30.5435 28.7035 30.2024 28.5175 29.7342 28.5175C28.8133 28.5175 28.0939 29.2369 28.0939 30.2415C28.0939 31.2431 28.8133 31.9655 29.7342 31.9655C30.2024 31.9655 30.5435 31.7795 30.7698 31.4849V31.8818H31.4861V30.2415ZM28.8288 30.2415C28.8288 29.6648 29.2039 29.1904 29.8241 29.1904C30.4132 29.1904 30.8133 29.6431 30.8133 30.2415C30.8133 30.8369 30.4132 31.2927 29.8241 31.2927C29.2039 31.2927 28.8288 30.8183 28.8288 30.2415ZM20.2086 28.5175C19.2474 28.5175 18.5745 29.2183 18.5745 30.2415C18.5745 31.2834 19.2753 31.9655 20.2582 31.9655C20.7512 31.9655 21.207 31.8415 21.6039 31.5035L21.2536 30.9764C20.9776 31.1966 20.6272 31.3175 20.2985 31.3175C19.8396 31.3175 19.421 31.1066 19.3187 30.5144H21.7559C21.7621 30.4276 21.7683 30.3376 21.7683 30.2415C21.7621 29.2183 21.1295 28.5175 20.2086 28.5175ZM20.1962 29.1562C20.6551 29.1562 20.9528 29.4446 21.0272 29.9531H19.3249C19.3993 29.4787 19.6877 29.1562 20.1962 29.1562ZM38.1125 30.2415V27.2803H37.3962V28.9981C37.1698 28.7035 36.8288 28.5175 36.3605 28.5175C35.4396 28.5175 34.7202 29.2369 34.7202 30.2415C34.7202 31.2431 35.4396 31.9655 36.3605 31.9655C36.8288 31.9655 37.1698 31.7795 37.3962 31.4849V31.8818H38.1125V30.2415ZM35.4551 30.2415C35.4551 29.6648 35.8303 29.1904 36.4505 29.1904C37.0396 29.1904 37.4396 29.6431 37.4396 30.2415C37.4396 30.8369 37.0396 31.2927 36.4505 31.2927C35.8303 31.2927 35.4551 30.8183 35.4551 30.2415ZM11.3373 30.2415V28.6012H10.6241V28.9981C10.3977 28.7035 10.0536 28.5175 9.58844 28.5175C8.66751 28.5175 7.94503 29.2369 7.94503 30.2415C7.94503 31.2431 8.66751 31.9655 9.58844 31.9655C10.0536 31.9655 10.3977 31.7795 10.6241 31.4849V31.8818H11.3373V30.2415ZM8.67992 30.2415C8.67992 29.6648 9.05821 29.1904 9.67527 29.1904C10.2675 29.1904 10.6644 29.6431 10.6644 30.2415C10.6644 30.8369 10.2675 31.2927 9.67527 31.2927C9.05821 31.2927 8.67992 30.8183 8.67992 30.2415ZM39.3032 31.4074C39.3466 31.4074 39.39 31.4136 39.4303 31.4322C39.4706 31.4477 39.5078 31.4725 39.5357 31.5004C39.5667 31.5314 39.5915 31.5655 39.607 31.6059C39.6257 31.6462 39.635 31.6865 39.635 31.733C39.635 31.7764 39.6257 31.8198 39.607 31.8601C39.5915 31.8973 39.5667 31.9314 39.5357 31.9624C39.5078 31.9935 39.4706 32.0152 39.4303 32.0338C39.39 32.0493 39.3466 32.0586 39.3032 32.0586C39.2536 32.0586 39.2102 32.0493 39.1698 32.0338C39.1295 32.0152 39.0954 31.9935 39.0644 31.9624C39.0334 31.9314 39.0117 31.8973 38.9931 31.8601C38.9776 31.8198 38.9683 31.7764 38.9683 31.733C38.9683 31.6865 38.9776 31.6462 38.9931 31.6059C39.0117 31.5655 39.0334 31.5314 39.0644 31.5004C39.0954 31.4725 39.1295 31.4477 39.1698 31.4322C39.2102 31.4136 39.2536 31.4074 39.3032 31.4074ZM39.3032 31.9873C39.3373 31.9873 39.3714 31.981 39.3993 31.9655C39.4303 31.9531 39.4582 31.9345 39.4799 31.9128C39.5047 31.8911 39.5202 31.8632 39.5357 31.8322C39.5481 31.8012 39.5543 31.7671 39.5543 31.733C39.5543 31.6989 39.5481 31.6648 39.5357 31.6338C39.5202 31.6028 39.5047 31.5748 39.4799 31.5531C39.4582 31.5283 39.4303 31.5128 39.3993 31.4973C39.3714 31.4849 39.3373 31.4787 39.3032 31.4787C39.266 31.4787 39.2319 31.4849 39.2008 31.4973C39.1698 31.5128 39.1419 31.5283 39.1202 31.5531C39.0985 31.5748 39.0799 31.6028 39.0675 31.6338C39.052 31.6648 39.0458 31.6989 39.0458 31.733C39.0458 31.7671 39.052 31.8012 39.0675 31.8322C39.0799 31.8632 39.0985 31.8911 39.1202 31.9128C39.1419 31.9345 39.1698 31.9531 39.2008 31.9655C39.2319 31.981 39.266 31.9873 39.3032 31.9873ZM39.3218 31.581C39.359 31.581 39.39 31.5873 39.4117 31.6059C39.4334 31.6245 39.4427 31.6462 39.4427 31.6772C39.4427 31.702 39.4334 31.7237 39.4179 31.7392C39.3993 31.7547 39.3776 31.764 39.3466 31.7702L39.4458 31.8818H39.3683L39.2753 31.7702H39.2474V31.8818H39.1822V31.581H39.3218ZM39.2474 31.6369V31.7175H39.3218C39.3373 31.7175 39.3497 31.7144 39.3621 31.7082C39.3714 31.702 39.3776 31.6896 39.3776 31.6772C39.3776 31.6648 39.3714 31.6524 39.3621 31.6462C39.3497 31.64 39.3373 31.6369 39.3218 31.6369H39.2474Z" fill="black"></path><path d="M25.4454 23.0232H14.6299V3.58447H25.4454V23.0232Z" fill="#F26B35"></path><path d="M15.3156 13.3052C15.3156 9.36099 17.1637 5.84781 20.0381 3.58424C17.9358 1.92843 15.2815 0.942383 12.3978 0.942383C5.57297 0.942383 0.0380859 6.47727 0.0380859 13.3052C0.0380859 20.13 5.57297 25.6649 12.3978 25.6649C15.2815 25.6649 17.9358 24.6788 20.0381 23.023C17.1637 20.7594 15.3156 17.2463 15.3156 13.3052Z" fill="#E63237"></path><path d="M38.8594 20.964V20.5671H39.0206V20.4865H38.6113V20.5671H38.7726V20.964H38.8594ZM39.6532 20.964V20.4834H39.5261L39.3834 20.8152L39.2377 20.4834H39.1137V20.964H39.2036V20.6012L39.3369 20.9144H39.4299L39.5633 20.6012V20.964H39.6532Z" fill="black"></path><path d="M40.0381 13.3052C40.0381 20.13 34.5063 25.6649 27.6784 25.6649C24.7947 25.6649 22.1404 24.6788 20.0381 23.023C22.9125 20.7594 24.7606 17.2463 24.7606 13.3052C24.7606 9.36099 22.9125 5.84781 20.0381 3.58424C22.1404 1.92843 24.7947 0.942383 27.6784 0.942383C34.5063 0.942383 40.0381 6.47727 40.0381 13.3052Z" fill="#F9A132"></path></g><defs><clipPath id="clip0_1010_1995"><rect width="40" height="40.1151" fill="white" transform="translate(0.0380859 0.942383)"></rect></clipPath></defs></svg> 