<?xml version="1.0" encoding="UTF-8"?> <svg xmlns="http://www.w3.org/2000/svg" width="56" height="40" viewBox="0 0 56 40" fill="none"><path d="M31.7806 25.8706C32.3855 25.8706 32.8765 26.3616 32.8765 26.9665C32.8765 27.5714 32.3855 28.0624 31.7806 28.0624C31.1758 28.0624 30.6848 27.5714 30.6848 26.9665C30.6848 26.3616 31.1758 25.8706 31.7806 25.8706ZM54.812 0.57436C55.6694 0.416386 56.3428 1.26361 56.0325 2.05296C56.0321 2.05381 56.0321 2.05509 56.0316 2.05637L41.5658 38.4395C41.3098 39.0842 40.5217 39.3346 39.9395 38.9463L29.5885 32.0457L19.2379 38.9463C19.2349 38.9485 19.2315 38.9498 19.2285 38.9519C18.5636 39.3856 17.6647 38.9887 17.5462 38.1967L15.1938 22.4493L0.487941 12.6454C0.117198 12.398 -0.0668382 11.951 0.0221362 11.5139C0.111217 11.0773 0.456218 10.7382 0.894573 10.6561L54.7987 0.576836C54.8017 0.575981 54.8051 0.575554 54.8086 0.574699L54.812 0.57436ZM47.9439 4.08814L3.94471 12.3158L16.2752 20.5358L47.9439 4.08814ZM43.6014 8.81325L17.4053 22.4191L19.0166 33.2054L21.4212 25.6481C21.4229 25.6434 21.425 25.6395 21.4267 25.6348C21.4995 25.4165 21.6395 25.2294 21.8094 25.1023L43.6014 8.81325ZM20.6214 35.3898L27.6129 30.7285L23.0688 27.6989L20.6214 35.3898ZM40.0294 36.3719L52.561 4.85267L24.3642 25.9288C26.2172 27.1639 38.8422 35.5808 40.0294 36.3719ZM38.99 30.4104C39.4934 30.7465 39.6296 31.4267 39.294 31.9301C38.957 32.4361 38.276 32.5688 37.7743 32.2344L34.8397 30.2782C34.3359 29.9425 34.1997 29.2623 34.5354 28.7585C34.871 28.2551 35.5516 28.1193 36.055 28.4545L38.99 30.4104Z" fill="#F6F6F6"></path></svg> 