<?xml version="1.0" encoding="UTF-8"?> <svg xmlns="http://www.w3.org/2000/svg" width="56" height="56" viewBox="0 0 56 56" fill="none"><path d="M47.7991 8.20113C53.0876 13.4897 56.0001 20.5211 56.0001 28.0002C56.0001 35.4793 53.0876 42.5106 47.7991 47.7993C42.5106 53.0877 35.4791 56.0002 28 56.0002C20.521 56.0002 13.4896 53.0877 8.20099 47.7993C2.91254 42.5107 0 35.4793 0 28.0002C0 20.5211 2.91254 13.4897 8.20099 8.20113C13.4895 2.91268 20.521 0.000144958 28 0.000144958C35.4791 0.000144958 42.5105 2.91268 47.7991 8.20113ZM46.639 46.6391C51.6176 41.6604 54.3594 35.0411 54.3594 28.0002C54.3594 20.9593 51.6176 14.3399 46.639 9.36129C41.6603 4.38269 35.041 1.64084 28 1.64084C20.9591 1.64084 14.3398 4.3827 9.36113 9.36129C4.38254 14.34 1.64069 20.9593 1.64069 28.0002C1.64069 35.0411 4.38255 41.6605 9.36113 46.6391C14.3398 51.6177 20.9591 54.3596 28 54.3596C35.041 54.3596 41.6603 51.6177 46.639 46.6391ZM39.8839 24.5746C40.0219 24.8549 39.9888 25.1893 39.7983 25.4371L22.7286 47.6427C22.5688 47.8507 22.3259 47.9631 22.0778 47.9631C21.9496 47.9631 21.8199 47.933 21.6997 47.8704C21.3468 47.6869 21.1765 47.2766 21.2957 46.8971L26.5124 30.289H18.6591C18.3957 30.289 18.1482 30.1627 17.9939 29.949C17.8398 29.7354 17.7975 29.4607 17.8803 29.2108L23.8865 11.0836C23.9978 10.7479 24.3117 10.5213 24.6653 10.5213H35.8248C36.1072 10.5213 36.3698 10.6664 36.5197 10.9056C36.6698 11.1448 36.6864 11.4444 36.5634 11.6986L35.7527 13.3759C35.5557 13.7839 35.0651 13.9547 34.6573 13.7575C34.2492 13.5603 34.0785 13.0699 34.2756 12.662L34.5172 12.162H25.2576L19.7951 28.6484H27.6298C27.891 28.6484 28.1365 28.7728 28.2911 28.9834C28.4456 29.1939 28.4907 29.4655 28.4123 29.7146L24.247 42.9754L37.4828 25.7574H29.2536C28.9712 25.7574 28.7086 25.6122 28.5587 25.3731C28.4086 25.1338 28.392 24.8342 28.515 24.5801L32.763 15.791C32.9601 15.383 33.4504 15.212 33.8586 15.4094C34.2665 15.6065 34.4374 16.097 34.2401 16.505L30.5612 24.1167H39.148C39.4605 24.1167 39.7456 24.2943 39.8839 24.5746Z" fill="#F6F6F6"></path></svg> 