<?xml version="1.0" encoding="UTF-8"?> <svg xmlns="http://www.w3.org/2000/svg" width="368" height="192" viewBox="0 0 368 192" fill="none"><rect width="367.5" height="192" fill="#E9E9E6"></rect><g clip-path="url(#clip0_107_2947)"><path d="M333.004 78.4624C332.601 79.0759 331.972 79.6475 331.844 80.3119C331.605 81.5509 330.988 81.9579 329.81 81.916C328.393 81.8651 326.97 81.9339 325.55 81.907C324.623 81.892 323.972 81.5838 324.384 80.4496C324.885 79.0729 325.326 77.6664 325.914 76.3286C326.072 75.9665 326.654 75.5894 327.059 75.5715C329.037 75.4757 331.021 75.4967 333.004 75.4787V78.4624Z" fill="#12766C"></path><path d="M147.945 117.565C143.775 117.565 139.602 117.514 135.432 117.577C130.513 117.649 127.334 114.144 128.849 108.769C129.792 105.421 130.695 102.06 131.709 98.7319C132.363 96.5861 132.944 94.3686 133.97 92.3994C135.763 88.9578 138.564 86.6564 142.612 86.2793C144.034 86.1477 145.46 85.995 146.886 85.9861C152.15 85.9501 157.412 85.9172 162.677 86.004C164.38 86.0309 166.104 86.3093 167.771 86.6744C169.728 87.1053 171.434 90.496 171.124 93.1655C170.602 97.6934 168.407 101.228 164.702 103.852C162.411 105.474 159.703 105.708 157.09 105.813C152.383 106.007 147.661 105.854 142.946 105.834C141.32 105.828 141.046 105.334 141.576 103.855C142.104 102.38 142.513 100.863 142.913 99.3454C143.184 98.3129 143.587 97.8311 144.837 97.858C149.8 97.9658 154.766 97.9179 159.733 97.8999C161.003 97.894 162.244 97.7054 162.838 96.3437C163.073 95.8021 163.506 95.03 163.303 94.6858C163.011 94.186 162.238 93.9376 161.636 93.6623C161.388 93.5486 161.048 93.6413 160.75 93.6413C154.99 93.6413 149.23 93.6413 143.471 93.6413C141.323 93.6413 139.885 94.8743 139.327 96.9153C138.427 100.216 137.454 103.499 136.425 106.761C135.835 108.638 136.607 109.82 138.692 109.85C140.825 109.88 142.96 109.805 145.096 109.802C151.253 109.79 157.409 109.802 163.562 109.778C164.621 109.772 165.084 110.218 164.827 111.22C164.362 113.025 163.846 114.818 163.294 116.601C162.972 117.643 162.041 117.565 161.2 117.565C156.78 117.568 152.362 117.565 147.942 117.565H147.945Z" fill="#12766C"></path><path d="M219.825 109.85C223.103 109.85 226.378 109.859 229.656 109.844C231.064 109.838 232.296 109.44 232.991 108.075C233.492 107.088 233.25 106.286 232.197 105.938C231.467 105.696 230.658 105.579 229.889 105.591C225.978 105.651 222.05 106.052 218.169 105.771C215.613 105.585 212.759 104.978 211.646 102.012C211.246 100.95 211.085 99.6867 211.205 98.5554C211.694 93.9587 213.665 90.0592 217.716 87.7129C219.506 86.6745 221.796 86.1148 223.881 86.046C230.429 85.8365 236.988 85.9622 243.541 85.9682C245.065 85.9682 245.31 86.456 244.776 87.8895C244.281 89.2123 243.768 90.5799 243.615 91.9685C243.457 93.396 242.783 93.6594 241.563 93.6504C235.407 93.6145 229.25 93.6025 223.094 93.6444C222.143 93.6504 221.134 93.833 220.26 94.1921C219.258 94.6051 218.85 95.5448 219.076 96.6521C219.315 97.8192 220.296 97.8761 221.173 97.8821C225.492 97.921 229.814 97.9329 234.133 97.897C236.728 97.8731 238.765 98.9924 240.17 101.033C241.423 102.853 241.229 105.088 240.666 107.061C239.702 110.421 238.091 113.474 235.043 115.512C233.033 116.856 230.801 117.631 228.412 117.661C221.522 117.745 214.632 117.712 207.745 117.721C206.895 117.721 206.402 117.367 206.65 116.434C207.124 114.641 207.631 112.857 208.1 111.062C208.341 110.134 208.92 109.832 209.851 109.841C213.176 109.877 216.505 109.856 219.831 109.856V109.847L219.825 109.85Z" fill="#12766C"></path><path d="M182.268 117.556C178.644 117.556 175.02 117.535 171.396 117.568C170.155 117.58 169.806 117.125 170.164 115.928C170.683 114.195 171.014 112.4 171.62 110.7C171.769 110.278 172.667 109.889 173.225 109.886C179.679 109.829 186.131 109.871 192.586 109.823C193.49 109.817 194.531 109.667 195.249 109.194C195.873 108.781 196.38 107.836 196.445 107.085C196.478 106.71 195.455 105.983 194.826 105.87C193.791 105.678 192.687 105.87 191.61 105.87C188.383 105.879 185.138 106.07 181.934 105.801C180.091 105.645 178.11 105.056 176.553 104.083C174.191 102.605 174.137 99.929 174.597 97.508C175.357 93.5097 177.275 90.143 180.789 87.8176C182.811 86.4799 185.102 86.0639 187.381 86.019C193.883 85.8844 200.389 85.9652 206.894 85.9682C208.374 85.9682 208.564 86.3303 208.117 87.7907C207.649 89.32 207.246 90.8702 206.888 92.4294C206.644 93.5008 205.955 93.6534 205.012 93.6504C198.557 93.6264 192.103 93.6594 185.648 93.6145C184.112 93.6055 183.151 94.2998 182.429 95.5627C181.863 96.5533 182.224 97.2147 183.151 97.5618C183.781 97.7982 184.497 97.894 185.177 97.9C189.248 97.9239 193.323 97.8072 197.391 97.9359C200.09 98.0197 202.745 98.7589 203.744 101.617C204.269 103.119 204.311 104.96 204.013 106.543C203.377 109.91 201.898 113.04 199.017 115.006C197.257 116.206 195.067 117.179 192.98 117.406C189.448 117.795 185.842 117.514 182.265 117.514C182.265 117.529 182.265 117.544 182.265 117.559L182.268 117.556Z" fill="#12766C"></path><path d="M267.835 85.9711C269.821 85.9711 271.811 85.8813 273.791 85.998C275.396 86.0938 277.004 86.3751 278.582 86.7013C280.228 87.0424 281.135 88.2635 281.699 89.7568C282.689 92.3664 281.919 94.8983 281.224 97.3912C280.398 100.363 279.369 103.278 278.516 106.244C277.567 109.535 276.69 112.851 275.843 116.173C275.611 117.08 275.184 117.562 274.239 117.583C272.559 117.622 270.88 117.709 269.201 117.735C268.216 117.75 267.9 117.029 268.243 115.916C270.128 109.775 271.99 103.628 273.848 97.4809C274.045 96.8255 274.221 96.1522 274.292 95.4728C274.421 94.2758 273.657 93.6772 272.616 93.6653C267.9 93.6114 263.185 93.6204 258.469 93.6563C257.326 93.6653 255.838 95.1855 255.477 96.4275C254.493 99.8212 253.511 103.215 252.467 106.588C251.784 108.787 252.494 109.883 254.755 109.844C258.117 109.784 261.475 109.64 264.837 109.613C265.818 109.604 266.081 110.388 265.833 111.208C265.293 112.998 264.756 114.8 264.023 116.511C263.79 117.056 262.94 117.673 262.37 117.679C258.358 117.709 254.344 117.661 250.335 117.487C246.845 117.334 243.14 114.022 244.474 109.544C245.622 105.69 246.741 101.829 247.871 97.9687C248.145 97.032 248.476 96.1043 248.682 95.1526C249.413 91.7649 251.635 89.3708 254.385 87.7128C256.148 86.6504 258.442 86.2793 260.548 86.0369C262.949 85.7616 265.407 85.9741 267.838 85.9741L267.835 85.9711Z" fill="#12766C"></path><path d="M50.0392 79.7612C50.2928 80.1593 50.4359 80.3628 50.5582 80.5752C52.3688 83.7684 54.2211 86.9407 55.9481 90.1818C56.2643 90.7773 56.2404 91.6841 56.0823 92.3814C55.5603 94.6618 54.9161 96.9183 54.2957 99.1748C53.881 100.68 53.4277 102.173 52.9802 103.667C51.5754 108.35 50.1347 113.025 48.7656 117.717C47.6113 121.665 46.5375 125.636 45.4249 129.595C45.055 130.909 44.7836 132.262 44.2855 133.525C43.0596 136.64 39.3132 137.46 36.7659 135.237C34.7048 133.438 34.5587 131.708 35.7935 129.15C36.4855 127.716 36.6854 126.046 37.1089 124.481C38.4273 119.615 39.7159 114.74 41.073 109.886C42.7464 103.9 44.5002 97.9358 46.1795 91.9534C47.1877 88.3652 48.1094 84.756 49.1116 81.1678C49.2309 80.7428 49.6127 80.3927 50.0392 79.7612Z" fill="#12766C"></path><path d="M113.14 109.685C116.31 109.685 119.484 109.664 122.655 109.697C123.791 109.709 123.914 110.451 123.642 111.355C123.18 112.902 122.705 114.444 122.231 115.988C121.87 117.164 121.128 117.81 119.842 117.789C113.146 117.691 106.434 117.825 99.7561 117.424C96.4929 117.23 93.5012 114.111 94.4527 110.116C95.6219 105.214 97.2177 100.417 98.5987 95.5657C99.4966 92.4174 100.335 89.2511 101.209 86.0968C101.683 84.394 102.226 82.7061 102.646 80.9913C102.876 80.0546 103.338 79.6835 104.293 79.6745C105.769 79.6596 107.246 79.5189 108.719 79.4471C109.757 79.3962 110.238 79.9469 110.011 80.9225C109.593 82.7361 109.113 84.5376 108.588 86.3243C107.204 91.0348 105.787 95.7363 104.373 100.438C103.738 102.551 103.124 104.669 102.417 106.758C101.796 108.593 102.542 109.802 104.499 109.844C105.936 109.877 107.377 109.805 108.818 109.796C110.258 109.787 111.699 109.796 113.137 109.796C113.137 109.76 113.137 109.727 113.137 109.691L113.14 109.685Z" fill="#12766C"></path><path d="M305.657 93.6384C302.68 93.6384 299.704 93.6294 296.727 93.6414C295.047 93.6504 293.774 94.7008 293.308 96.3468C291.417 103.038 289.514 109.73 287.611 116.419C287.307 117.487 286.615 117.894 285.485 117.786C284.268 117.67 283.033 117.643 281.813 117.697C280.223 117.768 279.874 117.317 280.319 115.85C281.264 112.714 282.052 109.53 283.036 106.408C284.539 101.65 285.962 96.8495 287.796 92.2169C289.04 89.0715 291.763 87.1832 295.116 86.6056C297.481 86.1986 299.906 86.0549 302.31 85.9981C307.217 85.8813 312.127 85.9083 317.033 85.8574C318.021 85.8454 318.441 86.2135 318.131 87.2131C317.77 88.3802 317.403 89.5474 317.051 90.7175C316.792 91.5824 316.801 92.9112 316.243 93.2134C315.336 93.7072 314.069 93.6055 312.95 93.6264C310.519 93.6743 308.088 93.6414 305.657 93.6414V93.6384Z" fill="#12766C"></path><path d="M91.2123 69.7897C90.9021 71.2142 90.7261 72.2287 90.4576 73.2163C89.3421 77.3163 88.2027 81.4103 87.0603 85.5043C85.9686 89.4217 84.8709 93.3392 83.7583 97.2506C83.1469 99.3904 80.7815 101.147 78.6548 101.084C76.7727 101.03 74.0971 98.7948 73.9778 96.7388C73.8943 95.2814 74.4044 93.7581 74.804 92.3067C75.9584 88.1019 77.2022 83.9242 78.3923 79.7314C79.4602 75.9696 80.4087 72.1659 81.5958 68.443C82.6935 64.9984 87.5405 64.1605 89.8312 66.9885C90.5203 67.8385 90.8335 68.9936 91.2153 69.7957L91.2123 69.7897Z" fill="#12766C"></path><path d="M53.3722 59.5457C52.707 61.8381 52.0478 64.1335 51.3767 66.4229C50.5236 69.3378 49.6288 72.2437 48.8145 75.1675C47.9227 78.3637 47.1382 81.5928 46.2255 84.783C45.8914 85.9562 45.4052 87.1054 44.8504 88.1947C43.7378 90.3794 40.3971 90.547 38.9475 89.6491C36.6836 88.2486 35.3771 86.5278 36.3823 83.158C37.8946 78.0884 39.3174 72.9948 40.773 67.9103C41.7424 64.5226 42.7476 61.1468 43.6513 57.7411C44.412 54.8771 47.0964 54.3504 49.1337 54.6826C51.6243 55.0866 53.5005 56.9301 53.3752 59.5457H53.3722Z" fill="#12766C"></path><path d="M78.2166 60.4256C78.3687 65.4114 73.4322 70.4391 67.8097 70.044C62.724 69.6879 58.6347 65.7585 58.6406 60.3178C58.6466 55.0028 62.9567 50.7352 68.2392 50.8639C74.327 51.0165 77.9153 54.7843 78.2166 60.4226V60.4256Z" fill="#12766C"></path><path d="M69.3841 82.3889C72.3817 82.7002 74.8664 84.3521 73.5689 88.9728C71.9164 94.8714 70.2133 100.755 68.5369 106.645C68.3639 107.258 68.0865 107.869 68.0597 108.488C67.9523 110.816 66.3237 111.876 64.5102 112.606C62.5416 113.399 60.6923 112.798 59.186 111.367C58.142 110.377 57.9183 109.141 58.321 107.704C59.356 104.032 60.2806 100.33 61.2858 96.6491C62.2672 93.0638 63.2455 89.4756 64.3193 85.9173C64.9874 83.6997 67.0247 82.365 69.3841 82.3859V82.3889Z" fill="#12766C"></path><path d="M330.164 85.9292C329.914 87.0964 329.77 88.0121 329.517 88.895C327.351 96.4306 325.159 103.96 322.985 111.493C322.51 113.136 322.111 114.803 321.577 116.425C321.434 116.856 320.924 117.457 320.56 117.472C318.4 117.571 316.235 117.52 313.75 117.52C314.281 116.015 314.773 114.812 315.128 113.567C316.261 109.613 317.326 105.642 318.448 101.683C319.835 96.7897 321.231 91.8996 322.68 87.0245C322.809 86.5936 323.349 85.9951 323.721 85.9771C325.777 85.8754 327.844 85.9292 330.164 85.9292Z" fill="#12766C"></path><path d="M46.2274 142.527C44.56 142.587 43.7249 141.557 44.1902 139.914C45.0194 137.002 46.0186 134.141 46.8627 131.235C47.5607 128.838 48.0767 126.387 48.7807 123.99C49.7053 120.848 50.7523 117.738 51.7157 114.608C52.2466 112.881 52.7179 111.134 53.2041 109.392C53.8186 107.192 54.4211 104.99 55.0236 102.784C56.0169 99.1629 57.0012 95.5387 57.9974 91.9146C58.1794 91.2532 58.3047 90.5529 58.6178 89.9574C58.8654 89.4875 59.4411 88.7723 59.7334 88.8351C60.2464 88.9429 60.7416 89.4995 61.0727 89.9843C61.2486 90.2387 61.1353 90.7624 61.0279 91.1305C59.981 94.7547 58.8654 98.3578 57.8543 101.994C56.9117 105.388 56.0795 108.811 55.1906 112.22C54.8685 113.453 54.5255 114.683 54.1854 115.91C53.0073 120.16 51.847 124.412 50.6449 128.656C49.4965 132.702 48.3183 136.736 47.1133 140.764C46.9314 141.369 46.5406 141.91 46.2244 142.527H46.2274Z" fill="#12766C"></path><path d="M119.087 93.6384C116.802 93.6384 114.52 93.6503 112.235 93.6324C110.729 93.6204 110.535 93.2733 111.012 91.8188C111.472 90.4212 111.901 89.0117 112.268 87.5872C112.57 86.417 113.253 85.7646 114.449 85.7766C118.86 85.8245 123.269 85.9143 127.68 85.9681C129.816 85.9951 129.87 86.0639 129.252 88.1827C128.867 89.4995 128.557 90.8402 128.181 92.16C127.886 93.1985 127.164 93.6563 126.084 93.6444C123.752 93.6234 121.419 93.6384 119.087 93.6384Z" fill="#12766C"></path></g><defs><clipPath id="clip0_107_2947"><rect width="298" height="93" fill="white" transform="translate(35 50)"></rect></clipPath></defs></svg> 