<?xml version="1.0" encoding="UTF-8"?> <svg xmlns="http://www.w3.org/2000/svg" width="368" height="192" viewBox="0 0 368 192" fill="none"><rect width="367.5" height="192" fill="#E9E9E6"></rect><g clip-path="url(#clip0_107_2966)"><path d="M204.12 54.7331C204.45 54.1405 204.741 53.6865 204.969 53.2014C206.072 50.8593 207.699 48.8779 209.291 46.8724C210.275 45.6335 211.392 44.4794 212.214 43.1415C212.666 42.4046 213.312 41.8517 213.72 41.1134C214.14 40.3567 214.503 39.569 214.922 38.8123C215.102 38.4899 215.359 38.2113 215.623 37.8548C215.877 38.009 216.1 38.1236 216.301 38.2707C217.514 39.1617 218.704 40.0866 219.943 40.9423C220.502 41.3284 220.453 41.6607 220.115 42.1444C219.297 43.3154 218.499 44.502 217.712 45.6943C217.198 46.4722 216.657 47.2415 216.249 48.0731C216.059 48.4592 216.165 48.9868 216.12 49.4478C216.035 50.2964 215.692 50.9824 214.967 51.4957C214.479 51.8422 214.059 52.2906 213.634 52.7177C213.511 52.8407 213.412 53.043 213.404 53.2141C213.358 54.1772 212.915 54.8858 212.139 55.436C211.942 55.576 211.85 55.8588 211.689 56.0611C211.259 56.6014 210.82 57.1317 210.325 57.7399C210.388 57.8502 210.525 58.0934 210.737 58.4682C211.341 57.6847 211.908 56.9337 212.494 56.1969C213.524 54.9014 214.448 53.4913 215.634 52.357C216.869 51.1789 217.594 49.7038 218.543 48.3588C218.958 47.7719 219.491 47.2684 219.926 46.6942C220.82 45.5147 221.88 44.4243 222.069 42.72C222.366 42.9152 222.583 43.0326 222.77 43.1867C223.983 44.1923 225.175 45.2248 226.404 46.2105C226.883 46.5938 226.961 46.9488 226.515 47.3589C225.173 48.5908 224.832 50.377 223.98 51.8804C223.877 52.0629 223.805 52.2991 223.647 52.4108C222.428 53.2749 222.008 54.7175 221.156 55.8447C220.408 56.8361 219.751 57.8983 219.075 58.9448C218.869 59.2645 218.738 59.6322 218.525 60.0763C219.605 59.9349 220.022 59.1839 220.542 58.5856C221.34 57.6677 222.087 56.706 222.893 55.7952C224.182 54.3371 225.375 52.8167 226.315 51.1012C226.89 50.0532 227.573 49.0632 228.285 47.9204C229.122 48.834 229.936 49.6685 230.692 50.5552C235.301 55.9663 238.219 62.2288 239.921 69.0924C240.932 73.1698 241.475 77.3095 241.67 81.5099C241.9 86.4656 241.647 91.3874 240.948 96.2908C240.77 97.5424 240.976 98.7234 241.8 99.6794C243.387 101.526 243.342 103.272 242.023 105.314C240.219 108.106 239.505 111.326 239.103 114.6C238.528 119.284 238.724 123.967 239.5 128.598C240.216 132.879 238.945 136.533 236.573 139.96C233.87 143.866 230.488 147.129 226.889 150.178C221.365 154.86 215.39 158.91 209.255 162.732C209.04 162.866 208.812 162.979 208.466 163.17C208.432 162.754 208.384 162.444 208.384 162.136C208.38 150.716 208.389 139.294 208.377 127.873C208.373 122.906 208.345 117.938 208.286 112.971C208.276 112.197 208.554 111.808 209.222 111.456C216.483 107.632 223.726 103.771 230.979 99.9312C231.435 99.6893 231.703 99.439 231.688 98.862C231.573 94.3447 231.489 89.8274 231.394 85.3087C231.393 85.2182 231.367 85.1291 231.339 84.9523C230.885 85.1716 230.464 85.3568 230.06 85.5732C222.641 89.5545 214.857 92.6758 206.92 95.4351C204.367 96.3233 201.821 97.2369 199.257 98.0897C198.612 98.3047 198.568 98.7898 198.463 99.2862C197.583 103.498 197.614 107.701 198.653 111.882C199.304 114.507 199.976 117.128 200.677 119.74C200.817 120.263 200.745 120.6 200.348 120.979C197.965 123.252 195.615 125.561 193.229 127.832C192.83 128.213 192.806 128.629 192.806 129.107C192.81 140.316 192.808 151.525 192.808 162.734C192.808 162.993 192.818 163.253 192.801 163.511C192.741 164.423 192.132 165.004 191.253 164.999C190.373 164.993 189.802 164.406 189.763 163.471C189.657 160.931 187.491 158.818 185.152 159.049C183.303 159.231 182.155 160.422 181.39 162.002C180.611 163.608 180.644 163.625 178.892 163.302C178.731 163.272 178.567 163.246 178.408 163.21C177.104 162.914 177.061 162.849 177.063 161.524C177.066 160.238 176.715 159.059 175.94 158.025C174.908 156.652 173.209 156.152 171.594 156.748C170.358 157.203 169.409 158.012 168.724 159.141C168.177 160.043 167.917 160.126 166.935 159.732C166.434 159.53 165.939 159.31 165.439 159.104C164.816 158.848 164.682 158.414 164.751 157.746C164.856 156.753 165.003 155.7 164.787 154.751C164.16 151.983 161.61 150.808 159.058 152.054C158.317 152.417 157.656 152.99 157.041 153.558C156.525 154.035 156.079 154.174 155.49 153.751C155.032 153.421 154.543 153.136 154.084 152.807C153.3 152.247 153.24 152.025 153.637 151.153C154.125 150.076 154.356 148.955 154.159 147.784C153.733 145.218 151.559 143.869 148.948 144.599C148.218 144.804 147.528 145.208 146.87 145.606C146.067 146.091 145.847 146.115 145.155 145.457C144.762 145.085 144.381 144.701 144.011 144.305C143.412 143.665 143.386 143.36 143.916 142.642C144.682 141.602 145.084 140.458 145.069 139.158C145.043 137.038 143.648 135.504 141.526 135.311C140.428 135.212 139.373 135.359 138.371 135.859C137.536 136.276 137.271 136.192 136.723 135.412C136.425 134.989 136.142 134.555 135.862 134.119C135.327 133.289 135.424 133.084 136.05 132.338C136.675 131.594 137.313 130.79 137.659 129.902C138.63 127.408 137.132 124.942 134.474 124.587C133.63 124.473 132.746 124.567 131.891 124.669C131.014 124.773 130.736 124.697 130.385 123.903C130.148 123.366 129.955 122.809 129.722 122.269C129.46 121.667 129.662 121.274 130.159 120.878C130.886 120.298 131.675 119.724 132.204 118.98C133.937 116.538 132.911 113.609 130.048 112.728C129.32 112.504 128.526 112.466 127.758 112.424C126.833 112.373 126.614 112.238 126.424 111.318C126.307 110.742 126.227 110.158 126.105 109.584C125.967 108.93 126.261 108.599 126.841 108.339C127.542 108.024 128.262 107.684 128.856 107.209C131.294 105.257 131.096 102.041 128.42 100.433C127.714 100.009 126.862 99.7982 126.053 99.5804C125.263 99.3683 125.022 99.159 125.006 98.3387C124.996 97.821 125 97.302 125.005 96.7844C125.012 95.7859 125.226 95.5652 126.198 95.3842C126.703 95.2894 127.215 95.165 127.68 94.9543C129.19 94.2669 130.34 93.2415 130.511 91.4694C130.696 89.5488 129.69 88.2491 128.177 87.2718C127.748 86.9946 127.252 86.8121 126.776 86.6127C126.22 86.3794 125.968 86.0088 126.104 85.3922C126.22 84.8647 126.297 84.3286 126.402 83.7983C126.611 82.739 126.857 82.5325 127.919 82.5693C128.952 82.6046 129.926 82.4066 130.845 81.9243C133.046 80.766 133.745 78.2047 132.314 76.1625C131.788 75.4129 131.045 74.7864 130.315 74.2164C129.577 73.6408 129.447 73.4584 129.794 72.573C130 72.0469 130.219 71.5264 130.424 71.0003C130.682 70.3356 131.154 70.1192 131.831 70.3016C132.948 70.6043 134.057 70.6057 135.166 70.2451C137.377 69.5252 138.442 67.4943 137.76 65.2696C137.442 64.2343 136.877 63.3532 136.077 62.6206C135.376 61.9785 135.341 61.7211 135.837 60.9178C136.121 60.4581 136.422 60.007 136.735 59.5657C137.255 58.8317 137.521 58.7596 138.337 59.1146C139.343 59.5516 140.369 59.8161 141.483 59.6732C144.118 59.3366 145.593 57.2958 144.957 54.6864C144.757 53.8619 144.319 53.0798 143.895 52.3316C143.463 51.5693 143.424 51.2992 144.033 50.6528C144.436 50.2243 144.865 49.8212 145.285 49.4097C145.767 48.9345 146.238 48.9811 146.806 49.3234C147.503 49.7434 148.23 50.1903 149.006 50.3883C152.29 51.2284 154.791 48.8142 154.142 45.4751C154.031 44.9023 153.834 44.3408 153.617 43.7977C153.289 42.9774 153.338 42.7002 154.065 42.1854C154.487 41.887 154.918 41.5999 155.356 41.3241C156.184 40.8037 156.465 40.8319 157.124 41.5391C158.057 42.5376 159.181 43.2051 160.535 43.3734C162.849 43.6605 164.754 42.044 164.928 39.6298C164.985 38.8434 164.891 38.033 164.76 37.2524C164.648 36.5848 164.812 36.1478 165.434 35.8904C165.999 35.6556 166.561 35.418 167.13 35.196C167.912 34.8905 168.17 35.0121 168.652 35.7136C169.009 36.2327 169.388 36.7616 169.853 37.1788C172.578 39.6312 176.143 38.4602 176.899 34.8679C177.027 34.254 177.03 33.6091 177.042 32.9769C177.052 32.3985 177.272 32.035 177.857 31.919C178.478 31.796 179.096 31.6461 179.72 31.5372C180.542 31.3943 180.833 31.5556 181.116 32.3433C181.551 33.5554 182.259 34.5511 183.324 35.2851C184.872 36.3515 187.005 36.1535 188.291 34.7759C189.232 33.7675 189.843 32.6064 189.774 31.1582C189.733 30.2884 189.756 29.4157 189.77 28.5445C189.785 27.5715 190.348 26.9195 191.3 27.01C192.742 27.1472 194.203 27.3212 195.6 27.6917C200.756 29.0608 205.477 31.441 210.032 34.1692C211.302 34.9301 212.533 35.7574 213.788 36.5452C214.255 36.8394 214.326 37.0855 213.802 37.415C213.58 37.5536 213.436 37.8251 213.275 38.05C212.882 38.5959 212.501 39.1503 212.114 39.6991C212.007 39.8518 211.816 39.989 211.792 40.1517C211.595 41.5249 210.486 42.3254 209.797 43.3862C209.592 43.7001 209.382 44.0113 209.181 44.3281C208.013 46.1737 206.809 47.9982 205.698 49.8764C205.149 50.8013 204.714 51.8069 204.343 52.8181C204.146 53.3555 204.199 53.9835 204.121 54.7359L204.12 54.7331ZM189.763 97.4632C189.763 80.0857 189.763 62.7083 189.763 45.3308C189.763 45.1187 189.749 44.9065 189.766 44.6958C189.804 44.2192 189.668 44.0099 189.124 44.0891C188.358 44.2022 187.58 44.2206 186.807 44.2871C181.398 44.7481 176.202 46.0846 171.223 48.2259C167.527 49.8141 166.372 54.4304 168.807 57.5942C169.518 58.5163 169.449 58.959 168.46 59.5813C162.587 63.274 157.803 68.0543 154.128 73.9463C153.538 74.8939 153.063 74.9702 152.184 74.3013C148.975 71.8574 144.447 72.9478 142.816 76.6504C140.897 81.0022 139.689 85.5732 139.066 90.2871C138.507 94.5243 138.45 98.7757 138.88 103.036C139.418 108.369 140.716 113.508 142.848 118.42C144.436 122.079 149.026 123.167 152.169 120.713C153.047 120.027 153.542 120.098 154.117 121.021C157.769 126.899 162.532 131.665 168.373 135.361C169.489 136.066 169.542 136.406 168.746 137.489C166.403 140.68 167.57 145.162 171.199 146.75C172.596 147.361 174.037 147.886 175.483 148.369C179.786 149.809 184.225 150.569 188.743 150.905C189.741 150.98 189.766 150.962 189.766 149.949C189.766 132.454 189.766 114.959 189.766 97.4646L189.763 97.4632ZM154.77 65.6316C157.506 65.6387 159.701 63.4791 159.688 60.7919C159.676 58.1217 157.496 55.9182 154.847 55.9027C152.129 55.8857 149.924 58.0496 149.91 60.7481C149.896 63.4819 152.028 65.626 154.77 65.6331V65.6316ZM154.784 129.339C152.064 129.341 149.901 131.512 149.911 134.229C149.921 136.901 152.09 139.061 154.771 139.066C157.497 139.072 159.697 136.899 159.691 134.208C159.686 131.501 157.504 129.336 154.784 129.339Z" fill="black"></path></g><defs><clipPath id="clip0_107_2966"><rect width="118" height="138" fill="white" transform="translate(125 27)"></rect></clipPath></defs></svg> 