<?xml version="1.0" encoding="UTF-8"?> <svg xmlns="http://www.w3.org/2000/svg" width="57" height="40" viewBox="0 0 57 40" fill="none"><rect x="0.0380859" y="0.527344" width="56" height="38.9455" rx="4" fill="white"></rect><path d="M25.3711 26.286H22.1309L24.1576 13.7544H27.3977L25.3711 26.286Z" fill="#00579F"></path><path d="M37.1174 14.0609C36.4783 13.8073 35.4646 13.5273 34.2111 13.5273C31.0113 13.5273 28.7579 15.2337 28.7441 17.6732C28.7175 19.4731 30.3574 20.4729 31.5839 21.073C32.8376 21.6863 33.2637 22.0865 33.2637 22.6332C33.2509 23.4727 32.2507 23.8597 31.3178 23.8597C30.0241 23.8597 29.331 23.6602 28.2776 23.1931L27.8509 22.9929L27.3975 25.8059C28.1574 26.1522 29.5576 26.4594 31.0113 26.4729C34.4112 26.4729 36.6247 24.7929 36.6509 22.1932C36.6638 20.7666 35.7979 19.6735 33.931 18.7803C32.7977 18.2069 32.1036 17.8203 32.1036 17.2336C32.1169 16.7003 32.6907 16.154 33.97 16.154C35.0234 16.1273 35.7973 16.3805 36.3837 16.6338L36.6767 16.7669L37.1174 14.0609Z" fill="#00579F"></path><path d="M41.4244 21.8465C41.6912 21.1266 42.718 18.3403 42.718 18.3403C42.7046 18.367 42.9844 17.607 43.1444 17.1405L43.3708 18.2203C43.3708 18.2203 43.9844 21.22 44.1177 21.8465C43.6113 21.8465 42.0644 21.8465 41.4244 21.8465ZM45.4241 13.7544H42.9177C42.1448 13.7544 41.5576 13.9808 41.2242 14.7941L36.4111 26.2858H39.8111C39.8111 26.2858 40.3708 24.7391 40.4911 24.406C40.8641 24.406 44.1715 24.406 44.6514 24.406C44.7444 24.846 45.038 26.2858 45.038 26.2858H48.0382L45.4241 13.7544Z" fill="#00579F"></path><path d="M19.4248 13.7544L16.2515 22.2998L15.9047 20.5667C15.318 18.5669 13.4781 16.3942 11.4248 15.3138L14.3314 26.2727H17.7579L22.8511 13.7544H19.4248Z" fill="#00579F"></path><path d="M13.3047 13.7544H8.09142L8.03809 14.0076C12.1048 15.0475 14.7981 17.5542 15.9046 20.5672L14.7713 14.8078C14.5847 14.0074 14.0113 13.7808 13.3047 13.7544Z" fill="#FAA61A"></path></svg> 