<?xml version="1.0" encoding="UTF-8"?> <svg xmlns="http://www.w3.org/2000/svg" width="90" height="42" viewBox="0 0 90 42" fill="none"><path d="M56.6348 20.1016H58.7465L60.5693 24.7291H60.9541L62.4921 20.1016H64.9919L66.5409 24.7291H66.929L68.7618 20.1016H70.9568L68.3141 26.2806H65.1154L63.7504 21.7488L62.4014 26.2806H59.1951L56.6348 20.1016Z" fill="#1A171B"></path><path d="M74.209 24.2362H76.9449C76.9407 24.5403 77.0339 24.736 77.2237 24.8242C77.3598 24.8822 77.5354 24.915 77.7496 24.9259C77.9646 24.936 78.6425 24.9452 79.7841 24.9511C80.9802 24.9477 81.6967 24.941 81.937 24.9334C82.1781 24.9267 82.3687 24.9032 82.509 24.8637C82.7173 24.8074 82.8207 24.6512 82.8207 24.3975C82.8207 24.2127 82.7476 24.0901 82.5997 24.0296C82.4527 23.9683 82.152 23.9338 81.7001 23.9263C81.3515 23.9263 80.614 23.9086 79.4867 23.8734C78.3317 23.8372 77.5791 23.8154 77.2305 23.8112C76.5517 23.7944 76.0309 23.7524 75.6647 23.681C75.301 23.6088 75.0154 23.4945 74.8129 23.3349C74.4643 23.0703 74.2905 22.6251 74.2905 22.0035C74.2905 21.3063 74.4887 20.8141 74.8869 20.5285C75.1901 20.3042 75.6571 20.1606 76.2855 20.1001C76.9138 20.0388 78.1939 20.0068 80.1234 20.0068C81.4867 20.0068 82.4427 20.0329 82.9954 20.0841C83.8471 20.1631 84.4301 20.321 84.7485 20.5579C85.0651 20.7948 85.2222 21.1921 85.2222 21.754C85.2222 21.8053 85.2205 21.9027 85.2163 22.0447H82.4779C82.4695 21.8725 82.4477 21.754 82.4141 21.6927C82.3797 21.628 82.3133 21.5768 82.2133 21.5365C82.0915 21.4886 81.8757 21.4575 81.5682 21.4432C81.2608 21.429 80.6089 21.4248 79.6127 21.4248C78.4123 21.4248 77.6824 21.4491 77.4186 21.4995C77.1557 21.5482 77.0263 21.6894 77.0263 21.9145C77.0263 22.1312 77.1557 22.2631 77.4186 22.3118C77.6362 22.3513 78.6341 22.3891 80.4149 22.4244C81.9126 22.4563 82.9139 22.4924 83.4196 22.5319C83.9236 22.5722 84.3268 22.6495 84.6258 22.7646C84.966 22.8998 85.2054 23.088 85.3449 23.3232C85.486 23.56 85.5557 23.9011 85.5557 24.3454C85.5557 24.9284 85.4389 25.3602 85.2037 25.6441C85.0273 25.8532 84.7821 26.0078 84.4662 26.1103C84.1512 26.2136 83.7094 26.2825 83.139 26.3194C82.5267 26.3556 81.3893 26.374 79.7227 26.374C78.3283 26.374 77.2968 26.3497 76.6332 26.301C75.9679 26.2514 75.4673 26.1674 75.1321 26.0431C74.7819 25.9095 74.5425 25.7348 74.4089 25.5164C74.2753 25.3005 74.209 24.9696 74.209 24.5252V24.2362Z" fill="#1A171B"></path><path d="M57.125 33.4764V27.2974H61.3586C62.1978 27.2974 62.737 27.3142 62.9798 27.3486C63.5913 27.4301 64.0063 27.6258 64.2222 27.9383C64.4372 28.2508 64.5464 28.8094 64.5464 29.6124C64.5464 30.376 64.4565 30.911 64.2793 31.2193C64.1575 31.4276 63.9895 31.5864 63.7719 31.6931C63.5527 31.804 63.2578 31.8779 62.8798 31.9207C62.611 31.951 62.1096 31.9652 61.3762 31.9652H59.0083V33.4772L57.125 33.4764ZM59.0091 30.4205H61.3628C61.7912 30.418 62.0533 30.4121 62.1482 30.4028C62.2431 30.3944 62.3288 30.3692 62.4044 30.3306C62.4993 30.2794 62.5674 30.2029 62.6026 30.0979C62.6388 29.9921 62.6564 29.83 62.6564 29.6116C62.6564 29.3898 62.6346 29.2285 62.5892 29.1269C62.5438 29.0236 62.4649 28.9505 62.3506 28.9034C62.265 28.8715 61.9374 28.8505 61.3628 28.8413H59.0091V30.4205Z" fill="#FFD200"></path><path d="M73.9572 33.4764L73.4297 32.4323H69.3398L68.8106 33.4764H66.6602L69.9387 27.2974H72.8619L76.0925 33.4764H73.9572ZM72.7678 31.0782L71.5758 28.738H71.2012L70.0109 31.0782H72.7678Z" fill="#FFD200"></path><path d="M77.1094 27.2964H79.5857L81.6 29.7727L83.5295 27.2964H85.9823L82.6013 31.2906V33.4763H80.6542V31.2906L77.1094 27.2964Z" fill="#FFD200"></path><path d="M85.6592 34.7178L85.5215 35.4049L56.7305 35.8241C56.7305 37.3772 57.9913 38.6397 59.5461 38.6397H83.324C84.8789 38.6397 86.1414 37.3772 86.1414 35.8241V35.1966L85.6592 34.7178Z" fill="#4C504D"></path><path d="M83.324 15.1785H82.9309C82.7461 8.88608 77.6759 3.83936 71.4347 3.83936C65.1926 3.83936 60.1241 8.88608 59.9384 15.1785H59.5462C57.9896 15.1785 56.25 16.5855 56.25 18.1412L56.7305 18.6192H60.3408H63.7882H79.0804H82.5286H86.1389V17.9934C86.1397 16.4394 84.8789 15.1785 83.324 15.1785ZM63.2237 15.1785C63.4068 10.708 67.0154 7.12376 71.4355 7.12376C75.8564 7.12376 79.4642 10.708 79.6465 15.1785H63.2237Z" fill="#4C504D"></path><path d="M56.248 34.7178V35.3427C56.248 36.8993 57.5106 38.1593 59.0654 38.1593H82.8441C84.399 38.1593 85.659 36.8993 85.659 35.3427V34.7178H56.248Z" fill="#858C8B"></path><path d="M82.8444 14.699H82.4521C82.2673 8.40658 77.1954 3.35986 70.9542 3.35986C64.7147 3.35986 59.6444 8.40658 59.4596 14.699H59.0665C57.5117 14.699 56.25 15.9599 56.25 17.5147V18.1422H59.8603H63.3085H78.6007H82.0472H85.6592V17.5147C85.6601 15.9599 84.4009 14.699 82.8444 14.699ZM62.744 14.699C62.9272 10.2269 66.535 6.6451 70.9542 6.6451C75.3768 6.6451 78.9838 10.2269 79.166 14.699H62.744Z" fill="#858C8B"></path><path d="M3.93848 18.5H4.43912L5.84024 22.2052H5.98388L7.34384 18.5H7.91756L9.22796 22.2052H9.36488L10.803 18.5H11.3086L9.674 22.6723H8.89532L7.63616 19.1048L6.3182 22.6723H5.52776L3.93848 18.5Z" fill="#1A171B"></path><path d="M12.1367 22.6723V18.5H15.532V18.9889H12.5987V20.2648H15.4085V20.7529H12.5987V22.1842H15.5354V22.6723H12.1367Z" fill="#1A171B"></path><path d="M16.4404 22.6723V18.5H18.7395C19.1595 18.5059 19.4216 18.5168 19.5258 18.5286C19.8542 18.5588 20.081 18.715 20.2061 18.9889C20.2708 19.1317 20.3019 19.324 20.3019 19.571C20.3019 19.8415 20.2708 20.0431 20.2078 20.175C20.1457 20.3085 20.0331 20.4076 19.8743 20.4774C20.0801 20.5185 20.2255 20.616 20.3111 20.7646C20.3968 20.9175 20.4388 21.1586 20.4388 21.4862C20.4388 21.9012 20.3758 22.191 20.249 22.348C20.1751 22.4404 20.081 22.5068 19.9693 22.548C19.8559 22.5933 19.6887 22.6252 19.4644 22.6429C19.2738 22.6622 19.0318 22.6706 18.7395 22.6706H16.4404V22.6723ZM16.9024 20.2926H18.7403C19.0478 20.2926 19.2586 20.285 19.3712 20.2732C19.4846 20.2573 19.5736 20.2321 19.6349 20.1876C19.766 20.0977 19.8307 19.9154 19.8307 19.6416C19.8307 19.3786 19.7853 19.2039 19.6954 19.1216C19.6383 19.0687 19.5661 19.0351 19.4795 19.0233C19.393 19.0116 19.1469 19.0015 18.7395 18.9897H16.9016L16.9024 20.2926ZM16.9024 22.1842H18.7403C19.1015 22.1842 19.3569 22.1716 19.5064 22.1481C19.6559 22.1263 19.7652 22.0809 19.8349 22.0129C19.9231 21.923 19.9684 21.7458 19.9684 21.4786C19.9684 21.1922 19.9197 21.0074 19.8197 20.9217C19.75 20.8587 19.6694 20.8226 19.5795 20.8108C19.4888 20.7982 19.2091 20.789 18.7403 20.7806H16.9024V22.1842Z" fill="#1A171B"></path><path d="M22.9448 21.3679H23.3942C23.3942 21.4141 23.395 21.4461 23.3975 21.4578C23.3992 21.6947 23.4152 21.8509 23.4379 21.9299C23.4622 22.0089 23.5151 22.0702 23.5991 22.1147C23.7285 22.1836 24.1477 22.2163 24.8608 22.2163C25.3749 22.2163 25.747 22.1844 25.9713 22.1239C26.1922 22.0651 26.3031 21.8568 26.3031 21.504C26.3031 21.3243 26.2855 21.189 26.2502 21.0983C26.2149 21.0093 26.1536 20.9429 26.0679 20.9059C25.9822 20.869 25.8604 20.848 25.705 20.8429C25.5496 20.8354 25.0439 20.832 24.1888 20.832C23.9015 20.832 23.6714 20.8018 23.4992 20.7371C23.327 20.6724 23.1934 20.5699 23.1002 20.4297C22.991 20.2625 22.9355 20.0105 22.9355 19.6703C22.9355 19.294 23.0229 19.0193 23.1976 18.8505C23.2816 18.7648 23.3749 18.7018 23.4782 18.6581C23.5815 18.6161 23.7268 18.5833 23.9133 18.5556C24.2182 18.5128 24.5819 18.4893 25.0045 18.4893C25.3951 18.4893 25.6966 18.5128 25.9108 18.5598C26.1233 18.6085 26.2897 18.69 26.4073 18.8059C26.5055 18.9025 26.5736 19.0143 26.6089 19.1419C26.6458 19.2713 26.6651 19.4687 26.6693 19.7367H26.2073C26.2073 19.7031 26.2073 19.6821 26.2073 19.6711C26.2073 19.4687 26.1889 19.3309 26.1502 19.2612C26.0973 19.1537 25.9797 19.0756 25.7983 19.0302C25.6151 18.9823 25.3438 18.9613 24.9843 18.9613C24.5349 18.9613 24.1989 18.9807 23.9746 19.0218C23.7503 19.063 23.5991 19.1293 23.5193 19.2226C23.4446 19.3125 23.4068 19.4611 23.4068 19.6695C23.4068 19.8559 23.4253 19.9895 23.4631 20.0693C23.4992 20.1499 23.5723 20.2087 23.6798 20.2491C23.8377 20.3104 24.1409 20.3431 24.5887 20.3482C24.7415 20.3515 25.1179 20.3515 25.7176 20.3524C25.9663 20.3557 26.1578 20.3835 26.2905 20.4389C26.4224 20.4918 26.5316 20.5893 26.6173 20.7245C26.7214 20.8942 26.7743 21.1403 26.7743 21.4587C26.7743 21.7594 26.7307 22.0005 26.645 22.1743C26.5417 22.3793 26.3501 22.5179 26.0704 22.5843C25.7899 22.6565 25.2867 22.6901 24.5618 22.6901C24.1779 22.6901 23.8948 22.6741 23.7125 22.6489C23.5303 22.6212 23.3866 22.5708 23.2799 22.4969C23.1514 22.4104 23.0632 22.2961 23.0137 22.1643C22.9649 22.029 22.9397 21.8257 22.9397 21.5544C22.9423 21.5418 22.9431 21.4797 22.9448 21.3679Z" fill="#1A171B"></path><path d="M27.7295 22.6723V18.5H31.1248V18.9889H28.1915V20.2648H31.0004V20.7529H28.1915V22.1842H31.1273V22.6723H27.7295Z" fill="#1A171B"></path><path d="M35.5342 21.2461H35.9828C35.9702 21.6258 35.9526 21.8854 35.9274 22.0282C35.8719 22.3373 35.7006 22.5305 35.4124 22.6027C35.1781 22.6573 34.7631 22.6867 34.1659 22.6867C33.3906 22.6867 32.8672 22.6565 32.5951 22.5885C32.3347 22.5255 32.1616 22.3608 32.0709 22.0962C31.9819 21.8333 31.9365 21.352 31.9365 20.6523C31.9365 19.9878 31.971 19.5031 32.039 19.1999C32.1196 18.8429 32.3288 18.6337 32.6665 18.5766C32.9899 18.5178 33.467 18.4893 34.0953 18.4893C34.6934 18.4893 35.1226 18.5229 35.3822 18.5951C35.5107 18.6295 35.6216 18.6984 35.7157 18.8001C35.8089 18.9 35.8694 19.0176 35.8946 19.1487C35.9181 19.2721 35.9332 19.5174 35.9374 19.8803H35.509C35.5074 19.8089 35.5057 19.7602 35.5057 19.7367C35.5057 19.5359 35.4906 19.3948 35.4586 19.3091C35.4267 19.2234 35.3637 19.1604 35.2713 19.1159C35.0991 19.0336 34.701 18.9899 34.0726 18.9899C33.6174 18.9899 33.2763 19.0059 33.0478 19.0344C32.8185 19.0647 32.6698 19.1125 32.601 19.1781C32.5354 19.2411 32.4859 19.3755 32.4548 19.5804C32.4237 19.7854 32.4078 20.0685 32.4078 20.4305C32.4078 20.6019 32.4136 20.8211 32.4254 21.0949C32.4372 21.3654 32.4498 21.5511 32.4607 21.6535C32.4792 21.8131 32.522 21.9316 32.5884 22.0047C32.6556 22.0752 32.7606 22.1214 32.9034 22.1357C33.1663 22.1701 33.5409 22.1861 34.029 22.1861C34.1768 22.1861 34.3725 22.1785 34.6136 22.1685C34.8547 22.1575 35.0084 22.1458 35.0739 22.1357C35.2024 22.1172 35.2982 22.0861 35.3612 22.0433C35.425 22.0021 35.467 21.9391 35.4906 21.8543C35.5124 21.7821 35.5267 21.5779 35.5342 21.2461Z" fill="#1A171B"></path><path d="M36.8916 18.5H37.3528V20.5513C37.3528 21.1578 37.3578 21.5198 37.3696 21.6458C37.3822 21.8054 37.4208 21.9205 37.483 21.991C37.546 22.0641 37.6493 22.1103 37.7938 22.1313C38.034 22.1666 38.3809 22.1842 38.8328 22.1842C39.4519 22.1842 39.8786 22.1632 40.1113 22.1154C40.2516 22.091 40.349 22.0398 40.4045 21.9625C40.4624 21.8852 40.4944 21.7609 40.5028 21.5887C40.5112 21.4324 40.517 21.0855 40.5212 20.5521V18.5008H40.9824V20.5521C40.979 21.109 40.9706 21.4921 40.958 21.7046C40.927 22.0692 40.8161 22.3195 40.6254 22.4623C40.507 22.5496 40.3633 22.6026 40.1945 22.6227C40.0248 22.6471 39.6073 22.6672 38.9429 22.6849C38.3582 22.6723 38.0088 22.6672 37.8954 22.6597C37.7795 22.6513 37.6526 22.632 37.5166 22.5984C37.2872 22.537 37.1209 22.3842 37.0134 22.1313C36.963 22.0087 36.9311 21.8634 36.9185 21.6945C36.9059 21.524 36.8975 21.1426 36.8933 20.5513V18.5H36.8916Z" fill="#1A171B"></path><path d="M42.0283 22.6723V18.5H44.1871C44.7726 18.5059 45.1464 18.5252 45.3094 18.5512C45.595 18.5966 45.7932 18.752 45.9032 19.0183C45.9755 19.1947 46.0116 19.4442 46.0116 19.7608C46.0116 19.9994 46.0007 20.1842 45.978 20.3094C45.9562 20.4337 45.9175 20.5353 45.8621 20.6084C45.7722 20.7294 45.6328 20.815 45.4404 20.8638C45.5899 20.8932 45.7084 20.9629 45.7966 21.0721C45.8621 21.1586 45.9049 21.2586 45.9226 21.377C45.941 21.4954 45.9503 21.729 45.9503 22.0809V22.6723H45.4883V22.2733C45.4883 21.9306 45.4832 21.6954 45.4706 21.5652C45.4362 21.3022 45.3127 21.146 45.0977 21.104C45.0128 21.088 44.9364 21.0805 44.87 21.0754C44.802 21.0729 44.5752 21.0712 44.1854 21.0679H42.4878V22.6714L42.0283 22.6723ZM42.4895 20.5773H44.1871C44.6365 20.5773 44.9255 20.5723 45.0532 20.5563C45.18 20.5404 45.2833 20.5026 45.3623 20.4412C45.4824 20.348 45.5395 20.117 45.5395 19.7491C45.5395 19.4358 45.4849 19.2308 45.3749 19.1367C45.3035 19.0754 45.1926 19.0351 45.0406 19.0174C44.8885 18.9981 44.6046 18.9889 44.1863 18.9889H42.4886L42.4895 20.5773Z" fill="#1A171B"></path><path d="M47.002 22.6723V18.5H50.3964V18.9889H47.464V20.2648H50.2738V20.7529H47.464V22.1842H50.3998V22.6723H47.002Z" fill="#1A171B"></path><path d="M18.5137 28.5691V24.3691H20.7052C21.2806 24.3851 21.6284 24.3985 21.746 24.4187C21.856 24.438 21.9577 24.4842 22.0492 24.5615C22.1425 24.6371 22.2114 24.7337 22.2559 24.8496C22.3315 25.0336 22.3676 25.3057 22.3676 25.6703C22.3676 25.9525 22.3483 26.1751 22.3071 26.3389C22.2685 26.5027 22.2021 26.6304 22.1114 26.7245C22.0182 26.8194 21.9216 26.8849 21.8216 26.9202C21.72 26.953 21.5637 26.974 21.3529 26.9824C21.2764 26.9832 21.0606 26.9874 20.7052 26.9899H18.9748V28.57L18.5137 28.5691ZM18.9748 26.4943H20.7052C21.1294 26.4943 21.3915 26.4851 21.4948 26.47C21.5973 26.4574 21.6847 26.4154 21.7552 26.3457C21.8073 26.2902 21.8443 26.2188 21.8653 26.1214C21.8846 26.0265 21.8955 25.882 21.8955 25.6863C21.8955 25.4687 21.8863 25.3175 21.8686 25.2259C21.851 25.1327 21.8157 25.063 21.7636 25.0159C21.6956 24.9555 21.6116 24.9143 21.5083 24.8983C21.4058 24.8849 21.1387 24.8731 20.7044 24.8597H18.974L18.9748 26.4943Z" fill="#1A171B"></path><path d="M26.4193 28.5691L26.0085 27.6838H23.2071L22.793 28.5691H22.2705L24.2344 24.3691H24.9728L26.9325 28.5691H26.4193ZM25.7867 27.1907L24.709 24.8605H24.5234L23.4297 27.1907H25.7867Z" fill="#1A171B"></path><path d="M26.3545 24.3691H26.9786L28.6511 26.3835L30.2706 24.3691H30.9149L28.8829 26.8539V28.5691H28.4209V26.8539L26.3545 24.3691Z" fill="#1A171B"></path><path d="M31.375 24.3691H32.2982L34.1789 27.9291L36.0294 24.3691H36.9576V28.5691H36.4956V24.8899H36.3033L34.3696 28.5691H33.9933L32.0386 24.8899H31.8362V28.5691H31.375V24.3691Z" fill="#1A171B"></path><path d="M37.6592 28.5691V24.3691H41.0536V24.8605H38.1187V26.1449H40.9293V26.6371H38.1187V28.0769H41.0553V28.5691H37.6592Z" fill="#1A171B"></path><path d="M41.5926 24.3691H42.3621L45.3962 28.0525H45.5028V24.3691H45.964V28.5691H45.1828L42.1554 24.895H42.053V28.5691H41.5918L41.5926 24.3691Z" fill="#1A171B"></path><path d="M46.4618 24.3691H50.3989V24.8605H48.6651V28.5691H48.2031V24.8605H46.4609L46.4618 24.3691Z" fill="#1A171B"></path><path d="M20.0082 32.3217H22.2804C22.277 32.9693 22.2602 33.3901 22.2274 33.5833C22.1913 33.7975 22.1359 33.958 22.0594 34.0647C21.9847 34.1739 21.8671 34.2595 21.7092 34.3225C21.4958 34.4091 21.017 34.4494 20.2702 34.4494C19.5688 34.4494 19.0724 34.4208 18.7809 34.3662C18.5281 34.3167 18.3441 34.1856 18.2316 33.9681C18.1039 33.7261 18.04 33.186 18.04 32.3527C18.04 31.7748 18.0745 31.3229 18.145 30.9987C18.2106 30.6929 18.3668 30.4905 18.6146 30.3922C18.8632 30.2973 19.3496 30.2485 20.0754 30.2485C20.3139 30.2485 20.581 30.2578 20.8784 30.2695C21.1758 30.2863 21.3782 30.3048 21.4866 30.3216C21.7083 30.3603 21.8889 30.4611 22.0275 30.6307C22.1098 30.7366 22.1678 30.855 22.2022 30.9919C22.2358 31.1297 22.2543 31.3229 22.2585 31.5699H21.7806C21.7755 31.2456 21.7386 31.0432 21.6688 30.9583C21.6226 30.9046 21.558 30.8668 21.4756 30.8416C21.3916 30.8181 21.2606 30.7971 21.0792 30.7811C20.8305 30.7609 20.5214 30.7517 20.1535 30.7517C19.6671 30.7517 19.3177 30.7651 19.1043 30.7971C18.891 30.8265 18.7507 30.8811 18.6801 30.9609C18.6171 31.0348 18.5726 31.1667 18.5482 31.359C18.523 31.5489 18.5113 31.8555 18.5113 32.2738C18.5113 32.9013 18.5323 33.3112 18.5751 33.5052C18.6012 33.6237 18.644 33.7068 18.7011 33.7648C18.7599 33.8211 18.8456 33.8614 18.9598 33.8832C19.1866 33.9277 19.6822 33.9479 20.4475 33.9479C20.87 33.9479 21.1825 33.9277 21.3841 33.8841C21.5664 33.8471 21.6823 33.769 21.7327 33.6455C21.7822 33.5229 21.8108 33.244 21.8158 32.8131H20.0082V32.3217Z" fill="#1A171B"></path><path d="M26.6768 34.4398L26.2644 33.5586H23.463L23.0497 34.4398H22.5264L24.4911 30.2642H25.2295L27.19 34.4398H26.6768ZM26.0451 33.0698L24.9649 30.753H24.7792L23.6856 33.0698H26.0451Z" fill="#1A171B"></path><path d="M26.7295 30.2642H30.6649V30.753H28.932V34.4398H28.4708V30.753H26.7303V30.2642H26.7295Z" fill="#1A171B"></path><path d="M31.1357 34.4398V30.2642H34.5319V30.753H31.5969V32.029H34.4067V32.5204H31.5969V33.9484H34.5327V34.4398H31.1357Z" fill="#1A171B"></path><path d="M34.8662 30.2642H35.366L36.7671 33.9694H36.9108L38.2716 30.2642H38.8453L40.1549 33.9694H40.2918L41.7299 30.2642H42.2364L40.6009 34.4398H39.8214L38.5631 30.8715L37.2451 34.4398H36.4547L34.8662 30.2642Z" fill="#1A171B"></path><path d="M45.9281 34.4398L45.5181 33.5586H42.7159L42.3035 34.4398H41.7793L43.7432 30.2642H44.4824L46.4421 34.4398H45.9281ZM45.2972 33.0698L44.2203 30.753H44.0347L42.9402 33.0698H45.2972Z" fill="#1A171B"></path><path d="M45.8398 30.2642H46.4631L48.1364 32.2676L49.7559 30.2642H50.4002L48.3674 32.7338V34.4398H47.9062V32.7346L45.8398 30.2642Z" fill="#1A171B"></path></svg> 